<?xml version="1.0" encoding="utf-8"?>
<!-- Generator: Adobe Illustrator 23.0.1, SVG Export Plug-In . SVG Version: 6.00 Build 0)  -->
<svg version="1.1" id="Layer_1" xmlns="http://www.w3.org/2000/svg" xmlns:xlink="http://www.w3.org/1999/xlink" x="0px" y="0px"
	 viewBox="0 0 250 250" style="enable-background:new 0 0 250 250;" xml:space="preserve">
<g>
	<path d="M232.54,12.83c-4.59-4.59-13.43-3.21-19.71,3.07c-0.68,0.68-3.69,3.78-8.27,8.52l-0.86-0.86
		C191.6,11.46,176.75,4.2,161.89,3.11c-16.75-1.23-32.55,5.07-45.69,18.2C102.65,34.87,96.7,51.61,98.25,68.3
		c-0.47-0.05-0.94-0.11-1.41-0.14c-16.75-1.22-32.55,5.07-45.69,18.2c-25.09,25.09-24.17,61.07,2.24,87.48l26.92,26.92l20.19-20.19
		l-26.92-26.92c-5.79-5.79-23.06-26.29-2.24-47.11c7.19-7.19,15.08-10.52,23.41-9.91c8.03,0.59,16.44,4.91,23.69,12.16l26.92,26.92
		l20.19-20.19L138.64,88.6c-5.79-5.79-23.06-26.29-2.24-47.11c7.19-7.19,15.06-10.53,23.41-9.91c8.03,0.59,16.44,4.91,23.69,12.16
		l26.92,26.92l20.19-20.19l-9.65-9.65c4.74-4.59,7.84-7.6,8.52-8.27C235.75,26.26,237.13,17.41,232.54,12.83z"/>
	<path d="M14.8,230.57c0.16,0.16,0.32,0.32,0.66,0.32c1.18,0,4.51-1.95,17.09-12.85l10.76,10.76
		c13.61,13.61,29.76,20.46,45.66,20.45c14.95,0,29.66-6.05,41.82-18.21c13.56-13.56,19.51-30.3,17.96-46.99
		c0.47,0.05,0.94,0.11,1.41,0.14c1.37,0.1,2.74,0.15,4.1,0.15c15.23,0,29.53-6.29,41.59-18.35c13.13-13.13,19.43-28.93,18.2-45.69
		c-1.09-14.86-8.35-29.7-20.44-41.8l-26.92-26.92l-20.19,20.19l26.92,26.92c7.25,7.25,11.57,15.67,12.16,23.69
		c0.61,8.35-2.72,16.22-9.91,23.41c-7.19,7.19-15.08,10.52-23.41,9.91c-8.03-0.59-16.44-4.91-23.69-12.16l-26.92-26.92l-20.19,20.19
		l26.92,26.92c5.79,5.79,23.06,26.29,2.24,47.11c-20.82,20.81-41.32,3.55-47.11-2.24l-26.92-26.92l-20.19,20.19l10.94,10.94
		C13.28,229.02,14.1,229.87,14.8,230.57z"/>
</g>
</svg>
