<svg xmlns="http://www.w3.org/2000/svg" viewBox="0 0 249.97 250.08"><defs><style>.a{fill:#1d1d1b;}</style></defs><title>Asset 2</title><circle class="a" cx="58.87" cy="223.95" r="11.54"/><circle class="a" cx="124.24" cy="158.58" r="11.54"/><circle class="a" cx="189.61" cy="93.22" r="11.54"/><path class="a" d="M83.4,52.38h0a57.75,57.75,0,0,0,0,81.68l32.68,32.68,16.34-16.34L99.73,117.7a34.66,34.66,0,0,1,0-49h0a34.66,34.66,0,0,1,49,0l32.7,32.69,16.31-16.31L165.08,52.38A57.75,57.75,0,0,0,83.4,52.38Z"/><path class="a" d="M18,117.74h0a57.77,57.77,0,0,0,0,81.68l32.68,32.69,16.35-16.34-32.7-32.7a34.67,34.67,0,0,1,0-49h0a34.67,34.67,0,0,1,49,0l32.7,32.7,16.32-16.31L99.71,117.74A57.77,57.77,0,0,0,18,117.74Z"/><circle class="a" cx="189.49" cy="27.85" r="11.54"/><circle class="a" cx="124.13" cy="93.22" r="11.54"/><circle class="a" cx="58.76" cy="158.58" r="11.54"/><path class="a" d="M115.94,101.4l32.7,32.7a34.66,34.66,0,0,1,0,49h0a34.67,34.67,0,0,1-49,0L66.92,150.43,50.6,166.74l32.69,32.68a57.75,57.75,0,0,0,81.68,0h0a57.77,57.77,0,0,0,0-81.68L132.28,85.06Z"/><path class="a" d="M181.31,36,214,68.73a34.67,34.67,0,0,1,0,49h0a34.67,34.67,0,0,1-49,0l-32.7-32.7L116,101.37l32.68,32.69a57.78,57.78,0,0,0,81.69,0h0a57.77,57.77,0,0,0,0-81.68L197.65,19.69Z"/><path class="a" d="M220.9,4.08h19.23a11.54,11.54,0,0,1,11.54,11.54v0a11.54,11.54,0,0,1-11.54,11.54H220.9a3.84,3.84,0,0,1-3.84-3.84V7.92A3.84,3.84,0,0,1,220.9,4.08Z" transform="translate(57.6 170.29) rotate(-45)"/><path class="a" d="M2.39,230.38H29.32a1.92,1.92,0,0,1,1.92,1.92V240a1.92,1.92,0,0,1-1.92,1.92H2.39a5.77,5.77,0,0,1-5.77-5.77v0a5.77,5.77,0,0,1,5.77-5.77Z" transform="translate(-162.9 79.02) rotate(-45)"/></svg>