<svg xmlns="http://www.w3.org/2000/svg" viewBox="0 0 223.15 218.45"><defs><style>.a{fill:#1d1d1b;}.b{fill:#fff;}</style></defs><title>Asset 1</title><path class="a" d="M96.35,98.7a56.44,56.44,0,0,0-79.82,0h0a56.44,56.44,0,0,0,0,79.82l27,27,.06,0L44,206a17.61,17.61,0,0,0,24.9-24.9l30-30a17.61,17.61,0,1,0,24.9-24.9l-.44-.41s0,0,0-.07Z"/><path class="b" d="M68.89,112.23h0a21.23,21.23,0,0,1,21.23,21.23v55.76a.68.68,0,0,1-.68.68H48.34a.68.68,0,0,1-.68-.68V133.45a21.23,21.23,0,0,1,21.23-21.23Z" transform="translate(-86.64 92.96) rotate(-45)"/><path class="a" d="M151.26,43.79a56.43,56.43,0,0,0-79.81,0h0a56.43,56.43,0,0,0,0,79.81l27,27,.06,0c.14.14.27.29.42.43a17.61,17.61,0,1,0,24.9-24.9l30-30a17.61,17.61,0,0,0,24.9-24.9l-.43-.41,0-.06Z"/><path class="b" d="M123.81,57.31h0A21.23,21.23,0,0,1,145,78.54V134.3a.68.68,0,0,1-.68.68h-41.1a.68.68,0,0,1-.68-.68V78.54a21.23,21.23,0,0,1,21.23-21.23Z" transform="translate(-31.72 115.7) rotate(-45)"/><path class="a" d="M179.16,16.76a17.61,17.61,0,1,0-24.9,24.9l27.45,27.46a21.23,21.23,0,0,1,0,30h0a21.23,21.23,0,0,1-30,0L124.24,71.68a17.61,17.61,0,1,0-24.9,24.9l.43.41,0,.07,27,27a56.43,56.43,0,0,0,79.81,0h0a56.43,56.43,0,0,0,0-79.82l-27-27s0,0-.06,0S179.3,16.9,179.16,16.76Z"/><path class="a" d="M124.24,71.68a17.61,17.61,0,1,0-24.9,24.9L126.8,124a21.21,21.21,0,0,1,0,30h0a21.23,21.23,0,0,1-30,0L69.32,126.59a17.61,17.61,0,0,0-24.9,24.9c.14.15.29.28.44.42l0,.06,27,27a56.44,56.44,0,0,0,79.82,0h0a56.43,56.43,0,0,0,0-79.81l-27-27-.07,0Z"/><path class="a" d="M196.25-1.28h8.12A17.61,17.61,0,0,1,222,16.33v0a17.61,17.61,0,0,1-17.61,17.61h-8.12a5.87,5.87,0,0,1-5.87-5.87V4.59a5.87,5.87,0,0,1,5.87-5.87Z" transform="translate(48.84 150.57) rotate(-45)"/><path class="a" d="M8.26,195.9H28.11A2.94,2.94,0,0,1,31,198.83v11.73a2.94,2.94,0,0,1-2.94,2.94H8.26a8.8,8.8,0,0,1-8.8-8.8v0a8.8,8.8,0,0,1,8.8-8.8Z" transform="translate(-140.28 70.74) rotate(-45)"/></svg>