<svg xmlns="http://www.w3.org/2000/svg" viewBox="0 0 206.07 197.98"><defs><style>.a{opacity:0.2;}.b{fill:#446362;}.c{fill:none;stroke:#312a77;stroke-miterlimit:10;}.d{fill:#312a77;}</style></defs><title>logo_design</title><g class="a"><path class="b" d="M42.93,169,28.79,154.85a30,30,0,0,1,42.42-42.43l21.22,21.22a10,10,0,1,0,14.14-14.15L85.36,98.28a30,30,0,0,1,42.42-42.42L149,77.07a10,10,0,0,0,14.15-14.14L141.92,41.71A50,50,0,0,0,57.07,84.14,50,50,0,0,0,26.88,178l-5.16,5.16a5,5,0,0,0,0,7.08A15,15,0,1,0,42.93,169Z"/><path class="b" d="M149,119.5a50,50,0,0,0,34.63-91.21l7.79-7.79a10,10,0,0,0,0-14.14,8.16,8.16,0,0,0-.76-.69,20,20,0,0,0-27.52,29l7.07,7.07,7.07,7.07a30,30,0,1,1-42.43,42.43h0L113.64,70A10,10,0,1,0,99.5,84.14l21.21,21.21a30,30,0,0,1-42.43,42.43L57.07,126.57a10,10,0,1,0-14.14,14.14l21.21,21.21A50,50,0,0,0,149,119.5Z"/></g><g class="a"><rect class="c" x="138.99" y="42.93" width="20" height="40" transform="translate(-0.86 123.79) rotate(-45)"/><rect class="c" x="103.64" y="64.14" width="20" height="40" transform="translate(-26.21 105) rotate(-45)"/><rect class="c" x="82.43" y="99.49" width="20" height="40" transform="translate(-57.42 100.35) rotate(-45)"/><rect class="c" x="47.07" y="120.71" width="20" height="40" transform="translate(-82.78 81.57) rotate(-45)"/><rect class="c" x="25.86" y="156.06" width="20" height="40" transform="translate(-113.99 76.92) rotate(-45)"/><rect class="c" x="160.21" y="7.57" width="20" height="40" transform="translate(30.36 128.43) rotate(-45)"/><circle class="c" cx="27.37" cy="185.26" r="7.5"/><circle class="c" cx="184.35" cy="13.43" r="10"/><circle class="c" cx="177.28" cy="20.5" r="20"/><circle class="c" cx="32.32" cy="179.6" r="15"/><circle class="c" cx="50" cy="133.64" r="30"/><circle class="c" cx="99.5" cy="126.57" r="30"/><circle class="c" cx="106.57" cy="77.07" r="30"/><path class="d" d="M50,84.64A49,49,0,1,1,15.35,99,48.67,48.67,0,0,1,50,84.64m0-1A50,50,0,1,0,85.36,98.28,49.87,49.87,0,0,0,50,83.64Z"/><path class="d" d="M99.5,77.57A49,49,0,1,1,64.85,91.92,48.67,48.67,0,0,1,99.5,77.57m0-1a50,50,0,1,0,35.35,14.64A49.87,49.87,0,0,0,99.5,76.57Z"/><path class="d" d="M106.57,28.07A49,49,0,1,1,71.92,42.42a48.71,48.71,0,0,1,34.65-14.35m0-1a50,50,0,1,0,35.35,14.64,49.87,49.87,0,0,0-35.35-14.64Z"/><path class="d" d="M156.07,21a49,49,0,1,1-34.65,14.35A48.64,48.64,0,0,1,156.07,21m0-1a50,50,0,1,0,35.35,14.64A49.85,49.85,0,0,0,156.07,20Z"/><circle class="c" cx="156.07" cy="70" r="30"/><rect class="c" x="41.21" y="124.85" width="60" height="60" transform="translate(12.07 314.7) rotate(-135)"/><rect class="c" x="48.28" y="75.35" width="60" height="60" transform="translate(97.42 -24.5) rotate(45)"/><rect class="c" x="97.78" y="68.28" width="60" height="60" transform="translate(148.64 258.13) rotate(-135)"/><rect class="c" x="104.85" y="18.78" width="60" height="60" transform="translate(73.99 -81.07) rotate(45)"/></g></svg>