<svg xmlns="http://www.w3.org/2000/svg" viewBox="0 0 887.8 427.76"><defs><style>.a{opacity:0.4;}.b{font-size:165px;font-family:UbuntuTitling-Bold, Ubuntu Titling;font-weight:700;letter-spacing:-0.07em;}.c{letter-spacing:-0.07em;}</style></defs><title>Asset 7</title><path d="M68.55,332.41,46,309.82a47.91,47.91,0,0,1,67.75-67.75l22.58-22.58A79.84,79.84,0,1,0,42.92,346.75L34.68,355a8,8,0,0,0,0,11.29,23.95,23.95,0,1,0,33.87-33.87Z"/><path d="M170.18,253.37,136.3,219.49a47.91,47.91,0,0,1,67.75-67.75l33.88,33.88A16,16,0,0,0,260.51,163l-33.87-33.87A79.84,79.84,0,0,0,113.72,242.07L147.6,276a16,16,0,0,0,22.58-22.58Z"/><path d="M158.89,196.91l33.87,33.87A47.91,47.91,0,0,1,125,298.53L91.14,264.66a16,16,0,0,0-22.59,22.58l33.88,33.88A79.85,79.85,0,0,0,215.35,208.2l-33.88-33.88a16,16,0,0,0-22.58,22.59Z"/><path d="M305.68,117.86a79.59,79.59,0,0,0-12.44-10.13l12.44-12.45a16,16,0,0,0,0-22.58,15.6,15.6,0,0,0-1.21-1.1,31.92,31.92,0,0,0-44,46.26l11.29,11.3,11.3,11.29a47.91,47.91,0,1,1-67.75,67.75h0l-22.59,22.58h0A79.85,79.85,0,0,0,305.68,117.86Z"/><text class="b" transform="translate(372.52 135.3)">medical<tspan x="-6.93" y="128">website</tspan><tspan class="c"><tspan x="39.27" y="256">design</tspan></tspan></text></svg>