<svg xmlns="http://www.w3.org/2000/svg" viewBox="0 0 251.35 136.49"><title>pp_iso</title><path d="M52.55,118.47l-17.32-10c-14.35-8.29-14.42-21.68-.16-29.91s37.45-8.19,51.8.09l17.21-9.93c-23.92-13.81-62.57-13.88-86.33-.16S-5.9,104.6,18,118.4a70.81,70.81,0,0,0,15,6.36l-6.28,3.63c-2.37,1.37-2.36,3.6,0,5,7.17,4.14,18.77,4.16,25.9,0S59.72,122.61,52.55,118.47Z"/><path d="M130.06,83.72l-26-15C89.73,60.43,89.66,47,103.92,38.81s37.45-8.19,51.79.09l26,15c4.78,2.76,12.51,2.78,17.26,0s4.73-7.2-.05-10l-26-15c-23.92-13.8-62.57-13.87-86.34-.15s-23.64,36,.28,49.84l26,15c4.78,2.76,12.51,2.78,17.26,0S134.84,86.48,130.06,83.72Z"/><path d="M121.29,58.78l26,15c14.35,8.28,14.42,21.67.16,29.9s-37.45,8.19-51.8-.09l-26-15c-4.78-2.76-12.51-2.78-17.26,0s-4.73,7.21,0,10l26,15c23.92,13.8,62.57,13.87,86.33.15s23.65-36-.27-49.84l-26-15c-4.78-2.76-12.51-2.78-17.26,0S116.51,56,121.29,58.78Z"/><path d="M233.33,24.09a67.43,67.43,0,0,0-9.54-4.49l9.49-5.48c4.75-2.74,4.73-7.21-.06-10a10.11,10.11,0,0,0-.93-.48c-9.61-5-24.39-4.9-33.6.42-9.5,5.49-9.46,14.41.11,19.94l8.66,5,8.66,5c14.35,8.28,14.42,21.67.16,29.9s-37.45,8.19-51.8-.09h0l-17.21,9.94h0c23.92,13.8,62.57,13.87,86.33.15S257.25,37.9,233.33,24.09Z"/></svg>
