<svg xmlns="http://www.w3.org/2000/svg" viewBox="0 0 797.06 194.09"><defs><style>.a{opacity:0.4;}.b{font-size:165px;font-family:UbuntuTitling-Bold, Ubuntu Titling;font-weight:700;letter-spacing:-0.07em;}</style></defs><title>text_logo</title><text class="b" transform="translate(220.07 154)">medweb</text><path d="M42.93,168.48,28.79,154.34a30,30,0,0,1,42.42-42.43L85.36,97.77a50,50,0,1,0-58.48,79.69l-5.16,5.16a5,5,0,0,0,0,7.07,15,15,0,0,0,21.21-21.21Z"/><path d="M106.57,119,85.36,97.77a30,30,0,0,1,42.42-42.43L149,76.56a10,10,0,0,0,14.15-14.15L141.92,41.2a50,50,0,0,0-70.71,70.71l21.22,21.22A10,10,0,1,0,106.57,119Z"/><path d="M99.5,83.63l21.21,21.21a30,30,0,0,1-42.43,42.43L57.07,126.05A10,10,0,0,0,42.93,140.2l21.21,21.21A50,50,0,1,0,134.85,90.7L113.64,69.49A10,10,0,0,0,99.5,83.63Z"/><path d="M191.42,34.13a50.11,50.11,0,0,0-7.79-6.35L191.42,20a10,10,0,0,0,0-14.14,8.16,8.16,0,0,0-.76-.69,20,20,0,0,0-27.52,29l7.07,7.07,7.07,7.07A30,30,0,0,1,134.85,90.7h0l-14.14,14.14h0a50,50,0,0,0,70.71-70.71Z"/></svg>