<svg xmlns="http://www.w3.org/2000/svg" viewBox="0 0 116.19 91.07"><defs><style>.a{opacity:0.4;}.b{fill:#c3e6e0;}</style></defs><title>extra3</title><g class="a"><path class="b" d="M70.21,42.46V27.75H58.79A24.3,24.3,0,0,0,57,23.59l8.11-8.11L54.73,5.08l-8.27,8.27a24.8,24.8,0,0,0-4-1.57V0H27.75V12.1a23.81,23.81,0,0,0-3.66,1.59L15.48,5.08,5.08,15.48l8.77,8.77a23.74,23.74,0,0,0-1.42,3.5H0V42.46H12.43A23.74,23.74,0,0,0,13.85,46L5.08,54.73l10.4,10.4,8.61-8.61a24.88,24.88,0,0,0,3.66,1.6V70.21H42.46V58.43a23.08,23.08,0,0,0,4-1.57l8.27,8.27,10.4-10.4L57,46.62a24.3,24.3,0,0,0,1.77-4.16Zm-52-7.35A17.38,17.38,0,0,1,35.36,17.73a17.38,17.38,0,0,1,0,34.76A17.39,17.39,0,0,1,18.22,35.11Z"/><circle class="b" cx="35.11" cy="35.11" r="12.26"/><path class="b" d="M116.19,71.64V61.35h-8A16.6,16.6,0,0,0,107,58.44l5.67-5.68-7.27-7.27-5.79,5.78a17.9,17.9,0,0,0-2.8-1.1V41.93H86.48V50.4a16.74,16.74,0,0,0-2.57,1.11l-6-6-7.28,7.27,6.14,6.14a17.47,17.47,0,0,0-1,2.45h-8.7V71.64h8.7a17.6,17.6,0,0,0,1,2.46l-6.14,6.13,7.28,7.28,6-6a16.74,16.74,0,0,0,2.57,1.11v8.47H96.77V82.82a16.13,16.13,0,0,0,2.8-1.1l5.79,5.79,7.27-7.28L107,74.56a16.7,16.7,0,0,0,1.23-2.92ZM79.81,66.5a12,12,0,1,1,12,12.16A12.16,12.16,0,0,1,79.81,66.5Z"/><circle class="b" cx="91.62" cy="66.5" r="8.58"/></g></svg>