<svg xmlns="http://www.w3.org/2000/svg" viewBox="0 0 130.66 108.16"><defs><style>.a{opacity:0.4;}.b{fill:#c3e6e0;}</style></defs><title>extra2</title><g class="a"><rect class="b" x="79.73" y="5" width="30.21" height="3.16"/><rect class="b" x="24" y="10" width="33.12" height="3.16"/><rect class="b" x="22.42" y="80" width="62.7" height="3.16" transform="translate(107.53 163.16) rotate(180)"/><rect class="b" x="22.84" y="35" width="62.7" height="3.16"/><rect class="b" x="22.42" y="105" width="62.7" height="3.16"/><rect class="b" x="79.73" y="75" width="30.21" height="3.16"/><rect class="b" x="22.83" y="60" width="68.27" height="3.16"/><rect class="b" x="22.84" y="20" width="107.8" height="3.16"/><rect class="b" x="22.42" y="89.95" width="107.8" height="3.16"/><rect class="b" x="99.31" y="40" width="18.47" height="3.16"/><rect class="b" x="24" width="33.12" height="3.16"/><rect class="b" x="45.02" y="5" width="33.12" height="3.16"/><rect class="b" x="88.28" y="35" width="33.12" height="3.16"/><rect class="b" x="58.71" y="10" width="62.7" height="3.16"/><rect class="b" x="86.7" y="80" width="33.12" height="3.16" transform="translate(206.52 163.16) rotate(180)"/><rect class="b" x="36.95" y="40" width="59.37" height="3.16"/><rect class="b" x="39.34" y="45" width="51.63" height="3.16"/><rect class="b" x="87.86" y="105" width="33.12" height="3.16"/><rect class="b" x="22.84" y="55" width="35.9" height="3.16" transform="translate(81.58 113.16) rotate(180)"/><rect class="b" x="62.39" y="55" width="68.27" height="3.16" transform="translate(193.05 113.16) rotate(180)"/><rect class="b" x="94.75" y="60" width="35.9" height="3.16"/><rect class="b" x="22.84" y="15" width="107.8" height="3.16"/><rect class="b" x="22.42" y="84.95" width="107.8" height="3.16"/><rect class="b" x="112.17" y="5" width="18.47" height="3.16"/><rect class="b" x="45.02" y="75" width="33.12" height="3.16"/><rect class="b" x="112.17" y="75" width="18.47" height="3.16"/><rect class="b" x="120.18" y="40" width="10.46" height="3.16"/><rect class="b" x="22.84" y="40" width="11.36" height="3.16"/><rect class="b" x="60" width="36.29" height="3.16"/><rect class="b" x="46.66" y="95" width="42.31" height="3.16"/><rect class="b" x="91.85" y="95" width="36.29" height="3.16"/><rect class="b" x="22.42" y="70" width="36.58" height="3.16"/><rect class="b" x="62.39" y="70" width="39.86" height="3.16"/><rect class="b" x="79.76" y="25" width="33.12" height="3.16" transform="translate(192.64 53.16) rotate(180)"/><rect class="b" x="40.59" y="25" width="36.29" height="3.16" transform="translate(117.48 53.16) rotate(180)"/><rect class="b" width="18.99" height="3.16"/><rect class="b" y="5" width="18.99" height="3.16"/><rect class="b" y="10" width="18.99" height="3.16"/><rect class="b" y="15" width="18.99" height="3.16"/><rect class="b" y="20" width="18.99" height="3.16"/><rect class="b" y="30" width="18.99" height="3.16"/><rect class="b" y="35" width="18.99" height="3.16"/><rect class="b" y="55" width="18.99" height="3.16"/><rect class="b" y="60" width="18.99" height="3.16"/><rect class="b" y="70" width="18.99" height="3.16"/><rect class="b" y="75" width="18.99" height="3.16"/><rect class="b" y="80" width="18.99" height="3.16"/><rect class="b" y="85" width="18.99" height="3.16"/><rect class="b" y="90" width="18.99" height="3.16"/><rect class="b" y="100" width="18.99" height="3.16"/><rect class="b" y="105" width="18.99" height="3.16"/></g></svg>