<svg xmlns="http://www.w3.org/2000/svg" viewBox="0 0 615.93 458.32"><defs><style>.a{opacity:0.3;}.b{fill:#286e75;}.c,.d,.e,.f,.g{fill:none;stroke:#286e75;stroke-miterlimit:10;}.c{stroke-width:6px;}.e{stroke-width:10px;}.f,.g{stroke-width:5px;}.g{font-size:55.57px;font-family:MyriadPro-Regular, Myriad Pro;}</style></defs><title>foreground</title><g class="a"><path class="b" d="M201.56,344.32h20.06a6.11,6.11,0,0,1,6.11,6.11v37.86a0,0,0,0,1,0,0H195.45a0,0,0,0,1,0,0V350.43A6.11,6.11,0,0,1,201.56,344.32Z" transform="translate(56.53 -27.28) rotate(8.51)"/><path class="b" d="M194.65,390.52H214.7a6.11,6.11,0,0,1,6.11,6.11v37.86a0,0,0,0,1,0,0H188.54a0,0,0,0,1,0,0V396.63A6.11,6.11,0,0,1,194.65,390.52Z" transform="translate(346.06 850.75) rotate(-171.49)"/><circle class="b" cx="290.82" cy="355.93" r="12.79"/><circle class="b" cx="284.12" cy="400.73" r="12.79"/><circle class="b" cx="277.41" cy="445.52" r="12.79"/><polygon class="b" points="275.25 355.78 275.89 351.52 262.06 349.45 261.75 351.58 261.75 351.58 255.36 394.25 227.5 390.08 226.86 394.34 254.72 398.51 248.34 441.17 248.34 441.17 248.02 443.3 261.85 445.37 262.49 441.11 252.92 439.68 258.99 399.15 268.55 400.58 269.19 396.31 259.63 394.88 265.69 354.35 275.25 355.78"/></g><g class="a"><path class="c" d="M370.6,57.94c10.6-3.19,24.66-.75,26.16-3.61,5.82-11.15,4.76-20,6.91-20.37,4.23-.64,13.61,47.49,17.63,45.35s2.13-75.08,7.11-76.26c7.15-1.69,9.61,38.28,22.87,44.52"/><path class="c" d="M370.6,57.94c10.6-3.19,24.66-.75,26.16-3.61,5.82-11.15,4.76-20,6.91-20.37,4.23-.64,13.61,47.49,17.63,45.35s2.13-75.08,7.11-76.26c7.15-1.69,9.61,38.28,22.87,44.52,5.07,2.38,6.35-1.14,14.08-1.16"/><circle class="d" cx="472.47" cy="46.34" r="7.28"/></g><g class="a"><path class="e" d="M71.53,125.12l-.62-.24a10.21,10.21,0,0,0-7.32-.1L63,125l-4.26,1.56-2-4.06-.28-.56A10.3,10.3,0,0,0,51,117l-.62-.24c-8.17-3.25-16.86,7.13-13.53,16.16h0l8.87,24a1.11,1.11,0,0,0,1.56.63l22.95-11.42C78.89,141.88,79.69,128.37,71.53,125.12Z"/><path class="e" d="M23.38,95.87H84a7.71,7.71,0,0,1,7.71,7.71v70.13a9,9,0,0,1-9,9H24.64a9,9,0,0,1-9-9V103.58a7.71,7.71,0,0,1,7.71-7.71Z" transform="translate(55.22 -9.98) rotate(21.67)"/><rect class="e" x="54.57" y="94.12" width="32.14" height="4.96" transform="translate(40.66 -19.26) rotate(21.67)"/><rect class="e" x="53.38" y="65.99" width="50.69" height="20.51" rx="1.52" transform="translate(33.71 -23.68) rotate(21.67)"/></g><g class="a"><path class="f" d="M566.12,218.57l28.43,19.16a.27.27,0,0,1-.11.49l-23.31,4.46a.28.28,0,0,1-.32-.22l-4.53-23.69a.26.26,0,0,0-.31-.21l-65.91,12.6a.28.28,0,0,0-.22.31l22.92,119.87a.28.28,0,0,0,.32.22l90.13-17.24a.26.26,0,0,0,.21-.31L595.11,238.2A.3.3,0,0,0,595,238Z"/><text class="g" transform="matrix(0.98, -0.19, 0.19, 0.98, 542.95, 285.39)">£</text><rect class="d" x="546.36" y="309.37" width="47.72" height="2.51" rx="0.35" transform="translate(-48.19 112.61) rotate(-10.82)"/><rect class="d" x="548.44" y="320.26" width="47.72" height="2.51" rx="0.35" transform="translate(-50.2 113.2) rotate(-10.82)"/><rect class="d" x="540.34" y="299.55" width="44.4" height="2.51" rx="0.35" transform="translate(-46.48 111) rotate(-10.82)"/><path class="d" d="M548.12,309.13l.32.59a4.58,4.58,0,0,0,3.55,2.33l.66.06a4.55,4.55,0,0,1,4.08,5.09l-.09.66a4.57,4.57,0,0,0,1.5,4l.5.44a4.55,4.55,0,0,1,.31,6.52l-.46.48a4.56,4.56,0,0,0-1.12,4.1l.15.65a4.55,4.55,0,0,1-3.58,5.45l-.66.12a4.55,4.55,0,0,0-3.31,2.65l-.27.62a4.54,4.54,0,0,1-6.1,2.3l-.6-.28a4.52,4.52,0,0,0-4.24.2l-.58.34a4.54,4.54,0,0,1-6.29-1.73l-.32-.58a4.51,4.51,0,0,0-3.55-2.33l-.66-.07a4.55,4.55,0,0,1-4.08-5.09l.09-.66a4.58,4.58,0,0,0-1.5-4l-.5-.44a4.54,4.54,0,0,1-.31-6.51l.46-.49a4.52,4.52,0,0,0,1.12-4.09l-.14-.66a4.53,4.53,0,0,1,3.58-5.44l.65-.13a4.56,4.56,0,0,0,3.32-2.65l.26-.62a4.54,4.54,0,0,1,6.1-2.3l.61.29a4.56,4.56,0,0,0,4.23-.2l.58-.34A4.55,4.55,0,0,1,548.12,309.13Z"/><path class="d" d="M537.94,337.79l-.23.75c-1.5,4.85-2.31,4.63-1.13-.31l.19-.76Z"/><polygon class="d" points="540.08 330.75 539.2 333.73 538.86 334.82 537.49 334.44 537.75 333.34 538.51 330.32 540.08 330.75"/><polygon class="d" points="542.53 322.47 541.14 327.16 539.43 326.69 540.63 321.95 542.53 322.47"/><path class="d" d="M542.12,316c1.39-5.68,1.82-5.22,2.53-5h0c.71.2,1.32,0-.38,5.61Z"/><path class="d" d="M543.9,323.1c-.47,1.84-4.22,2.24-4.59,3.57-.32,1.11,2.39,2.38,2.08,4-.4,2.13-3.61,2.25-4,3.69s2.26,2.74,1.82,3.69a1.5,1.5,0,0,1-1.88.72c-.86-.24,2-.6.72-1.57-.83-.63-2.58-2.46-1.07-4.1,1-1.06,3.13-1.4,3.29-2.46.19-1.29-2.9-2.9-2.3-4.81.43-1.36,4.59-2.09,4.73-3.41.28-2.66-3.43-3.81-2.55-7.27.6-2.34,4.9-2.52,5.47-1.05,1,2.59-3.46-.91-4,1.81C541.33,317.26,544.86,319.3,543.9,323.1Z"/><polygon class="d" points="538.86 334.82 537.94 337.79 536.77 337.47 537.49 334.44 538.86 334.82"/><polygon class="d" points="541.14 327.16 540.08 330.75 538.51 330.32 539.43 326.69 541.14 327.16"/><path class="d" d="M544.27,316.59c0,.12-.08.24-.11.36l-1.63,5.52-1.9-.52,1.41-5.58c0-.12.06-.24.08-.36Z"/></g></svg>