<svg xmlns="http://www.w3.org/2000/svg" xmlns:xlink="http://www.w3.org/1999/xlink" viewBox="0 0 103.82 100.71"><defs><style>.a{opacity:0.4;}.b{fill:#c3e6e0;}.c{fill:url(#a);}.d{fill:url(#b);}.e{fill:url(#c);}.f{fill:url(#d);}.g{fill:url(#e);}.h{fill:url(#f);}.i{fill:url(#g);}.j{fill:url(#h);}</style><linearGradient id="a" x1="50.05" y1="85.44" x2="53.23" y2="85.44" gradientUnits="userSpaceOnUse"><stop offset="0" stop-color="#407ec2"/><stop offset="0.19" stop-color="#328ebe"/><stop offset="0.72" stop-color="#0fb6b5"/><stop offset="1" stop-color="#01c6b2"/></linearGradient><linearGradient id="b" x1="49.52" y1="66.33" x2="53.76" y2="66.33" xlink:href="#a"/><linearGradient id="c" x1="49.06" y1="45.21" x2="54.21" y2="45.21" xlink:href="#a"/><linearGradient id="d" x1="48.65" y1="16.44" x2="54.62" y2="16.44" xlink:href="#a"/><linearGradient id="e" x1="43.05" y1="48.85" x2="58.11" y2="48.85" xlink:href="#a"/><linearGradient id="f" x1="49.78" y1="75.67" x2="53.5" y2="75.67" xlink:href="#a"/><linearGradient id="g" x1="49.32" y1="56.18" x2="53.95" y2="56.18" xlink:href="#a"/><linearGradient id="h" x1="48.73" y1="31.22" x2="54.54" y2="31.22" xlink:href="#a"/></defs><title>1asclepius</title><g class="a"><polygon class="b" points="103.83 36.94 89.83 13.41 65.91 26.82 65.91 0 37.92 0 37.92 26.82 13.99 13.41 0 36.94 23.92 50.35 0 63.76 13.99 87.3 37.92 73.89 37.92 100.71 65.91 100.71 65.91 73.89 89.83 87.3 103.83 63.76 79.9 50.35 103.83 36.94"/><path class="c" d="M53.23,79.61l-.07,2c-.43,12.89-2.62,12.89-3,0l-.06-2Z"/><polygon class="d" points="53.76 60.93 53.6 68.84 53.5 71.72 49.78 71.72 49.68 68.84 49.52 60.93 53.76 60.93"/><polygon class="e" points="54.21 39 53.95 51.43 49.32 51.43 49.06 39 54.21 39"/><path class="f" d="M48.73,23.44c-.43-14.84,1-14,2.91-14h0c1.93,0,3.34-.84,2.9,14Z"/><path class="g" d="M58.11,39.63C58.2,44.46,49,47.94,49,51.44c0,3,7.69,4.24,8,8.44.45,5.49-7.56,7.93-7.68,11.76-.12,3.64,7.59,5.2,7.15,7.83-.31,1.83-2,3-4.24,3s4.6-2.8.71-4.32c-2.52-1-8.19-4.3-5.52-9.32,1.73-3.25,6.92-5.54,6.59-8.22-.4-3.3-9.32-5.16-9.12-10.26.15-3.62,10.14-8.19,9.58-11.51-1.13-6.71-11.28-7.05-11.45-16.13-.12-6.11,10.61-9.45,13.07-6.24,4.35,5.69-9.36.1-8.8,7.11C47.59,27.06,57.92,29.67,58.11,39.63Z"/><polygon class="h" points="53.5 71.72 53.23 79.61 50.05 79.61 49.78 71.72 53.5 71.72"/><polygon class="i" points="53.95 51.43 53.76 60.93 49.52 60.93 49.32 51.43 53.95 51.43"/><path class="j" d="M54.54,23.44l0,.95L54.21,39H49.06l-.3-14.61,0-.95Z"/></g></svg>