<svg xmlns="http://www.w3.org/2000/svg" xmlns:xlink="http://www.w3.org/1999/xlink" viewBox="0 0 358.15 249.58"><defs><style>.a{fill:url(#a);}.b{fill:url(#b);}.c{fill:#0e5090;}.d{fill:#1e76bd;}.e{fill:url(#c);}.f{fill:#08357f;}.g{fill:url(#d);}.h{fill:url(#e);}.i,.p{fill:#c3e6e0;}.j{fill:#cb003f;}.k{fill:#75c44c;}.l{fill:#f2f2f0;}.m{fill:#f0a30a;}.n{fill:#dddcd7;}.o{fill:#01c6b2;}.p{font-size:25.88px;font-family:MyriadPro-Regular, Myriad Pro;}</style><linearGradient id="a" x1="179.07" y1="247.15" x2="179.07" y2="220.33" gradientUnits="userSpaceOnUse"><stop offset="0" stop-color="#d3ebfe"/><stop offset="0.61" stop-color="#a5e7f4"/></linearGradient><linearGradient id="b" x1="179.07" y1="201.09" x2="179.07" y2="17.86" xlink:href="#a"/><linearGradient id="c" y1="169.16" x2="358.15" y2="169.16" gradientUnits="userSpaceOnUse"><stop offset="0.01" stop-color="#5394a3"/><stop offset="0.1" stop-color="#5797a6"/><stop offset="0.2" stop-color="#649fae"/><stop offset="0.31" stop-color="#79adbc"/><stop offset="0.41" stop-color="#97c1d0"/><stop offset="0.52" stop-color="#bdd9e8"/><stop offset="0.58" stop-color="#d6eaf9"/><stop offset="0.61" stop-color="#c8e0ef"/><stop offset="0.73" stop-color="#9fc2d3"/><stop offset="0.84" stop-color="#82acbe"/><stop offset="0.93" stop-color="#6f9fb1"/><stop offset="1" stop-color="#699aad"/></linearGradient><linearGradient id="d" x1="170.84" y1="206.92" x2="187.2" y2="190.56" gradientUnits="userSpaceOnUse"><stop offset="0" stop-color="#73a3c6"/><stop offset="0.52" stop-color="#9cc8e9"/><stop offset="1" stop-color="#bddcf8"/></linearGradient><linearGradient id="e" x1="68.94" y1="151.09" x2="75.82" y2="144.2" gradientTransform="matrix(0, 0.96, -1.02, 0, 333.13, 109.94)" xlink:href="#d"/></defs><title>1computer</title><path class="a" d="M200.11,221.7a30.7,30.7,0,0,1,.26-4H157.78a30.7,30.7,0,0,1,.26,4c0,14.59-10.15,26.42-22.67,26.42v1.46h87.41v-1.46C210.26,248.12,200.11,236.29,200.11,221.7Z"/><rect class="b" width="358.15" height="217.72" rx="12"/><path class="c" d="M12,0H346.12a12,12,0,0,1,12,12V168.45a0,0,0,0,1,0,0H0a0,0,0,0,1,0,0V12A12,12,0,0,1,12,0Z"/><rect class="d" x="6.64" y="16.16" width="344.87" height="146.33"/><rect class="e" y="168.45" width="358.15" height="1.41"/><rect class="f" x="164.03" y="5.93" width="28.21" height="5.24" rx="2.18"/><path class="g" d="M185.36,192.66a8.54,8.54,0,0,1,.66-3.28,11.63,11.63,0,1,0,4.54,11.1A8.47,8.47,0,0,1,185.36,192.66Z"/><ellipse class="h" cx="182.8" cy="179.54" rx="6.54" ry="2.37" transform="translate(-73.41 181.84) rotate(-45)"/><polygon class="i" points="274.14 130.3 270.51 124 264.29 127.59 264.29 120.41 257.02 120.41 257.02 127.59 250.81 124 247.17 130.3 253.38 133.89 247.17 137.47 250.81 143.77 257.02 140.18 257.02 147.36 264.29 147.36 264.29 140.18 270.51 143.77 274.14 137.47 267.93 133.89 274.14 130.3"/><path class="d" d="M261,141.72l0,.53c-.11,3.45-.68,3.45-.79,0l0-.53Z"/><polygon class="d" points="261.14 136.72 261.09 138.83 261.07 139.6 260.1 139.6 260.08 138.83 260.03 136.72 261.14 136.72"/><polygon class="d" points="261.25 130.85 261.19 134.17 259.98 134.17 259.92 130.85 261.25 130.85"/><path class="d" d="M259.83,126.69c-.11-4,.25-3.75.75-3.75h0c.51,0,.87-.23.76,3.75Z"/><path class="d" d="M262.27,131c0,1.29-2.37,2.22-2.37,3.16,0,.79,2,1.13,2.08,2.26.12,1.46-2,2.12-2,3.14s2,1.39,1.86,2.1a1,1,0,0,1-1.11.8c-.6,0,1.2-.75.19-1.15-.65-.27-2.13-1.16-1.43-2.5.45-.87,1.8-1.48,1.71-2.2-.11-.88-2.42-1.38-2.37-2.74,0-1,2.63-2.2,2.49-3.09-.3-1.79-2.93-1.88-3-4.31,0-1.64,2.76-2.53,3.4-1.67,1.13,1.52-2.43,0-2.29,1.9C259.53,127.65,262.22,128.35,262.27,131Z"/><polygon class="d" points="261.07 139.6 261 141.72 260.17 141.72 260.1 139.6 261.07 139.6"/><polygon class="d" points="261.19 134.17 261.14 136.72 260.03 136.72 259.98 134.17 261.19 134.17"/><path class="d" d="M261.34,126.69c0,.08,0,.16,0,.25l-.08,3.91h-1.33l-.08-3.91c0-.09,0-.17,0-.25Z"/><rect class="j" x="114.68" y="40.94" width="30.21" height="3.16"/><rect class="j" x="58.96" y="45.94" width="33.12" height="3.16"/><rect class="j" x="57.38" y="115.94" width="62.7" height="3.16" transform="translate(177.45 235.05) rotate(180)"/><rect class="j" x="57.8" y="70.94" width="62.7" height="3.16"/><rect class="j" x="57.38" y="140.94" width="62.7" height="3.16"/><rect class="j" x="114.68" y="110.94" width="30.21" height="3.16"/><rect class="k" x="57.79" y="95.94" width="68.27" height="3.16"/><rect class="k" x="57.8" y="55.94" width="107.8" height="3.16"/><rect class="k" x="57.38" y="125.89" width="107.8" height="3.16"/><rect class="k" x="134.27" y="75.94" width="18.47" height="3.16"/><rect class="l" x="58.96" y="35.94" width="33.12" height="3.16"/><rect class="l" x="79.98" y="40.94" width="33.12" height="3.16"/><rect class="l" x="123.24" y="70.94" width="33.12" height="3.16"/><rect class="l" x="93.66" y="45.94" width="62.7" height="3.16"/><rect class="l" x="121.66" y="115.94" width="33.12" height="3.16" transform="translate(276.43 235.05) rotate(180)"/><rect class="l" x="71.91" y="75.94" width="59.37" height="3.16"/><rect class="l" x="74.3" y="80.94" width="51.63" height="3.16"/><rect class="l" x="122.82" y="140.94" width="33.12" height="3.16"/><rect class="l" x="57.8" y="90.94" width="35.9" height="3.16" transform="translate(151.49 185.05) rotate(180)"/><rect class="l" x="97.35" y="90.94" width="68.27" height="3.16" transform="translate(262.96 185.05) rotate(180)"/><rect class="l" x="129.71" y="95.94" width="35.9" height="3.16"/><rect class="l" x="57.8" y="50.94" width="107.8" height="3.16"/><rect class="l" x="57.38" y="120.89" width="107.8" height="3.16"/><rect class="l" x="147.12" y="40.94" width="18.47" height="3.16"/><rect class="l" x="79.98" y="110.94" width="33.12" height="3.16"/><rect class="l" x="147.12" y="110.94" width="18.47" height="3.16"/><rect class="l" x="155.14" y="75.94" width="10.46" height="3.16"/><rect class="l" x="57.8" y="75.94" width="11.36" height="3.16"/><rect class="l" x="94.96" y="35.94" width="36.29" height="3.16"/><rect class="l" x="81.62" y="130.94" width="42.31" height="3.16"/><rect class="l" x="126.8" y="130.94" width="36.29" height="3.16"/><rect class="l" x="57.38" y="105.94" width="36.58" height="3.16"/><rect class="l" x="97.35" y="105.94" width="39.86" height="3.16"/><rect class="l" x="114.72" y="60.94" width="33.12" height="3.16" transform="translate(262.56 125.05) rotate(180)"/><rect class="l" x="75.55" y="60.94" width="36.29" height="3.16" transform="translate(187.39 125.05) rotate(180)"/><rect class="m" x="34.96" y="35.94" width="18.99" height="3.16"/><rect class="n" x="34.96" y="40.94" width="18.99" height="3.16"/><rect class="n" x="34.96" y="45.94" width="18.99" height="3.16"/><rect class="n" x="34.96" y="50.94" width="18.99" height="3.16"/><rect class="n" x="34.96" y="55.94" width="18.99" height="3.16"/><rect class="n" x="34.96" y="65.94" width="18.99" height="3.16"/><rect class="m" x="34.96" y="70.94" width="18.99" height="3.16"/><rect class="n" x="34.96" y="90.94" width="18.99" height="3.16"/><rect class="n" x="34.96" y="95.94" width="18.99" height="3.16"/><rect class="m" x="34.96" y="105.94" width="18.99" height="3.16"/><rect class="n" x="34.96" y="110.94" width="18.99" height="3.16"/><rect class="n" x="34.96" y="115.94" width="18.99" height="3.16"/><rect class="n" x="34.96" y="120.94" width="18.99" height="3.16"/><rect class="n" x="34.96" y="125.94" width="18.99" height="3.16"/><rect class="n" x="34.96" y="135.94" width="18.99" height="3.16"/><rect class="m" x="34.96" y="140.94" width="18.99" height="3.16"/><rect class="o" x="13.42" y="35.94" width="4.13" height="3.16"/><rect class="o" x="13.42" y="40.94" width="4.13" height="3.16"/><rect class="o" x="13.42" y="45.94" width="4.13" height="3.16"/><rect class="o" x="13.42" y="50.94" width="4.13" height="3.16"/><rect class="o" x="13.42" y="55.94" width="4.13" height="3.16"/><rect class="o" x="13.42" y="60.94" width="4.13" height="3.16"/><rect class="o" x="13.42" y="65.94" width="4.13" height="3.16"/><rect class="o" x="13.42" y="70.94" width="4.13" height="3.16"/><rect class="o" x="13.42" y="75.94" width="4.13" height="3.16"/><rect class="o" x="13.42" y="80.94" width="4.13" height="3.16"/><rect class="o" x="13.42" y="85.94" width="4.13" height="3.16"/><rect class="o" x="13.42" y="90.94" width="4.13" height="3.16"/><rect class="i" x="200.39" y="61.71" width="57.89" height="2.43" transform="translate(458.67 125.86) rotate(180)"/><rect class="i" x="200.39" y="65.55" width="57.89" height="2.43" transform="translate(458.67 133.54) rotate(180)"/><rect class="k" x="261.23" y="65.55" width="14.58" height="2.43" transform="translate(537.05 133.54) rotate(180)"/><rect class="k" x="261.23" y="61.71" width="14.58" height="2.43" transform="translate(537.05 125.86) rotate(180)"/><rect class="i" x="200.39" y="71.28" width="57.89" height="2.43" transform="translate(458.67 145) rotate(180)"/><rect class="i" x="200.39" y="75.12" width="57.89" height="2.43" transform="translate(458.67 152.68) rotate(180)"/><rect class="i" x="261.23" y="75.12" width="14.58" height="2.43" transform="translate(537.05 152.68) rotate(180)"/><rect class="i" x="261.23" y="71.28" width="14.58" height="2.43" transform="translate(537.05 145) rotate(180)"/><rect class="k" x="200.54" y="80.85" width="57.89" height="2.43" transform="translate(458.97 164.14) rotate(180)"/><rect class="k" x="200.54" y="84.69" width="57.89" height="2.43" transform="translate(458.97 171.82) rotate(180)"/><rect class="i" x="261.38" y="84.69" width="14.58" height="2.43" transform="translate(537.35 171.82) rotate(180)"/><rect class="i" x="261.38" y="80.85" width="14.58" height="2.43" transform="translate(537.35 164.14) rotate(180)"/><rect class="i" x="200.54" y="90.42" width="57.89" height="2.43" transform="translate(458.97 183.28) rotate(180)"/><rect class="i" x="200.54" y="94.26" width="57.89" height="2.43" transform="translate(458.97 190.96) rotate(180)"/><rect class="k" x="261.38" y="94.26" width="14.58" height="2.43" transform="translate(537.35 190.96) rotate(180)"/><rect class="k" x="261.38" y="90.42" width="14.58" height="2.43" transform="translate(537.35 183.28) rotate(180)"/><rect class="i" x="200.54" y="99.99" width="57.89" height="2.43" transform="translate(458.97 202.42) rotate(180)"/><rect class="i" x="200.54" y="103.83" width="57.89" height="2.43" transform="translate(458.97 210.1) rotate(180)"/><rect class="k" x="261.38" y="103.83" width="14.58" height="2.43" transform="translate(537.35 210.1) rotate(180)"/><rect class="k" x="261.38" y="99.99" width="14.58" height="2.43" transform="translate(537.35 202.42) rotate(180)"/><rect class="k" x="327.51" y="36.44" width="6.9" height="0.72"/><rect class="k" x="314.79" y="37.58" width="7.57" height="0.72"/><rect class="k" x="314.42" y="53.57" width="14.32" height="0.72" transform="translate(643.17 107.86) rotate(180)"/><rect class="k" x="314.52" y="43.29" width="14.32" height="0.72"/><rect class="k" x="314.42" y="59.28" width="14.32" height="0.72"/><rect class="k" x="327.51" y="52.43" width="6.9" height="0.72"/><rect class="k" x="314.52" y="49" width="15.59" height="0.72"/><rect class="k" x="314.52" y="39.86" width="24.62" height="0.72"/><rect class="k" x="314.42" y="55.84" width="24.62" height="0.72"/><rect class="k" x="331.99" y="44.43" width="4.22" height="0.72"/><rect class="k" x="314.79" y="35.29" width="7.57" height="0.72"/><rect class="k" x="319.59" y="36.44" width="7.57" height="0.72"/><rect class="k" x="329.47" y="43.29" width="7.57" height="0.72"/><rect class="k" x="322.71" y="37.58" width="14.32" height="0.72"/><rect class="k" x="329.11" y="53.57" width="7.57" height="0.72" transform="translate(665.78 107.86) rotate(180)"/><rect class="k" x="317.74" y="44.43" width="13.56" height="0.72"/><rect class="k" x="318.29" y="45.57" width="11.79" height="0.72"/><rect class="k" x="329.37" y="59.28" width="7.57" height="0.72"/><rect class="k" x="314.52" y="47.86" width="8.2" height="0.72" transform="translate(637.24 96.44) rotate(180)"/><rect class="k" x="323.55" y="47.86" width="15.59" height="0.72" transform="translate(662.7 96.44) rotate(180)"/><rect class="k" x="330.95" y="49" width="8.2" height="0.72"/><rect class="k" x="314.52" y="38.72" width="24.62" height="0.72"/><rect class="k" x="314.42" y="54.7" width="24.62" height="0.72"/><rect class="k" x="334.92" y="36.44" width="4.22" height="0.72"/><rect class="k" x="319.59" y="52.43" width="7.57" height="0.72"/><rect class="k" x="334.92" y="52.43" width="4.22" height="0.72"/><rect class="k" x="336.75" y="44.43" width="2.39" height="0.72"/><rect class="k" x="314.52" y="44.43" width="2.6" height="0.72"/><rect class="k" x="323.01" y="35.29" width="8.29" height="0.72"/><rect class="k" x="319.96" y="56.99" width="9.66" height="0.72"/><rect class="k" x="330.28" y="56.99" width="8.29" height="0.72"/><rect class="k" x="314.42" y="51.28" width="8.35" height="0.72"/><rect class="k" x="323.55" y="51.28" width="9.1" height="0.72"/><rect class="k" x="327.52" y="41.01" width="7.57" height="0.72" transform="translate(662.61 82.73) rotate(180)"/><rect class="k" x="318.58" y="41.01" width="8.29" height="0.72" transform="translate(645.44 82.73) rotate(180)"/><rect class="k" x="309.3" y="35.29" width="4.34" height="0.72"/><rect class="k" x="309.3" y="36.44" width="4.34" height="0.72"/><rect class="k" x="309.3" y="37.58" width="4.34" height="0.72"/><rect class="k" x="309.3" y="38.72" width="4.34" height="0.72"/><rect class="k" x="309.3" y="39.86" width="4.34" height="0.72"/><rect class="k" x="309.3" y="42.15" width="4.34" height="0.72"/><rect class="k" x="309.3" y="43.29" width="4.34" height="0.72"/><rect class="k" x="309.3" y="47.86" width="4.34" height="0.72"/><rect class="k" x="309.3" y="49" width="4.34" height="0.72"/><rect class="k" x="309.3" y="51.28" width="4.34" height="0.72"/><rect class="k" x="309.3" y="52.43" width="4.34" height="0.72"/><rect class="k" x="309.3" y="53.57" width="4.34" height="0.72"/><rect class="k" x="309.3" y="54.71" width="4.34" height="0.72"/><rect class="k" x="309.3" y="55.85" width="4.34" height="0.72"/><rect class="k" x="309.3" y="58.14" width="4.34" height="0.72"/><rect class="k" x="309.3" y="59.28" width="4.34" height="0.72"/><rect class="l" x="327.48" y="64.22" width="6.9" height="0.72"/><rect class="l" x="314.75" y="65.37" width="7.57" height="0.72"/><rect class="l" x="314.39" y="81.35" width="14.32" height="0.72" transform="translate(643.09 163.43) rotate(180)"/><rect class="l" x="314.48" y="71.08" width="14.32" height="0.72"/><rect class="l" x="314.39" y="87.06" width="14.32" height="0.72"/><rect class="l" x="327.48" y="80.21" width="6.9" height="0.72"/><rect class="l" x="314.48" y="76.79" width="15.59" height="0.72"/><rect class="l" x="314.48" y="67.65" width="24.62" height="0.72"/><rect class="l" x="314.39" y="83.63" width="24.62" height="0.72"/><rect class="l" x="331.95" y="72.22" width="4.22" height="0.72"/><rect class="l" x="314.75" y="63.08" width="7.57" height="0.72"/><rect class="l" x="319.55" y="64.22" width="7.57" height="0.72"/><rect class="l" x="329.43" y="71.08" width="7.57" height="0.72"/><rect class="l" x="322.67" y="65.37" width="14.32" height="0.72"/><rect class="l" x="329.07" y="81.35" width="7.57" height="0.72" transform="translate(665.7 163.43) rotate(180)"/><rect class="l" x="317.7" y="72.22" width="13.56" height="0.72"/><rect class="l" x="318.25" y="73.36" width="11.79" height="0.72"/><rect class="l" x="329.33" y="87.06" width="7.57" height="0.72"/><rect class="l" x="314.48" y="75.64" width="8.2" height="0.72" transform="translate(637.16 152.01) rotate(180)"/><rect class="l" x="323.52" y="75.64" width="15.59" height="0.72" transform="translate(662.62 152.01) rotate(180)"/><rect class="l" x="330.91" y="76.79" width="8.2" height="0.72"/><rect class="l" x="314.48" y="66.51" width="24.62" height="0.72"/><rect class="l" x="314.39" y="82.48" width="24.62" height="0.72"/><rect class="l" x="334.89" y="64.22" width="4.22" height="0.72"/><rect class="l" x="319.55" y="80.21" width="7.57" height="0.72"/><rect class="l" x="334.89" y="80.21" width="4.22" height="0.72"/><rect class="l" x="336.72" y="72.22" width="2.39" height="0.72"/><rect class="l" x="314.48" y="72.22" width="2.6" height="0.72"/><rect class="l" x="322.97" y="63.08" width="8.29" height="0.72"/><rect class="l" x="319.92" y="84.78" width="9.66" height="0.72"/><rect class="l" x="330.24" y="84.78" width="8.29" height="0.72"/><rect class="l" x="314.39" y="79.07" width="8.35" height="0.72"/><rect class="l" x="323.52" y="79.07" width="9.1" height="0.72"/><rect class="l" x="327.48" y="68.79" width="7.57" height="0.72" transform="translate(662.53 138.31) rotate(180)"/><rect class="l" x="318.54" y="68.79" width="8.29" height="0.72" transform="translate(645.36 138.31) rotate(180)"/><rect class="l" x="309.27" y="63.08" width="4.34" height="0.72"/><rect class="l" x="309.27" y="64.22" width="4.34" height="0.72"/><rect class="l" x="309.27" y="65.37" width="4.34" height="0.72"/><rect class="l" x="309.27" y="66.51" width="4.34" height="0.72"/><rect class="l" x="309.27" y="67.65" width="4.34" height="0.72"/><rect class="l" x="309.27" y="69.93" width="4.34" height="0.72"/><rect class="l" x="309.27" y="71.08" width="4.34" height="0.72"/><rect class="l" x="309.27" y="75.64" width="4.34" height="0.72"/><rect class="l" x="309.27" y="76.79" width="4.34" height="0.72"/><rect class="l" x="309.27" y="79.07" width="4.34" height="0.72"/><rect class="l" x="309.27" y="80.21" width="4.34" height="0.72"/><rect class="l" x="309.27" y="81.35" width="4.34" height="0.72"/><rect class="l" x="309.27" y="82.5" width="4.34" height="0.72"/><rect class="l" x="309.27" y="83.64" width="4.34" height="0.72"/><rect class="l" x="309.27" y="85.92" width="4.34" height="0.72"/><rect class="l" x="309.27" y="87.06" width="4.34" height="0.72"/><rect class="m" x="327.46" y="92.01" width="6.9" height="0.72"/><rect class="m" x="314.73" y="93.15" width="7.57" height="0.72"/><rect class="m" x="314.37" y="109.14" width="14.32" height="0.72" transform="translate(643.05 219) rotate(180)"/><rect class="m" x="314.46" y="98.86" width="14.32" height="0.72"/><rect class="m" x="314.37" y="114.85" width="14.32" height="0.72"/><rect class="m" x="327.46" y="108" width="6.9" height="0.72"/><rect class="m" x="314.46" y="104.57" width="15.59" height="0.72"/><rect class="m" x="314.46" y="95.44" width="24.62" height="0.72"/><rect class="m" x="314.37" y="111.41" width="24.62" height="0.72"/><rect class="m" x="331.93" y="100" width="4.22" height="0.72"/><rect class="m" x="314.73" y="90.87" width="7.57" height="0.72"/><rect class="m" x="319.53" y="92.01" width="7.57" height="0.72"/><rect class="m" x="329.41" y="98.86" width="7.57" height="0.72"/><rect class="m" x="322.65" y="93.15" width="14.32" height="0.72"/><rect class="m" x="329.05" y="109.14" width="7.57" height="0.72" transform="translate(665.66 219) rotate(180)"/><rect class="m" x="317.68" y="100" width="13.56" height="0.72"/><rect class="m" x="318.23" y="101.15" width="11.79" height="0.72"/><rect class="m" x="329.31" y="114.85" width="7.57" height="0.72"/><rect class="m" x="314.46" y="103.43" width="8.2" height="0.72" transform="translate(637.12 207.58) rotate(180)"/><rect class="m" x="323.5" y="103.43" width="15.59" height="0.72" transform="translate(662.59 207.58) rotate(180)"/><rect class="m" x="330.89" y="104.57" width="8.2" height="0.72"/><rect class="m" x="314.46" y="94.29" width="24.62" height="0.72"/><rect class="m" x="314.37" y="110.27" width="24.62" height="0.72"/><rect class="m" x="334.87" y="92.01" width="4.22" height="0.72"/><rect class="m" x="319.53" y="108" width="7.57" height="0.72"/><rect class="m" x="334.87" y="108" width="4.22" height="0.72"/><rect class="m" x="336.7" y="100" width="2.39" height="0.72"/><rect class="m" x="314.46" y="100" width="2.6" height="0.72"/><rect class="m" x="322.95" y="90.87" width="8.29" height="0.72"/><rect class="m" x="319.9" y="112.57" width="9.66" height="0.72"/><rect class="m" x="330.22" y="112.57" width="8.29" height="0.72"/><rect class="m" x="314.37" y="106.86" width="8.35" height="0.72"/><rect class="m" x="323.5" y="106.86" width="9.1" height="0.72"/><rect class="m" x="327.46" y="96.58" width="7.57" height="0.72" transform="translate(662.49 193.88) rotate(180)"/><rect class="m" x="318.52" y="96.58" width="8.29" height="0.72" transform="translate(645.32 193.88) rotate(180)"/><rect class="m" x="309.25" y="90.87" width="4.34" height="0.72"/><rect class="m" x="309.25" y="92.01" width="4.34" height="0.72"/><rect class="m" x="309.25" y="93.15" width="4.34" height="0.72"/><rect class="m" x="309.25" y="94.29" width="4.34" height="0.72"/><rect class="m" x="309.25" y="95.44" width="4.34" height="0.72"/><rect class="m" x="309.25" y="97.72" width="4.34" height="0.72"/><rect class="m" x="309.25" y="98.86" width="4.34" height="0.72"/><rect class="m" x="309.25" y="103.43" width="4.34" height="0.72"/><rect class="m" x="309.25" y="104.57" width="4.34" height="0.72"/><rect class="m" x="309.25" y="106.86" width="4.34" height="0.72"/><rect class="m" x="309.25" y="108" width="4.34" height="0.72"/><rect class="m" x="309.25" y="109.14" width="4.34" height="0.72"/><rect class="m" x="309.25" y="110.28" width="4.34" height="0.72"/><rect class="m" x="309.25" y="111.42" width="4.34" height="0.72"/><rect class="m" x="309.25" y="113.71" width="4.34" height="0.72"/><rect class="m" x="309.25" y="114.85" width="4.34" height="0.72"/><rect class="l" x="327.42" y="119.8" width="6.9" height="0.72"/><rect class="l" x="314.69" y="120.94" width="7.57" height="0.72"/><rect class="l" x="314.33" y="136.93" width="14.32" height="0.72" transform="translate(642.97 274.58) rotate(180)"/><rect class="l" x="314.42" y="126.65" width="14.32" height="0.72"/><rect class="l" x="314.33" y="142.64" width="14.32" height="0.72"/><rect class="l" x="327.42" y="135.79" width="6.9" height="0.72"/><rect class="l" x="314.42" y="132.36" width="15.59" height="0.72"/><rect class="l" x="314.42" y="123.22" width="24.62" height="0.72"/><rect class="l" x="314.33" y="139.2" width="24.62" height="0.72"/><rect class="l" x="331.89" y="127.79" width="4.22" height="0.72"/><rect class="l" x="314.69" y="118.65" width="7.57" height="0.72"/><rect class="l" x="319.49" y="119.8" width="7.57" height="0.72"/><rect class="l" x="329.37" y="126.65" width="7.57" height="0.72"/><rect class="l" x="322.62" y="120.94" width="14.32" height="0.72"/><rect class="l" x="329.01" y="136.93" width="7.57" height="0.72" transform="translate(665.58 274.58) rotate(180)"/><rect class="l" x="317.65" y="127.79" width="13.56" height="0.72"/><rect class="l" x="318.19" y="128.93" width="11.79" height="0.72"/><rect class="l" x="329.27" y="142.64" width="7.57" height="0.72"/><rect class="l" x="314.42" y="131.22" width="8.2" height="0.72" transform="translate(637.05 263.16) rotate(180)"/><rect class="l" x="323.46" y="131.22" width="15.59" height="0.72" transform="translate(662.51 263.16) rotate(180)"/><rect class="l" x="330.85" y="132.36" width="8.2" height="0.72"/><rect class="l" x="314.42" y="122.08" width="24.62" height="0.72"/><rect class="l" x="314.33" y="138.06" width="24.62" height="0.72"/><rect class="l" x="334.83" y="119.8" width="4.22" height="0.72"/><rect class="l" x="319.49" y="135.79" width="7.57" height="0.72"/><rect class="l" x="334.83" y="135.79" width="4.22" height="0.72"/><rect class="l" x="336.66" y="127.79" width="2.39" height="0.72"/><rect class="l" x="314.42" y="127.79" width="2.6" height="0.72"/><rect class="l" x="322.91" y="118.65" width="8.29" height="0.72"/><rect class="l" x="319.87" y="140.35" width="9.66" height="0.72"/><rect class="l" x="330.19" y="140.35" width="8.29" height="0.72"/><rect class="l" x="314.33" y="134.64" width="8.35" height="0.72"/><rect class="l" x="323.46" y="134.64" width="9.1" height="0.72"/><rect class="l" x="327.42" y="124.36" width="7.57" height="0.72" transform="translate(662.42 249.45) rotate(180)"/><rect class="l" x="318.48" y="124.36" width="8.29" height="0.72" transform="translate(645.25 249.45) rotate(180)"/><rect class="l" x="309.21" y="118.65" width="4.34" height="0.72"/><rect class="l" x="309.21" y="119.8" width="4.34" height="0.72"/><rect class="l" x="309.21" y="120.94" width="4.34" height="0.72"/><rect class="l" x="309.21" y="122.08" width="4.34" height="0.72"/><rect class="l" x="309.21" y="123.22" width="4.34" height="0.72"/><rect class="l" x="309.21" y="125.51" width="4.34" height="0.72"/><rect class="l" x="309.21" y="126.65" width="4.34" height="0.72"/><rect class="l" x="309.21" y="131.22" width="4.34" height="0.72"/><rect class="l" x="309.21" y="132.36" width="4.34" height="0.72"/><rect class="l" x="309.21" y="134.64" width="4.34" height="0.72"/><rect class="l" x="309.21" y="135.79" width="4.34" height="0.72"/><rect class="l" x="309.21" y="136.93" width="4.34" height="0.72"/><rect class="l" x="309.21" y="138.07" width="4.34" height="0.72"/><rect class="l" x="309.21" y="139.21" width="4.34" height="0.72"/><rect class="l" x="309.21" y="141.5" width="4.34" height="0.72"/><rect class="l" x="309.21" y="142.64" width="4.34" height="0.72"/><path class="i" d="M222.77,134.24v-4.7h-3.65a8.29,8.29,0,0,0-.56-1.33l2.59-2.6-3.33-3.32-2.64,2.64a7.56,7.56,0,0,0-1.28-.5v-3.76h-4.7v3.86A8.63,8.63,0,0,0,208,125l-2.75-2.75L202,125.61l2.8,2.81a6.89,6.89,0,0,0-.45,1.12h-4v4.7h4a7.16,7.16,0,0,0,.45,1.11l-2.8,2.81,3.32,3.32,2.75-2.75a8.63,8.63,0,0,0,1.17.51v3.86h4.7v-3.76a7.56,7.56,0,0,0,1.28-.5l2.64,2.64,3.33-3.32-2.59-2.59a9.13,9.13,0,0,0,.56-1.33Zm-16.61-2.35a5.48,5.48,0,1,1,5.47,5.55A5.55,5.55,0,0,1,206.16,131.89Z"/><circle class="i" cx="211.55" cy="131.89" r="3.92"/><path class="i" d="M237.46,143.56v-3.29h-2.55a6.36,6.36,0,0,0-.4-.93l1.82-1.81L234,135.2l-1.85,1.85a5.31,5.31,0,0,0-.89-.35v-2.63H228v2.7a5.5,5.5,0,0,0-.82.36l-1.93-1.93-2.32,2.33,2,2a5.32,5.32,0,0,0-.32.78h-2.78v3.29h2.78a5.32,5.32,0,0,0,.32.78l-2,2,2.32,2.33,1.93-1.93a4.63,4.63,0,0,0,.82.36v2.71h3.29v-2.64a5.31,5.31,0,0,0,.89-.35l1.85,1.85,2.33-2.33-1.82-1.81a5.92,5.92,0,0,0,.4-.93Zm-11.62-1.64a3.83,3.83,0,1,1,3.83,3.88A3.89,3.89,0,0,1,225.84,141.92Z"/><circle class="i" cx="229.61" cy="141.92" r="2.74"/><text class="p" transform="translate(214.28 50.94)">{ } { }</text></svg>