<svg xmlns="http://www.w3.org/2000/svg" viewBox="0 0 276.24 164.41"><defs><style>.a{fill:#60d6cb;}</style></defs><title>1electronics</title><path class="a" d="M86.12,115.42a7.89,7.89,0,1,0,11.16,0A7.89,7.89,0,0,0,86.12,115.42Zm9.69,9.69a5.81,5.81,0,1,1,0-8.22A5.81,5.81,0,0,1,95.81,125.11Z"/><path class="a" d="M143.19,66.74l-38-35.23H79V32a7.91,7.91,0,1,0,0,.19v.35h25.79L142.2,67.18l.21,21.06-17.63,17.62H106.13l-9.2,9.21.71.7,8.91-8.91H125.2l18.21-18.21Z"/><path class="a" d="M130.53,79A7.84,7.84,0,0,0,125,76.67h.5V66.73L105.21,49.27H79v.5a7.89,7.89,0,1,0-2.31,5.58A7.87,7.87,0,0,0,79,49.77v.5h25.8l19.64,16.92v9.48h.46a7.89,7.89,0,1,0,5.6,2.31ZM75.25,53.88a5.81,5.81,0,1,1,0-8.22A5.81,5.81,0,0,1,75.25,53.88Zm53.81,34.79a5.81,5.81,0,1,1,0-8.22A5.81,5.81,0,0,1,129.06,88.67Z"/><path class="a" d="M273.93,52.19a7.89,7.89,0,1,0,0,11.16A7.89,7.89,0,0,0,273.93,52.19Zm-1.47,9.69a5.81,5.81,0,1,1,0-8.22A5.81,5.81,0,0,1,272.46,61.88Z"/><path class="a" d="M157.59,87.93l-53.43,54.92-7.51,7.52a8,8,0,1,0,.73.68l7.49-7.49L158.3,88.63l30.36-30.36h71.8v-1H188.25Z"/><path class="a" d="M142.94,118.07a7.89,7.89,0,1,0,11.16,0A7.89,7.89,0,0,0,142.94,118.07Zm9.69,9.69a5.81,5.81,0,1,1,0-8.22A5.81,5.81,0,0,1,152.63,127.76Z"/><circle class="a" cx="268.35" cy="75.48" r="7.89"/><polygon class="a" points="148.02 107.02 148.02 115.76 149.02 115.76 149.02 107.43 180.47 75.98 260.46 75.98 260.46 74.98 180.06 74.98 148.02 107.02"/><path class="a" d="M257.77,21.14A7.9,7.9,0,0,0,249.88,29v-.28H156.23L140.47,13h-77L53,23.36l.35.35a8.28,8.28,0,1,0,.67,0l9.8-9.8h76.21l15.76,15.79h94.06V29a7.9,7.9,0,1,0,7.89-7.9ZM57.49,35.71a5.81,5.81,0,1,1,0-8.21A5.81,5.81,0,0,1,57.49,35.71Zm200.28-.87A5.81,5.81,0,1,1,263.58,29,5.81,5.81,0,0,1,257.77,34.84Z"/><path class="a" d="M2.31,2.31a7.89,7.89,0,1,0,11.16,0A7.89,7.89,0,0,0,2.31,2.31ZM12,12a5.81,5.81,0,1,1,0-8.22A5.81,5.81,0,0,1,12,12Z"/><path class="a" d="M245.26,8.62a7.89,7.89,0,1,0,7.89,7.89A7.9,7.9,0,0,0,245.26,8.62Zm0,13.7a5.81,5.81,0,1,1,5.81-5.81A5.81,5.81,0,0,1,245.26,22.32Z"/><polygon class="a" points="149.09 15.65 140.83 7.39 15.78 7.39 15.78 8.39 140.42 8.39 148.68 16.65 237.37 16.65 237.37 16.51 237.37 15.65 149.09 15.65"/></svg>