<svg xmlns="http://www.w3.org/2000/svg" xmlns:xlink="http://www.w3.org/1999/xlink" viewBox="0 0 694.81 761.6"><defs><style>.a{fill:url(#a);}.b{fill:#9ee9e2;opacity:0.5;}.c{fill:#60d6cb;}.d,.g,.h,.i,.j,.k{fill:none;stroke-miterlimit:10;}.d{stroke:#60d6cb;}.e{opacity:0.3;}.f{fill:#286e75;}.g,.h,.i,.j,.k{stroke:#286e75;}.g{stroke-width:6px;}.i{stroke-width:10px;}.j,.k{stroke-width:5px;}.k{font-size:55.57px;}.aj,.k{font-family:MyriadPro-Regular, Myriad Pro;}.l{opacity:0.4;}.aj,.m{fill:#c3e6e0;}.n{fill:url(#b);}.o{fill:url(#c);}.p{fill:url(#d);}.q{fill:url(#e);}.r{fill:url(#f);}.s{fill:url(#g);}.t{fill:url(#h);}.u{fill:url(#i);}.v{fill:url(#j);}.w{fill:url(#k);}.x{fill:#0e5090;}.y{fill:#1e76bd;}.z{fill:url(#l);}.aa{fill:#08357f;}.ab{fill:url(#m);}.ac{fill:url(#n);}.ad{fill:#cb003f;}.ae{fill:#75c44c;}.af{fill:#f2f2f0;}.ag{fill:#f0a30a;}.ah{fill:#dddcd7;}.ai{fill:#01c6b2;}.aj{font-size:25.88px;}</style><linearGradient id="a" x1="420.26" y1="338.02" x2="760.89" y2="-31.59" gradientUnits="userSpaceOnUse"><stop offset="0" stop-color="#407ec2"/><stop offset="0.19" stop-color="#328ebe"/><stop offset="0.72" stop-color="#0fb6b5"/><stop offset="1" stop-color="#01c6b2"/></linearGradient><linearGradient id="b" x1="402.01" y1="224.6" x2="405.19" y2="224.6" xlink:href="#a"/><linearGradient id="c" x1="207.97" y1="390.41" x2="212.21" y2="390.41" xlink:href="#a"/><linearGradient id="d" x1="207.52" y1="369.29" x2="212.66" y2="369.29" xlink:href="#a"/><linearGradient id="e" x1="400.61" y1="155.6" x2="406.58" y2="155.6" xlink:href="#a"/><linearGradient id="f" x1="395.01" y1="188.01" x2="410.07" y2="188.01" xlink:href="#a"/><linearGradient id="g" x1="208.23" y1="399.75" x2="211.95" y2="399.75" xlink:href="#a"/><linearGradient id="h" x1="207.77" y1="380.26" x2="212.41" y2="380.26" xlink:href="#a"/><linearGradient id="i" x1="400.69" y1="170.38" x2="406.5" y2="170.38" xlink:href="#a"/><linearGradient id="j" x1="633.61" y1="347.55" x2="633.61" y2="320.74" gradientUnits="userSpaceOnUse"><stop offset="0" stop-color="#d3ebfe"/><stop offset="0.61" stop-color="#a5e7f4"/></linearGradient><linearGradient id="k" x1="440.1" y1="486.41" x2="440.1" y2="303.18" xlink:href="#j"/><linearGradient id="l" x1="261.03" y1="454.48" x2="619.18" y2="454.48" gradientUnits="userSpaceOnUse"><stop offset="0.01" stop-color="#5394a3"/><stop offset="0.1" stop-color="#5797a6"/><stop offset="0.2" stop-color="#649fae"/><stop offset="0.31" stop-color="#79adbc"/><stop offset="0.41" stop-color="#97c1d0"/><stop offset="0.52" stop-color="#bdd9e8"/><stop offset="0.58" stop-color="#d6eaf9"/><stop offset="0.61" stop-color="#c8e0ef"/><stop offset="0.73" stop-color="#9fc2d3"/><stop offset="0.84" stop-color="#82acbe"/><stop offset="0.93" stop-color="#6f9fb1"/><stop offset="1" stop-color="#699aad"/></linearGradient><linearGradient id="m" x1="625.38" y1="307.32" x2="641.74" y2="290.96" gradientUnits="userSpaceOnUse"><stop offset="0" stop-color="#73a3c6"/><stop offset="0.52" stop-color="#9cc8e9"/><stop offset="1" stop-color="#bddcf8"/></linearGradient><linearGradient id="n" x1="523.48" y1="251.49" x2="530.36" y2="244.61" gradientTransform="matrix(0, 0.96, -1.02, 0, 889.9, -226.68)" xlink:href="#m"/></defs><title>page1_fullscreen</title><path class="a" d="M379.25,290.76C497.93,490.14,715.72,555.18,834.59,418.69c108.73-124.84,55-556.18-184.75-594.8C262.29-238.54,231.63,42.76,379.25,290.76Z" transform="translate(-193.51 184.92)"/><path class="b" d="M301.91-19.43" transform="translate(-193.51 184.92)"/><path class="c" d="M443.27,328.3a7.89,7.89,0,1,0-7.86-7.92A7.9,7.9,0,0,0,443.27,328.3Z" transform="translate(-193.51 184.92)"/><path class="c" d="M384.38,423.34a7.89,7.89,0,1,0-7.87-7.92A7.9,7.9,0,0,0,384.38,423.34Z" transform="translate(-193.51 184.92)"/><polyline class="d" points="242.9 506.31 227.03 522.06 226.87 572.5 198.79 600.39"/><path class="c" d="M451.36,340.08a7.89,7.89,0,1,0,0-11.16A7.89,7.89,0,0,0,451.36,340.08Zm1.5-9.69a5.81,5.81,0,1,1,0,8.22A5.81,5.81,0,0,1,452.86,330.39Z" transform="translate(-193.51 184.92)"/><path class="c" d="M392.46,435.12a7.89,7.89,0,1,0,0-11.16A7.89,7.89,0,0,0,392.46,435.12Zm1.51-9.69a5.81,5.81,0,1,1,0,8.22A5.8,5.8,0,0,1,394,425.43Z" transform="translate(-193.51 184.92)"/><polyline class="d" points="256.55 519.82 240.69 535.58 240.53 586.01 212.45 613.91"/><path class="c" d="M425,312.23a7.89,7.89,0,1,0,0-11.16A7.89,7.89,0,0,0,425,312.23Zm1.5-9.69a5.81,5.81,0,1,1,0,8.22A5.81,5.81,0,0,1,426.54,302.54Z" transform="translate(-193.51 184.92)"/><path class="c" d="M372.06,409.94a7.89,7.89,0,1,0-7.87-7.92A7.89,7.89,0,0,0,372.06,409.94ZM366.27,402a5.82,5.82,0,1,1,5.8,5.83A5.82,5.82,0,0,1,366.27,402Z" transform="translate(-193.51 184.92)"/><polyline class="d" points="230.24 490.58 214.38 506.34 214.21 556.77 186.13 584.67"/><path class="c" d="M664.47,425.12a7.89,7.89,0,1,0-11.16,0A7.89,7.89,0,0,0,664.47,425.12Zm-9.69-1.47a5.81,5.81,0,1,1,8.22,0A5.81,5.81,0,0,1,654.78,423.65Z" transform="translate(-193.51 184.92)"/><path class="c" d="M682.23,424.66a7.89,7.89,0,1,0-11.16,0A7.89,7.89,0,0,0,682.23,424.66Zm-9.69-1.47a5.81,5.81,0,1,1,8.21,0A5.81,5.81,0,0,1,672.54,423.19Z" transform="translate(-193.51 184.92)"/><path class="c" d="M700,425.12a7.89,7.89,0,1,0-11.16,0A7.88,7.88,0,0,0,700,425.12Zm-9.68-1.47a5.81,5.81,0,1,1,8.21,0A5.81,5.81,0,0,1,690.3,423.65Z" transform="translate(-193.51 184.92)"/><path class="c" d="M700,442.82a7.89,7.89,0,1,0-11.16,0A7.88,7.88,0,0,0,700,442.82Zm-9.68-1.47a5.81,5.81,0,1,1,8.21,0A5.8,5.8,0,0,1,690.3,441.35Z" transform="translate(-193.51 184.92)"/><path class="c" d="M664.47,442.82a7.89,7.89,0,1,0-11.16,0A7.89,7.89,0,0,0,664.47,442.82Z" transform="translate(-193.51 184.92)"/><path class="c" d="M735.5,556.21a7.89,7.89,0,1,0-11.16,0A7.89,7.89,0,0,0,735.5,556.21Z" transform="translate(-193.51 184.92)"/><path class="c" d="M724.34,562.75a7.89,7.89,0,1,0,11.16,0A7.89,7.89,0,0,0,724.34,562.75Zm9.69,1.47a5.81,5.81,0,1,1-8.22,0A5.81,5.81,0,0,1,734,564.22Z" transform="translate(-193.51 184.92)"/><path class="c" d="M706.58,563.21a7.89,7.89,0,1,0,11.16,0A7.89,7.89,0,0,0,706.58,563.21Zm9.69,1.47a5.81,5.81,0,1,1-8.22,0A5.81,5.81,0,0,1,716.27,564.68Z" transform="translate(-193.51 184.92)"/><path class="c" d="M688.82,562.75a7.89,7.89,0,1,0,11.16,0A7.89,7.89,0,0,0,688.82,562.75Zm9.69,1.47a5.81,5.81,0,1,1-8.21,0A5.81,5.81,0,0,1,698.51,564.22Z" transform="translate(-193.51 184.92)"/><path class="c" d="M688.82,545.05a7.89,7.89,0,1,0,11.16,0A7.89,7.89,0,0,0,688.82,545.05Zm9.69,1.47a5.81,5.81,0,1,1-8.21,0A5.81,5.81,0,0,1,698.51,546.52Z" transform="translate(-193.51 184.92)"/><path class="c" d="M724.34,562.75a7.89,7.89,0,1,0,11.16,0A7.89,7.89,0,0,0,724.34,562.75Zm9.69,1.47a5.81,5.81,0,1,1-8.22,0A5.81,5.81,0,0,1,734,564.22Z" transform="translate(-193.51 184.92)"/><polyline class="d" points="483.14 611.89 483.14 652.48 518.8 688.14 518.8 745.82"/><polyline class="d" points="470.96 610.04 477.3 616.38 477.3 652.41"/><polyline class="d" points="477.3 652.41 513.05 688.17 513.05 743.44 507.54 748.95"/><polyline class="d" points="495.32 610.04 488.98 616.38 488.98 652.41 524.83 688.26 524.83 743.44 530.01 748.62"/><polyline class="d" points="465.38 630.05 465.38 652.41 501.04 688.08 501.04 727.66"/><polyline class="d" points="501.04 630.05 501.04 652.41 537.2 688.57 537.2 735.55"/><path class="c" d="M343.43,82.93" transform="translate(-193.51 184.92)"/><path class="c" d="M272.54,57.92" transform="translate(-193.51 184.92)"/><path class="c" d="M279.63,123.57a7.89,7.89,0,1,0,11.16,0A7.89,7.89,0,0,0,279.63,123.57Zm9.69,9.69a5.81,5.81,0,1,1,0-8.22A5.81,5.81,0,0,1,289.32,133.26Z" transform="translate(-193.51 184.92)"/><path class="c" d="M336.7,74.89l-38-35.22H272.53v.45a7.93,7.93,0,1,0,0,.19v.36h25.8L335.7,75.33l.22,21.06L318.29,114H299.64l-9.2,9.2.7.71,8.91-8.91h18.66L336.92,96.8Z" transform="translate(-193.51 184.92)"/><path class="c" d="M324,87.13a7.84,7.84,0,0,0-5.57-2.31H319V74.89L298.71,57.42H272.54v.5a7.89,7.89,0,1,0-2.31,5.58,7.87,7.87,0,0,0,2.31-5.58v.5h25.8L318,75.34v9.48h.46a7.89,7.89,0,0,0-5.56,13.47A7.89,7.89,0,1,0,324,87.13ZM268.76,62a5.81,5.81,0,1,1,0-8.22A5.81,5.81,0,0,1,268.76,62Zm53.8,34.79a5.81,5.81,0,1,1,0-8.22A5.8,5.8,0,0,1,322.56,96.82Z" transform="translate(-193.51 184.92)"/><path class="c" d="M467.44,60.35a7.89,7.89,0,1,0,0,11.16A7.88,7.88,0,0,0,467.44,60.35ZM466,70a5.81,5.81,0,1,1,0-8.21A5.8,5.8,0,0,1,466,70Z" transform="translate(-193.51 184.92)"/><path class="c" d="M351.1,96.08,297.67,151l-7.52,7.51a7.91,7.91,0,1,0,.74.68l7.49-7.49,53.43-54.92,30.36-30.37H454v-1H381.75Z" transform="translate(-193.51 184.92)"/><path class="c" d="M336.44,126.22a7.89,7.89,0,1,0,11.16,0A7.89,7.89,0,0,0,336.44,126.22Zm9.69,9.69a5.81,5.81,0,1,1,0-8.22A5.8,5.8,0,0,1,346.13,135.91Z" transform="translate(-193.51 184.92)"/><circle class="c" cx="268.35" cy="268.55" r="7.89"/><polygon class="c" points="148.02 300.09 148.02 308.83 149.02 308.83 149.02 300.5 180.47 269.05 260.46 269.05 260.46 268.05 180.06 268.05 148.02 300.09"/><path class="c" d="M451.28,29.29a7.9,7.9,0,0,0-7.89,7.88v-.28H349.74L334,21.1h-77L246.53,31.51l.36.36a7.94,7.94,0,1,0,.67,0l9.8-9.8h76.2l15.76,15.79h94.07v-.7a7.89,7.89,0,1,0,7.89-7.9ZM251,43.87a5.81,5.81,0,1,1,0-8.22A5.81,5.81,0,0,1,251,43.87ZM451.28,43a5.81,5.81,0,1,1,5.81-5.81A5.81,5.81,0,0,1,451.28,43Z" transform="translate(-193.51 184.92)"/><path class="c" d="M195.82,10.46a7.89,7.89,0,1,0,11.16,0A7.89,7.89,0,0,0,195.82,10.46Zm9.69,9.69a5.81,5.81,0,1,1,0-8.21A5.81,5.81,0,0,1,205.51,20.15Z" transform="translate(-193.51 184.92)"/><path class="c" d="M438.76,16.77a7.9,7.9,0,1,0,7.89,7.9A7.9,7.9,0,0,0,438.76,16.77Zm0,13.71a5.82,5.82,0,1,1,5.81-5.81A5.81,5.81,0,0,1,438.76,30.48Z" transform="translate(-193.51 184.92)"/><polygon class="c" points="149.09 208.72 140.83 200.46 15.78 200.46 15.78 201.46 140.42 201.46 148.68 209.72 237.37 209.72 237.37 209.58 237.37 208.72 149.09 208.72"/><g class="e"><path class="f" d="M470.1,451.14h20.06a6.11,6.11,0,0,1,6.11,6.11V495.1a0,0,0,0,1,0,0H464a0,0,0,0,1,0,0V457.24A6.11,6.11,0,0,1,470.1,451.14Z" transform="translate(-118.21 119.08) rotate(8.51)"/><path class="f" d="M463.19,497.33h20.06a6.11,6.11,0,0,1,6.11,6.11V541.3a0,0,0,0,1,0,0H457.08a0,0,0,0,1,0,0V503.44A6.11,6.11,0,0,1,463.19,497.33Z" transform="translate(670.87 1287.86) rotate(-171.49)"/><circle class="f" cx="365.85" cy="647.66" r="12.79"/><circle class="f" cx="359.15" cy="692.46" r="12.79"/><circle class="f" cx="352.44" cy="737.25" r="12.79"/><polygon class="f" points="350.28 647.51 350.92 643.25 337.1 641.18 336.78 643.32 336.78 643.32 330.39 685.98 302.53 681.81 301.89 686.07 329.75 690.24 323.37 732.9 323.37 732.9 323.05 735.03 336.88 737.1 337.52 732.84 327.95 731.41 334.02 690.88 343.58 692.31 344.22 688.04 334.66 686.61 340.72 646.09 350.28 647.51"/></g><g class="e"><path class="g" d="M730,70.63c10.59-3.19,24.65-.75,26.15-3.61,5.83-11.15,4.76-20,6.92-20.37C767.24,46,776.63,94.14,780.64,92s2.14-75.08,7.12-76.26c7.14-1.7,9.6,38.28,22.86,44.52" transform="translate(-193.51 184.92)"/><path class="g" d="M730,70.63c10.59-3.19,24.65-.75,26.15-3.61,5.83-11.15,4.76-20,6.92-20.37C767.24,46,776.63,94.14,780.64,92s2.14-75.08,7.12-76.26c7.14-1.7,9.6,38.28,22.86,44.52,5.07,2.38,6.35-1.14,14.08-1.16" transform="translate(-193.51 184.92)"/><circle class="h" cx="638.31" cy="243.95" r="7.28"/></g><g class="e"><path class="i" d="M301.43,288.19l-.62-.25a10.26,10.26,0,0,0-7.32-.09l-.59.21-4.26,1.56-2-4.06-.28-.56a10.27,10.27,0,0,0-5.39-4.95l-.62-.24c-8.16-3.25-16.85,7.13-13.53,16.16h0l8.87,24a1.1,1.1,0,0,0,1.56.62l23-11.41C308.79,305,309.6,291.44,301.43,288.19Z" transform="translate(-193.51 184.92)"/><path class="i" d="M253.28,258.94h60.61a7.71,7.71,0,0,1,7.71,7.71v70.13a9,9,0,0,1-9,9H254.54a9,9,0,0,1-9-9V266.65a7.71,7.71,0,0,1,7.71-7.71Z" transform="translate(-61.84 101.58) rotate(21.67)"/><rect class="i" x="284.47" y="257.18" width="32.14" height="4.96" transform="translate(-76.4 92.3) rotate(21.67)"/><rect class="i" x="283.28" y="229.06" width="50.69" height="20.51" rx="1.52" transform="translate(-83.34 87.88) rotate(21.67)"/></g><g class="e"><path class="j" d="M790.67,332.14l28.42,19.15a.27.27,0,0,1-.1.49l-23.32,4.46a.27.27,0,0,1-.31-.21l-4.53-23.69a.27.27,0,0,0-.32-.22l-65.91,12.6a.27.27,0,0,0-.21.32l22.92,119.87a.26.26,0,0,0,.31.21l90.13-17.23a.28.28,0,0,0,.22-.32l-18.32-95.8a.28.28,0,0,0-.11-.17Z" transform="translate(-193.51 184.92)"/><text class="k" transform="matrix(0.98, -0.19, 0.19, 0.98, 573.99, 583.87)">£</text><rect class="h" x="770.9" y="422.94" width="47.72" height="2.51" rx="0.35" transform="translate(-259.03 341.72) rotate(-10.82)"/><rect class="h" x="772.98" y="433.83" width="47.72" height="2.51" rx="0.35" transform="translate(-261.04 342.31) rotate(-10.82)"/><rect class="h" x="764.88" y="413.12" width="44.4" height="2.51" rx="0.35" transform="translate(-257.32 340.11) rotate(-10.82)"/><path class="h" d="M772.66,422.69l.32.59a4.55,4.55,0,0,0,3.55,2.33l.67.07a4.53,4.53,0,0,1,4.07,5.08l-.08.67a4.53,4.53,0,0,0,1.5,4l.5.44a4.54,4.54,0,0,1,.3,6.51l-.45.49a4.56,4.56,0,0,0-1.13,4.09l.15.66a4.54,4.54,0,0,1-3.58,5.44l-.66.13a4.54,4.54,0,0,0-3.31,2.65l-.27.62a4.54,4.54,0,0,1-6.09,2.3l-.61-.29a4.55,4.55,0,0,0-4.24.2l-.58.34a4.54,4.54,0,0,1-6.28-1.72l-.33-.59a4.56,4.56,0,0,0-3.54-2.33l-.67-.06a4.54,4.54,0,0,1-4.07-5.09l.08-.66a4.52,4.52,0,0,0-1.5-4l-.5-.45a4.53,4.53,0,0,1-.3-6.51l.45-.49a4.51,4.51,0,0,0,1.12-4.09l-.14-.65a4.54,4.54,0,0,1,3.58-5.45l.66-.12a4.57,4.57,0,0,0,3.31-2.66l.27-.61a4.53,4.53,0,0,1,6.09-2.3l.61.28a4.52,4.52,0,0,0,4.24-.2l.58-.34A4.54,4.54,0,0,1,772.66,422.69Z" transform="translate(-193.51 184.92)"/><path class="h" d="M762.48,451.35l-.23.76c-1.5,4.84-2.3,4.62-1.12-.31l.18-.77Z" transform="translate(-193.51 184.92)"/><polygon class="h" points="571.11 629.23 570.23 632.22 569.9 633.3 568.52 632.93 568.79 631.82 569.55 628.81 571.11 629.23"/><polygon class="h" points="573.56 620.95 572.17 625.64 570.47 625.18 571.66 620.43 573.56 620.95"/><path class="h" d="M766.67,429.57c1.38-5.68,1.81-5.22,2.52-5h0c.72.19,1.32,0-.38,5.61Z" transform="translate(-193.51 184.92)"/><path class="h" d="M768.44,436.66c-.47,1.85-4.21,2.24-4.59,3.57-.31,1.12,2.39,2.39,2.09,4-.41,2.12-3.61,2.24-4.06,3.68s2.26,2.75,1.82,3.7a1.49,1.49,0,0,1-1.87.71c-.86-.23,2-.6.71-1.57-.83-.62-2.57-2.46-1.06-4.09,1-1.06,3.12-1.41,3.28-2.46.19-1.29-2.9-2.9-2.3-4.81.43-1.36,4.59-2.09,4.73-3.41.28-2.66-3.42-3.82-2.54-7.28.59-2.33,4.89-2.51,5.47-1.05,1,2.6-3.47-.91-4,1.81C765.87,430.83,769.41,432.86,768.44,436.66Z" transform="translate(-193.51 184.92)"/><polygon class="h" points="569.9 633.3 568.98 636.27 567.8 635.95 568.52 632.93 569.9 633.3"/><polygon class="h" points="572.17 625.64 571.11 629.23 569.55 628.81 570.47 625.18 572.17 625.64"/><path class="h" d="M768.81,430.16c0,.12-.07.24-.11.36L767.07,436l-1.9-.52,1.41-5.57.09-.37Z" transform="translate(-193.51 184.92)"/></g><g class="l"><rect class="m" x="440.61" y="168.16" width="30.21" height="3.16"/><rect class="m" x="384.88" y="173.16" width="33.12" height="3.16"/><rect class="m" x="576.8" y="58.25" width="62.7" height="3.16" transform="translate(1022.8 304.57) rotate(180)"/><rect class="m" x="383.72" y="198.16" width="62.7" height="3.16"/><rect class="m" x="383.3" y="268.16" width="62.7" height="3.16"/><rect class="m" x="440.61" y="238.16" width="30.21" height="3.16"/><rect class="m" x="383.71" y="223.16" width="68.27" height="3.16"/><rect class="m" x="383.72" y="183.16" width="107.8" height="3.16"/><rect class="m" x="383.3" y="253.11" width="107.8" height="3.16"/><rect class="m" x="460.19" y="203.16" width="18.47" height="3.16"/><rect class="m" x="384.88" y="163.16" width="33.12" height="3.16"/><rect class="m" x="405.9" y="168.16" width="33.12" height="3.16"/><rect class="m" x="449.16" y="198.16" width="33.12" height="3.16"/><rect class="m" x="419.58" y="173.16" width="62.7" height="3.16"/><rect class="m" x="641.08" y="58.25" width="33.12" height="3.16" transform="translate(1121.78 304.57) rotate(180)"/><rect class="m" x="397.83" y="203.16" width="59.37" height="3.16"/><rect class="m" x="400.22" y="208.16" width="51.63" height="3.16"/><rect class="m" x="448.74" y="268.16" width="33.12" height="3.16"/><rect class="m" x="577.22" y="33.25" width="35.9" height="3.16" transform="translate(996.84 254.57) rotate(180)"/><rect class="m" x="616.78" y="33.25" width="68.27" height="3.16" transform="translate(1108.31 254.57) rotate(180)"/><rect class="m" x="455.63" y="223.16" width="35.9" height="3.16"/><rect class="m" x="383.72" y="178.16" width="107.8" height="3.16"/><rect class="m" x="383.3" y="248.11" width="107.8" height="3.16"/><rect class="m" x="473.05" y="168.16" width="18.47" height="3.16"/><rect class="m" x="405.9" y="238.16" width="33.12" height="3.16"/><rect class="m" x="473.05" y="238.16" width="18.47" height="3.16"/><rect class="m" x="481.06" y="203.16" width="10.46" height="3.16"/><rect class="m" x="383.72" y="203.16" width="11.36" height="3.16"/><rect class="m" x="420.88" y="163.16" width="36.29" height="3.16"/><rect class="m" x="407.54" y="258.16" width="42.31" height="3.16"/><rect class="m" x="452.73" y="258.16" width="36.29" height="3.16"/><rect class="m" x="383.3" y="233.16" width="36.58" height="3.16"/><rect class="m" x="423.27" y="233.16" width="39.86" height="3.16"/><rect class="m" x="634.15" y="3.25" width="33.12" height="3.16" transform="translate(1107.91 194.57) rotate(180)"/><rect class="m" x="594.98" y="3.25" width="36.29" height="3.16" transform="translate(1032.74 194.57) rotate(180)"/><rect class="m" x="360.88" y="163.16" width="18.99" height="3.16"/><rect class="m" x="360.88" y="168.16" width="18.99" height="3.16"/><rect class="m" x="360.88" y="173.16" width="18.99" height="3.16"/><rect class="m" x="360.88" y="178.16" width="18.99" height="3.16"/><rect class="m" x="360.88" y="183.16" width="18.99" height="3.16"/><rect class="m" x="360.88" y="193.16" width="18.99" height="3.16"/><rect class="m" x="360.88" y="198.16" width="18.99" height="3.16"/><rect class="m" x="360.88" y="218.16" width="18.99" height="3.16"/><rect class="m" x="360.88" y="223.16" width="18.99" height="3.16"/><rect class="m" x="360.88" y="233.16" width="18.99" height="3.16"/><rect class="m" x="360.88" y="238.16" width="18.99" height="3.16"/><rect class="m" x="360.88" y="243.16" width="18.99" height="3.16"/><rect class="m" x="360.88" y="248.16" width="18.99" height="3.16"/><rect class="m" x="360.88" y="253.16" width="18.99" height="3.16"/><rect class="m" x="360.88" y="263.16" width="18.99" height="3.16"/><rect class="m" x="360.88" y="268.16" width="18.99" height="3.16"/></g><g class="l"><path class="m" d="M590.58,372.42V357.71H579.15a24.26,24.26,0,0,0-1.76-4.16l8.11-8.11L575.1,335l-8.27,8.27a23.08,23.08,0,0,0-4-1.57V330H548.12v12.09a24.88,24.88,0,0,0-3.66,1.6L535.85,335l-10.4,10.4,8.77,8.77a23.74,23.74,0,0,0-1.42,3.5H520.37v14.71H532.8a23.74,23.74,0,0,0,1.42,3.5l-8.77,8.77,10.4,10.4,8.61-8.61a23.81,23.81,0,0,0,3.66,1.59v12.1h14.71V388.39a23.91,23.91,0,0,0,4-1.57l8.27,8.27,10.4-10.4-8.11-8.11a24.26,24.26,0,0,0,1.76-4.16Zm-52-7.36a17.14,17.14,0,1,1,17.14,17.38A17.39,17.39,0,0,1,538.59,365.06Z" transform="translate(-193.51 184.92)"/><circle class="m" cx="361.97" cy="549.98" r="12.26"/><path class="m" d="M636.56,401.6V391.31h-8a16.29,16.29,0,0,0-1.23-2.91l5.67-5.68-7.27-7.28-5.79,5.79a17.9,17.9,0,0,0-2.8-1.1v-8.24H606.85v8.46a17.83,17.83,0,0,0-2.57,1.12l-6-6L591,382.72l6.14,6.14a17,17,0,0,0-1,2.45h-8.7V401.6h8.7a17,17,0,0,0,1,2.45L591,410.19l7.28,7.28,6-6a17.83,17.83,0,0,0,2.57,1.12V421h10.29v-8.24a17,17,0,0,0,2.8-1.1l5.79,5.79,7.27-7.28-5.67-5.68a16.29,16.29,0,0,0,1.23-2.91Zm-36.39-5.14a12,12,0,1,1,12,12.16A12.18,12.18,0,0,1,600.17,396.46Z" transform="translate(-193.51 184.92)"/><circle class="m" cx="418.48" cy="581.37" r="8.58"/></g><g class="l"><polygon class="m" points="262.28 361.02 248.28 337.49 224.36 350.9 224.36 324.08 196.37 324.08 196.37 350.9 172.45 337.49 158.45 361.02 182.38 374.43 158.45 387.84 172.45 411.38 196.37 397.96 196.37 424.79 224.36 424.79 224.36 397.96 248.28 411.38 262.28 387.84 238.35 374.43 262.28 361.02"/><path class="n" d="M405.19,218.77l-.07,2c-.43,12.89-2.62,12.89-3.05,0l-.06-2Z" transform="translate(-193.51 184.92)"/><polygon class="o" points="212.21 385.01 212.05 392.91 211.95 395.8 208.23 395.8 208.13 392.91 207.97 385.01 212.21 385.01"/><polygon class="p" points="212.66 363.08 212.41 375.51 207.77 375.51 207.52 363.08 212.66 363.08"/><path class="q" d="M400.69,162.6c-.43-14.84,1-14,2.91-14h0c1.93,0,3.34-.84,2.9,14Z" transform="translate(-193.51 184.92)"/><path class="r" d="M410.07,178.79c.09,4.83-9.09,8.31-9.12,11.81,0,3,7.69,4.24,8,8.44.45,5.48-7.56,7.93-7.68,11.76-.12,3.64,7.59,5.2,7.15,7.83-.31,1.83-2,3-4.24,3s4.6-2.8.72-4.32c-2.53-1-8.2-4.3-5.53-9.32,1.73-3.25,6.92-5.54,6.59-8.22-.4-3.3-9.32-5.17-9.12-10.26.15-3.62,10.14-8.19,9.58-11.51-1.13-6.71-11.28-7.05-11.45-16.13-.12-6.12,10.61-9.45,13.07-6.24,4.35,5.69-9.36.1-8.8,7.11C399.55,166.22,409.88,168.83,410.07,178.79Z" transform="translate(-193.51 184.92)"/><polygon class="s" points="211.95 395.8 211.68 403.69 208.5 403.69 208.23 395.8 211.95 395.8"/><polygon class="t" points="212.41 375.51 212.21 385.01 207.97 385.01 207.77 375.51 212.41 375.51"/><path class="u" d="M406.5,162.6l0,1-.3,14.61H401l-.3-14.61,0-1Z" transform="translate(-193.51 184.92)"/></g><path class="v" d="M654.65,322.1a30.7,30.7,0,0,1,.26-4H612.32a30.71,30.71,0,0,1,.25,4c0,14.59-10.14,26.42-22.66,26.42V350h87.4v-1.47C664.8,348.52,654.65,336.69,654.65,322.1Z" transform="translate(-193.51 184.92)"/><rect class="w" x="261.03" y="285.32" width="358.15" height="217.72" rx="12"/><path class="x" d="M273.06,285.32H607.15a12,12,0,0,1,12,12V453.78a0,0,0,0,1,0,0H261a0,0,0,0,1,0,0V297.35A12,12,0,0,1,273.06,285.32Z"/><rect class="y" x="267.67" y="301.49" width="344.87" height="146.33"/><rect class="z" x="261.03" y="453.78" width="358.15" height="1.41"/><rect class="aa" x="425.06" y="291.25" width="28.21" height="5.24" rx="2.18"/><path class="ab" d="M639.9,293.06a8.35,8.35,0,0,1,.66-3.28,11.63,11.63,0,1,0,4.54,11.1A8.47,8.47,0,0,1,639.9,293.06Z" transform="translate(-193.51 184.92)"/><ellipse class="ac" cx="637.34" cy="279.94" rx="6.54" ry="2.37" transform="translate(-204.78 717.58) rotate(-45)"/><polygon class="m" points="535.17 415.62 531.54 409.32 525.32 412.91 525.32 405.74 518.05 405.74 518.05 412.91 511.83 409.32 508.2 415.62 514.41 419.21 508.2 422.8 511.83 429.1 518.05 425.51 518.05 432.68 525.32 432.68 525.32 425.51 531.54 429.1 535.17 422.8 528.96 419.21 535.17 415.62"/><path class="y" d="M715.54,242.12l0,.54c-.11,3.44-.68,3.44-.79,0l0-.54Z" transform="translate(-193.51 184.92)"/><polygon class="y" points="522.17 422.04 522.12 424.15 522.1 424.93 521.13 424.93 521.11 424.15 521.06 422.04 522.17 422.04"/><polygon class="y" points="522.28 416.17 522.22 419.5 521.01 419.5 520.95 416.17 522.28 416.17"/><path class="y" d="M714.37,227.09c-.12-4,.25-3.75.75-3.75h0c.5,0,.87-.22.76,3.75Z" transform="translate(-193.51 184.92)"/><path class="y" d="M716.8,231.42c0,1.29-2.36,2.23-2.36,3.16s2,1.14,2.08,2.26c.12,1.47-2,2.12-2,3.15s2,1.39,1.86,2.09a1,1,0,0,1-1.11.8c-.6,0,1.2-.75.19-1.15-.66-.26-2.13-1.15-1.44-2.5.45-.86,1.8-1.48,1.72-2.2-.11-.88-2.43-1.38-2.37-2.74,0-1,2.63-2.19,2.49-3.08-.3-1.8-2.94-1.89-3-4.32,0-1.63,2.76-2.53,3.4-1.67,1.13,1.52-2.44,0-2.29,1.91C714.07,228.06,716.75,228.76,716.8,231.42Z" transform="translate(-193.51 184.92)"/><polygon class="y" points="522.1 424.93 522.03 427.04 521.2 427.04 521.13 424.93 522.1 424.93"/><polygon class="y" points="522.22 419.5 522.17 422.04 521.06 422.04 521.01 419.5 522.22 419.5"/><path class="y" d="M715.88,227.09a2.09,2.09,0,0,0,0,.25l-.08,3.91h-1.34l-.07-3.91a2.09,2.09,0,0,1,0-.25Z" transform="translate(-193.51 184.92)"/><rect class="ad" x="375.71" y="326.27" width="30.21" height="3.16"/><rect class="ad" x="319.99" y="331.27" width="33.12" height="3.16"/><rect class="ad" x="511.91" y="216.35" width="62.7" height="3.16" transform="translate(893.02 620.78) rotate(180)"/><rect class="ad" x="318.83" y="356.27" width="62.7" height="3.16"/><rect class="ad" x="318.41" y="426.27" width="62.7" height="3.16"/><rect class="ad" x="375.71" y="396.27" width="30.21" height="3.16"/><rect class="ae" x="318.82" y="381.27" width="68.27" height="3.16"/><rect class="ae" x="318.83" y="341.27" width="107.8" height="3.16"/><rect class="ae" x="318.41" y="411.21" width="107.8" height="3.16"/><rect class="ae" x="395.3" y="361.27" width="18.47" height="3.16"/><rect class="af" x="319.99" y="321.27" width="33.12" height="3.16"/><rect class="af" x="341.01" y="326.27" width="33.12" height="3.16"/><rect class="af" x="384.27" y="356.27" width="33.12" height="3.16"/><rect class="af" x="354.69" y="331.27" width="62.7" height="3.16"/><rect class="af" x="576.19" y="216.35" width="33.12" height="3.16" transform="translate(992 620.78) rotate(180)"/><rect class="af" x="332.94" y="361.27" width="59.37" height="3.16"/><rect class="af" x="335.33" y="366.27" width="51.63" height="3.16"/><rect class="af" x="383.85" y="426.27" width="33.12" height="3.16"/><rect class="af" x="512.33" y="191.35" width="35.9" height="3.16" transform="translate(867.06 570.78) rotate(180)"/><rect class="af" x="551.88" y="191.35" width="68.27" height="3.16" transform="translate(978.53 570.78) rotate(180)"/><rect class="af" x="390.74" y="381.27" width="35.9" height="3.16"/><rect class="af" x="318.83" y="336.27" width="107.8" height="3.16"/><rect class="af" x="318.41" y="406.21" width="107.8" height="3.16"/><rect class="af" x="408.15" y="326.27" width="18.47" height="3.16"/><rect class="af" x="341.01" y="396.27" width="33.12" height="3.16"/><rect class="af" x="408.15" y="396.27" width="18.47" height="3.16"/><rect class="af" x="416.17" y="361.27" width="10.46" height="3.16"/><rect class="af" x="318.83" y="361.27" width="11.36" height="3.16"/><rect class="af" x="355.99" y="321.27" width="36.29" height="3.16"/><rect class="af" x="342.65" y="416.27" width="42.31" height="3.16"/><rect class="af" x="387.83" y="416.27" width="36.29" height="3.16"/><rect class="af" x="318.41" y="391.27" width="36.58" height="3.16"/><rect class="af" x="358.38" y="391.27" width="39.86" height="3.16"/><rect class="af" x="569.26" y="161.35" width="33.12" height="3.16" transform="translate(978.13 510.78) rotate(180)"/><rect class="af" x="530.09" y="161.35" width="36.29" height="3.16" transform="translate(902.96 510.78) rotate(180)"/><rect class="ag" x="295.99" y="321.27" width="18.99" height="3.16"/><rect class="ah" x="295.99" y="326.27" width="18.99" height="3.16"/><rect class="ah" x="295.99" y="331.27" width="18.99" height="3.16"/><rect class="ah" x="295.99" y="336.27" width="18.99" height="3.16"/><rect class="ah" x="295.99" y="341.27" width="18.99" height="3.16"/><rect class="ah" x="295.99" y="351.27" width="18.99" height="3.16"/><rect class="ag" x="295.99" y="356.27" width="18.99" height="3.16"/><rect class="ah" x="295.99" y="376.27" width="18.99" height="3.16"/><rect class="ah" x="295.99" y="381.27" width="18.99" height="3.16"/><rect class="ag" x="295.99" y="391.27" width="18.99" height="3.16"/><rect class="ah" x="295.99" y="396.27" width="18.99" height="3.16"/><rect class="ah" x="295.99" y="401.27" width="18.99" height="3.16"/><rect class="ah" x="295.99" y="406.27" width="18.99" height="3.16"/><rect class="ah" x="295.99" y="411.27" width="18.99" height="3.16"/><rect class="ah" x="295.99" y="421.27" width="18.99" height="3.16"/><rect class="ag" x="295.99" y="426.27" width="18.99" height="3.16"/><rect class="ai" x="274.45" y="321.27" width="4.13" height="3.16"/><rect class="ai" x="274.45" y="326.27" width="4.13" height="3.16"/><rect class="ai" x="274.45" y="331.27" width="4.13" height="3.16"/><rect class="ai" x="274.45" y="336.27" width="4.13" height="3.16"/><rect class="ai" x="274.45" y="341.27" width="4.13" height="3.16"/><rect class="ai" x="274.45" y="346.27" width="4.13" height="3.16"/><rect class="ai" x="274.45" y="351.27" width="4.13" height="3.16"/><rect class="ai" x="274.45" y="356.27" width="4.13" height="3.16"/><rect class="ai" x="274.45" y="361.27" width="4.13" height="3.16"/><rect class="ai" x="274.45" y="366.27" width="4.13" height="3.16"/><rect class="ai" x="274.45" y="371.27" width="4.13" height="3.16"/><rect class="ai" x="274.45" y="376.27" width="4.13" height="3.16"/><rect class="m" x="654.93" y="162.12" width="57.89" height="2.43" transform="translate(1174.23 511.58) rotate(180)"/><rect class="m" x="654.93" y="165.96" width="57.89" height="2.43" transform="translate(1174.23 519.26) rotate(180)"/><rect class="ae" x="715.77" y="165.96" width="14.58" height="2.43" transform="translate(1252.61 519.26) rotate(180)"/><rect class="ae" x="715.77" y="162.12" width="14.58" height="2.43" transform="translate(1252.61 511.58) rotate(180)"/><rect class="m" x="654.93" y="171.69" width="57.89" height="2.43" transform="translate(1174.23 530.72) rotate(180)"/><rect class="m" x="654.93" y="175.53" width="57.89" height="2.43" transform="translate(1174.23 538.4) rotate(180)"/><rect class="m" x="715.77" y="175.53" width="14.58" height="2.43" transform="translate(1252.61 538.4) rotate(180)"/><rect class="m" x="715.77" y="171.69" width="14.58" height="2.43" transform="translate(1252.61 530.72) rotate(180)"/><rect class="ae" x="655.08" y="181.26" width="57.89" height="2.43" transform="translate(1174.54 549.86) rotate(180)"/><rect class="ae" x="655.08" y="185.1" width="57.89" height="2.43" transform="translate(1174.54 557.54) rotate(180)"/><rect class="m" x="715.92" y="185.1" width="14.58" height="2.43" transform="translate(1252.92 557.54) rotate(180)"/><rect class="m" x="715.92" y="181.26" width="14.58" height="2.43" transform="translate(1252.92 549.86) rotate(180)"/><rect class="m" x="655.08" y="190.83" width="57.89" height="2.43" transform="translate(1174.54 569) rotate(180)"/><rect class="m" x="655.08" y="194.67" width="57.89" height="2.43" transform="translate(1174.54 576.68) rotate(180)"/><rect class="ae" x="715.92" y="194.67" width="14.58" height="2.43" transform="translate(1252.92 576.68) rotate(180)"/><rect class="ae" x="715.92" y="190.83" width="14.58" height="2.43" transform="translate(1252.92 569) rotate(180)"/><rect class="m" x="655.08" y="200.4" width="57.89" height="2.43" transform="translate(1174.54 588.14) rotate(180)"/><rect class="m" x="655.08" y="204.24" width="57.89" height="2.43" transform="translate(1174.54 595.82) rotate(180)"/><rect class="ae" x="715.92" y="204.24" width="14.58" height="2.43" transform="translate(1252.92 595.82) rotate(180)"/><rect class="ae" x="715.92" y="200.4" width="14.58" height="2.43" transform="translate(1252.92 588.14) rotate(180)"/><rect class="ae" x="588.54" y="321.76" width="6.9" height="0.72"/><rect class="ae" x="575.82" y="322.9" width="7.57" height="0.72"/><rect class="ae" x="768.96" y="153.97" width="14.32" height="0.72" transform="translate(1358.74 493.59) rotate(180)"/><rect class="ae" x="575.55" y="328.61" width="14.32" height="0.72"/><rect class="ae" x="575.45" y="344.6" width="14.32" height="0.72"/><rect class="ae" x="588.54" y="337.75" width="6.9" height="0.72"/><rect class="ae" x="575.55" y="334.32" width="15.59" height="0.72"/><rect class="ae" x="575.55" y="325.19" width="24.62" height="0.72"/><rect class="ae" x="575.45" y="341.16" width="24.62" height="0.72"/><rect class="ae" x="593.02" y="329.75" width="4.22" height="0.72"/><rect class="ae" x="575.82" y="320.62" width="7.57" height="0.72"/><rect class="ae" x="580.62" y="321.76" width="7.57" height="0.72"/><rect class="ae" x="590.5" y="328.61" width="7.57" height="0.72"/><rect class="ae" x="583.74" y="322.9" width="14.32" height="0.72"/><rect class="ae" x="783.64" y="153.97" width="7.57" height="0.72" transform="translate(1381.35 493.59) rotate(180)"/><rect class="ae" x="578.77" y="329.75" width="13.56" height="0.72"/><rect class="ae" x="579.32" y="330.9" width="11.79" height="0.72"/><rect class="ae" x="590.4" y="344.6" width="7.57" height="0.72"/><rect class="ae" x="769.06" y="148.26" width="8.2" height="0.72" transform="translate(1352.81 482.16) rotate(180)"/><rect class="ae" x="778.09" y="148.26" width="15.59" height="0.72" transform="translate(1378.27 482.16) rotate(180)"/><rect class="ae" x="591.98" y="334.32" width="8.2" height="0.72"/><rect class="ae" x="575.55" y="324.04" width="24.62" height="0.72"/><rect class="ae" x="575.45" y="340.02" width="24.62" height="0.72"/><rect class="ae" x="595.95" y="321.76" width="4.22" height="0.72"/><rect class="ae" x="580.62" y="337.75" width="7.57" height="0.72"/><rect class="ae" x="595.95" y="337.75" width="4.22" height="0.72"/><rect class="ae" x="597.79" y="329.75" width="2.39" height="0.72"/><rect class="ae" x="575.55" y="329.75" width="2.6" height="0.72"/><rect class="ae" x="584.04" y="320.62" width="8.29" height="0.72"/><rect class="ae" x="580.99" y="342.32" width="9.66" height="0.72"/><rect class="ae" x="591.31" y="342.32" width="8.29" height="0.72"/><rect class="ae" x="575.45" y="336.61" width="8.35" height="0.72"/><rect class="ae" x="584.58" y="336.61" width="9.1" height="0.72"/><rect class="ae" x="782.06" y="141.41" width="7.57" height="0.72" transform="translate(1378.18 468.46) rotate(180)"/><rect class="ae" x="773.11" y="141.41" width="8.29" height="0.72" transform="translate(1361.01 468.46) rotate(180)"/><rect class="ae" x="570.33" y="320.62" width="4.34" height="0.72"/><rect class="ae" x="570.33" y="321.76" width="4.34" height="0.72"/><rect class="ae" x="570.33" y="322.9" width="4.34" height="0.72"/><rect class="ae" x="570.33" y="324.04" width="4.34" height="0.72"/><rect class="ae" x="570.33" y="325.19" width="4.34" height="0.72"/><rect class="ae" x="570.33" y="327.47" width="4.34" height="0.72"/><rect class="ae" x="570.33" y="328.61" width="4.34" height="0.72"/><rect class="ae" x="570.33" y="333.18" width="4.34" height="0.72"/><rect class="ae" x="570.33" y="334.32" width="4.34" height="0.72"/><rect class="ae" x="570.33" y="336.61" width="4.34" height="0.72"/><rect class="ae" x="570.33" y="337.75" width="4.34" height="0.72"/><rect class="ae" x="570.33" y="338.89" width="4.34" height="0.72"/><rect class="ae" x="570.33" y="340.03" width="4.34" height="0.72"/><rect class="ae" x="570.33" y="341.17" width="4.34" height="0.72"/><rect class="ae" x="570.33" y="343.46" width="4.34" height="0.72"/><rect class="ae" x="570.33" y="344.6" width="4.34" height="0.72"/><rect class="af" x="588.51" y="349.55" width="6.9" height="0.72"/><rect class="af" x="575.78" y="350.69" width="7.57" height="0.72"/><rect class="af" x="768.92" y="181.76" width="14.32" height="0.72" transform="translate(1358.66 549.16) rotate(180)"/><rect class="af" x="575.51" y="356.4" width="14.32" height="0.72"/><rect class="af" x="575.42" y="372.39" width="14.32" height="0.72"/><rect class="af" x="588.51" y="365.53" width="6.9" height="0.72"/><rect class="af" x="575.51" y="362.11" width="15.59" height="0.72"/><rect class="af" x="575.51" y="352.97" width="24.62" height="0.72"/><rect class="af" x="575.42" y="368.95" width="24.62" height="0.72"/><rect class="af" x="592.98" y="357.54" width="4.22" height="0.72"/><rect class="af" x="575.78" y="348.4" width="7.57" height="0.72"/><rect class="af" x="580.58" y="349.55" width="7.57" height="0.72"/><rect class="af" x="590.46" y="356.4" width="7.57" height="0.72"/><rect class="af" x="583.7" y="350.69" width="14.32" height="0.72"/><rect class="af" x="783.61" y="181.76" width="7.57" height="0.72" transform="translate(1381.27 549.16) rotate(180)"/><rect class="af" x="578.73" y="357.54" width="13.56" height="0.72"/><rect class="af" x="579.28" y="358.68" width="11.79" height="0.72"/><rect class="af" x="590.36" y="372.39" width="7.57" height="0.72"/><rect class="af" x="769.02" y="176.05" width="8.2" height="0.72" transform="translate(1352.73 537.74) rotate(180)"/><rect class="af" x="778.05" y="176.05" width="15.59" height="0.72" transform="translate(1378.19 537.74) rotate(180)"/><rect class="af" x="591.94" y="362.11" width="8.2" height="0.72"/><rect class="af" x="575.51" y="351.83" width="24.62" height="0.72"/><rect class="af" x="575.42" y="367.81" width="24.62" height="0.72"/><rect class="af" x="595.92" y="349.55" width="4.22" height="0.72"/><rect class="af" x="580.58" y="365.53" width="7.57" height="0.72"/><rect class="af" x="595.92" y="365.53" width="4.22" height="0.72"/><rect class="af" x="597.75" y="357.54" width="2.39" height="0.72"/><rect class="af" x="575.51" y="357.54" width="2.6" height="0.72"/><rect class="af" x="584" y="348.4" width="8.29" height="0.72"/><rect class="af" x="580.95" y="370.1" width="9.66" height="0.72"/><rect class="af" x="591.27" y="370.1" width="8.29" height="0.72"/><rect class="af" x="575.42" y="364.39" width="8.35" height="0.72"/><rect class="af" x="584.55" y="364.39" width="9.1" height="0.72"/><rect class="af" x="782.02" y="169.2" width="7.57" height="0.72" transform="translate(1378.1 524.03) rotate(180)"/><rect class="af" x="773.08" y="169.2" width="8.29" height="0.72" transform="translate(1360.93 524.03) rotate(180)"/><rect class="af" x="570.3" y="348.4" width="4.34" height="0.72"/><rect class="af" x="570.3" y="349.55" width="4.34" height="0.72"/><rect class="af" x="570.3" y="350.69" width="4.34" height="0.72"/><rect class="af" x="570.3" y="351.83" width="4.34" height="0.72"/><rect class="af" x="570.3" y="352.97" width="4.34" height="0.72"/><rect class="af" x="570.3" y="355.26" width="4.34" height="0.72"/><rect class="af" x="570.3" y="356.4" width="4.34" height="0.72"/><rect class="af" x="570.3" y="360.97" width="4.34" height="0.72"/><rect class="af" x="570.3" y="362.11" width="4.34" height="0.72"/><rect class="af" x="570.3" y="364.39" width="4.34" height="0.72"/><rect class="af" x="570.3" y="365.53" width="4.34" height="0.72"/><rect class="af" x="570.3" y="366.68" width="4.34" height="0.72"/><rect class="af" x="570.3" y="367.82" width="4.34" height="0.72"/><rect class="af" x="570.3" y="368.96" width="4.34" height="0.72"/><rect class="af" x="570.3" y="371.25" width="4.34" height="0.72"/><rect class="af" x="570.3" y="372.39" width="4.34" height="0.72"/><rect class="ag" x="588.49" y="377.33" width="6.9" height="0.72"/><rect class="ag" x="575.76" y="378.47" width="7.57" height="0.72"/><rect class="ag" x="768.9" y="209.54" width="14.32" height="0.72" transform="translate(1358.62 604.73) rotate(180)"/><rect class="ag" x="575.49" y="384.18" width="14.32" height="0.72"/><rect class="ag" x="575.4" y="400.17" width="14.32" height="0.72"/><rect class="ag" x="588.49" y="393.32" width="6.9" height="0.72"/><rect class="ag" x="575.49" y="389.9" width="15.59" height="0.72"/><rect class="ag" x="575.49" y="380.76" width="24.62" height="0.72"/><rect class="ag" x="575.4" y="396.74" width="24.62" height="0.72"/><rect class="ag" x="592.96" y="385.33" width="4.22" height="0.72"/><rect class="ag" x="575.76" y="376.19" width="7.57" height="0.72"/><rect class="ag" x="580.56" y="377.33" width="7.57" height="0.72"/><rect class="ag" x="590.44" y="384.18" width="7.57" height="0.72"/><rect class="ag" x="583.68" y="378.47" width="14.32" height="0.72"/><rect class="ag" x="783.59" y="209.54" width="7.57" height="0.72" transform="translate(1381.23 604.73) rotate(180)"/><rect class="ag" x="578.72" y="385.33" width="13.56" height="0.72"/><rect class="ag" x="579.26" y="386.47" width="11.79" height="0.72"/><rect class="ag" x="590.34" y="400.17" width="7.57" height="0.72"/><rect class="ag" x="769" y="203.83" width="8.2" height="0.72" transform="translate(1352.69 593.31) rotate(180)"/><rect class="ag" x="778.03" y="203.83" width="15.59" height="0.72" transform="translate(1378.15 593.31) rotate(180)"/><rect class="ag" x="591.92" y="389.9" width="8.2" height="0.72"/><rect class="ag" x="575.49" y="379.62" width="24.62" height="0.72"/><rect class="ag" x="575.4" y="395.59" width="24.62" height="0.72"/><rect class="ag" x="595.9" y="377.33" width="4.22" height="0.72"/><rect class="ag" x="580.56" y="393.32" width="7.57" height="0.72"/><rect class="ag" x="595.9" y="393.32" width="4.22" height="0.72"/><rect class="ag" x="597.73" y="385.33" width="2.39" height="0.72"/><rect class="ag" x="575.49" y="385.33" width="2.6" height="0.72"/><rect class="ag" x="583.98" y="376.19" width="8.29" height="0.72"/><rect class="ag" x="580.93" y="397.89" width="9.66" height="0.72"/><rect class="ag" x="591.25" y="397.89" width="8.29" height="0.72"/><rect class="ag" x="575.4" y="392.18" width="8.35" height="0.72"/><rect class="ag" x="584.53" y="392.18" width="9.1" height="0.72"/><rect class="ag" x="782" y="196.98" width="7.57" height="0.72" transform="translate(1378.06 579.61) rotate(180)"/><rect class="ag" x="773.06" y="196.98" width="8.29" height="0.72" transform="translate(1360.89 579.61) rotate(180)"/><rect class="ag" x="570.28" y="376.19" width="4.34" height="0.72"/><rect class="ag" x="570.28" y="377.33" width="4.34" height="0.72"/><rect class="ag" x="570.28" y="378.47" width="4.34" height="0.72"/><rect class="ag" x="570.28" y="379.62" width="4.34" height="0.72"/><rect class="ag" x="570.28" y="380.76" width="4.34" height="0.72"/><rect class="ag" x="570.28" y="383.04" width="4.34" height="0.72"/><rect class="ag" x="570.28" y="384.18" width="4.34" height="0.72"/><rect class="ag" x="570.28" y="388.75" width="4.34" height="0.72"/><rect class="ag" x="570.28" y="389.9" width="4.34" height="0.72"/><rect class="ag" x="570.28" y="392.18" width="4.34" height="0.72"/><rect class="ag" x="570.28" y="393.32" width="4.34" height="0.72"/><rect class="ag" x="570.28" y="394.46" width="4.34" height="0.72"/><rect class="ag" x="570.28" y="395.61" width="4.34" height="0.72"/><rect class="ag" x="570.28" y="396.75" width="4.34" height="0.72"/><rect class="ag" x="570.28" y="399.03" width="4.34" height="0.72"/><rect class="ag" x="570.28" y="400.17" width="4.34" height="0.72"/><rect class="af" x="588.45" y="405.12" width="6.9" height="0.72"/><rect class="af" x="575.72" y="406.26" width="7.57" height="0.72"/><rect class="af" x="768.87" y="237.33" width="14.32" height="0.72" transform="translate(1358.54 660.3) rotate(180)"/><rect class="af" x="575.45" y="411.97" width="14.32" height="0.72"/><rect class="af" x="575.36" y="427.96" width="14.32" height="0.72"/><rect class="af" x="588.45" y="421.11" width="6.9" height="0.72"/><rect class="af" x="575.45" y="417.68" width="15.59" height="0.72"/><rect class="af" x="575.45" y="408.55" width="24.62" height="0.72"/><rect class="af" x="575.36" y="424.52" width="24.62" height="0.72"/><rect class="af" x="592.92" y="413.11" width="4.22" height="0.72"/><rect class="af" x="575.72" y="403.98" width="7.57" height="0.72"/><rect class="af" x="580.52" y="405.12" width="7.57" height="0.72"/><rect class="af" x="590.4" y="411.97" width="7.57" height="0.72"/><rect class="af" x="583.65" y="406.26" width="14.32" height="0.72"/><rect class="af" x="783.55" y="237.33" width="7.57" height="0.72" transform="translate(1381.15 660.3) rotate(180)"/><rect class="af" x="578.68" y="413.11" width="13.56" height="0.72"/><rect class="af" x="579.22" y="414.26" width="11.79" height="0.72"/><rect class="af" x="590.31" y="427.96" width="7.57" height="0.72"/><rect class="af" x="768.96" y="231.62" width="8.2" height="0.72" transform="translate(1352.61 648.88) rotate(180)"/><rect class="af" x="777.99" y="231.62" width="15.59" height="0.72" transform="translate(1378.08 648.88) rotate(180)"/><rect class="af" x="591.88" y="417.68" width="8.2" height="0.72"/><rect class="af" x="575.45" y="407.4" width="24.62" height="0.72"/><rect class="af" x="575.36" y="423.38" width="24.62" height="0.72"/><rect class="af" x="595.86" y="405.12" width="4.22" height="0.72"/><rect class="af" x="580.52" y="421.11" width="7.57" height="0.72"/><rect class="af" x="595.86" y="421.11" width="4.22" height="0.72"/><rect class="af" x="597.69" y="413.11" width="2.39" height="0.72"/><rect class="af" x="575.45" y="413.11" width="2.6" height="0.72"/><rect class="af" x="583.94" y="403.98" width="8.29" height="0.72"/><rect class="af" x="580.9" y="425.68" width="9.66" height="0.72"/><rect class="af" x="591.22" y="425.68" width="8.29" height="0.72"/><rect class="af" x="575.36" y="419.97" width="8.35" height="0.72"/><rect class="af" x="584.49" y="419.97" width="9.1" height="0.72"/><rect class="af" x="781.96" y="224.77" width="7.57" height="0.72" transform="translate(1377.98 635.18) rotate(180)"/><rect class="af" x="773.02" y="224.77" width="8.29" height="0.72" transform="translate(1360.81 635.18) rotate(180)"/><rect class="af" x="570.24" y="403.98" width="4.34" height="0.72"/><rect class="af" x="570.24" y="405.12" width="4.34" height="0.72"/><rect class="af" x="570.24" y="406.26" width="4.34" height="0.72"/><rect class="af" x="570.24" y="407.4" width="4.34" height="0.72"/><rect class="af" x="570.24" y="408.55" width="4.34" height="0.72"/><rect class="af" x="570.24" y="410.83" width="4.34" height="0.72"/><rect class="af" x="570.24" y="411.97" width="4.34" height="0.72"/><rect class="af" x="570.24" y="416.54" width="4.34" height="0.72"/><rect class="af" x="570.24" y="417.68" width="4.34" height="0.72"/><rect class="af" x="570.24" y="419.97" width="4.34" height="0.72"/><rect class="af" x="570.24" y="421.11" width="4.34" height="0.72"/><rect class="af" x="570.24" y="422.25" width="4.34" height="0.72"/><rect class="af" x="570.24" y="423.39" width="4.34" height="0.72"/><rect class="af" x="570.24" y="424.53" width="4.34" height="0.72"/><rect class="af" x="570.24" y="426.82" width="4.34" height="0.72"/><rect class="af" x="570.24" y="427.96" width="4.34" height="0.72"/><path class="m" d="M677.31,234.64v-4.7h-3.65a7.83,7.83,0,0,0-.57-1.33l2.6-2.59-3.33-3.32-2.64,2.64a7.08,7.08,0,0,0-1.28-.5v-3.77h-4.7v3.87a8.12,8.12,0,0,0-1.17.51l-2.75-2.75L656.5,226l2.8,2.8a7.28,7.28,0,0,0-.45,1.12h-4v4.7h4a7.28,7.28,0,0,0,.45,1.12l-2.8,2.8,3.32,3.32,2.75-2.75a8.12,8.12,0,0,0,1.17.51v3.87h4.7v-3.77a7.91,7.91,0,0,0,1.28-.5l2.64,2.64,3.33-3.32-2.6-2.59a7.83,7.83,0,0,0,.57-1.33Zm-16.61-2.35a5.48,5.48,0,1,1,5.47,5.55A5.55,5.55,0,0,1,660.7,232.29Z" transform="translate(-193.51 184.92)"/><circle class="m" cx="472.58" cy="417.21" r="3.92"/><path class="m" d="M692,244v-3.28h-2.55a6,6,0,0,0-.4-.94l1.81-1.81-2.32-2.32-1.85,1.85a4.7,4.7,0,0,0-.9-.36v-2.63h-3.28v2.7a5.5,5.5,0,0,0-.82.36l-1.93-1.92-2.32,2.32,2,2a5,5,0,0,0-.32.79H676.3V244h2.78a5.44,5.44,0,0,0,.32.79l-2,2,2.32,2.32,1.93-1.92a4.6,4.6,0,0,0,.82.35v2.71h3.28v-2.63a5.45,5.45,0,0,0,.9-.36l1.85,1.85,2.32-2.32-1.81-1.82a5.54,5.54,0,0,0,.4-.93Zm-11.63-1.64a3.84,3.84,0,1,1,3.84,3.89A3.9,3.9,0,0,1,680.37,242.32Z" transform="translate(-193.51 184.92)"/><circle class="m" cx="490.64" cy="427.24" r="2.74"/><text class="aj" transform="translate(475.31 336.27)">{ } { }</text></svg>