<svg xmlns="http://www.w3.org/2000/svg" xmlns:xlink="http://www.w3.org/1999/xlink" viewBox="0 0 741.02 733.49"><defs><style>.a{isolation:isolate;}.b{fill:#a100b9;}.b,.c,.d,.e{opacity:0.29;}.aa,.c,.y{fill:#23559c;}.c,.d,.e{mix-blend-mode:soft-light;}.ae,.d,.f{fill:#fff;}.g{fill:#88b9cc;}.h{fill:#bad7f8;}.i{fill:#6badcd;}.j{fill:#9ec8e4;}.k{fill:#9ab4e4;}.l{fill:#ed706a;}.m{fill:#1b1c52;}.n{fill:#fefefe;}.o{fill:#ffce75;}.p{fill:#5087c7;}.q{fill:#f9c974;}.ad,.an,.ar,.as,.au,.r,.x,.z{fill:none;}.r{stroke:#985288;stroke-width:5px;}.an,.ar,.as,.au,.r,.x,.z{stroke-miterlimit:10;}.s{fill:#f8b384;}.t{fill:#417feb;}.u{fill:#32358a;}.ae,.ag,.at,.u{opacity:0.25;}.v{fill:#2b3547;}.w{fill:#ffb08c;}.x{stroke:#5b687f;}.z{stroke:#bad7f8;}.aa{opacity:0.3;}.ab,.ak,.aq{fill:#72533e;}.ab,.aj{opacity:0.65;}.ac{fill:#fdd548;}.af{fill:#ff3132;}.ag{fill:#adb3bf;}.ah{fill:url(#a);}.ai{fill:#549ffb;}.ak{opacity:0.8;}.al{fill:url(#b);}.am{fill:#55a0fb;}.an{stroke:#fff;}.ao{fill:#fcfcf3;}.ap{fill:#3a70a5;opacity:0.5;}.ar{stroke:#94b3d0;stroke-width:0.4px;}.as{stroke:url(#c);}.at{fill:#5b687f;}.au{stroke:url(#d);}.av{fill:url(#e);}</style><linearGradient id="a" x1="776.31" y1="125.89" x2="769.35" y2="144.94" gradientUnits="userSpaceOnUse"><stop offset="0" stop-color="#ff3132"/><stop offset="0.18" stop-color="#fa3a44"/><stop offset="0.53" stop-color="#ec5074"/><stop offset="1" stop-color="#d871bc"/></linearGradient><linearGradient id="b" x1="718.77" y1="172.24" x2="718.77" y2="131.73" gradientUnits="userSpaceOnUse"><stop offset="0" stop-color="#ff3132"/><stop offset="1" stop-color="#f5673c"/></linearGradient><linearGradient id="c" x1="438.18" y1="341.31" x2="452.83" y2="338.99" gradientUnits="userSpaceOnUse"><stop offset="0" stop-color="#fff"/><stop offset="0.01" stop-color="#fffff6"/><stop offset="0.05" stop-color="#ffffc8"/><stop offset="0.09" stop-color="#ffff9d"/><stop offset="0.14" stop-color="#ff7"/><stop offset="0.2" stop-color="#ffff57"/><stop offset="0.25" stop-color="#ffff3b"/><stop offset="0.32" stop-color="#ffff25"/><stop offset="0.4" stop-color="#ffff14"/><stop offset="0.49" stop-color="#ffff09"/><stop offset="0.63" stop-color="#ffff02"/><stop offset="1" stop-color="#ff0"/></linearGradient><linearGradient id="d" x1="453.37" y1="342.75" x2="468.01" y2="340.43" xlink:href="#c"/><linearGradient id="e" x1="737.38" y1="172.6" x2="737.38" y2="131.84" xlink:href="#b"/></defs><title>page3_fullscreen</title><g class="a"><path class="b" d="M874.25,477.8c76.49-27.52,110.26-15.87,123-40.64,22.46-43.51-72.56-97.29-58.78-178.53,10.82-63.78,77-75.24,73.94-122.14C1008.78,79.07,908.77,82.74,875.35-.67c-25.91-64.67,18.7-105.52-9.58-143.35-39.66-53.06-182.52-46.38-259.9,26.43C553.17-68,548.6-4.45,487.46,13.2c-28.77,8.3-43.7-1.17-75.38,13.34-14,6.4-42.38,22.57-73.27,74.54-7.51,12.63-99.42,167.21-43.46,250.13,31.37,46.48,74.4,18.9,185.66,58.5,156.25,55.61,185.2,150.51,272.85,130.79C797.38,530.71,795.47,506.15,874.25,477.8Z" transform="translate(-271.54 178.83)"/><path class="c" d="M626.5,517.69C694.42,537.41,713.1,563.06,734,552c36.78-19.44-5.82-106.58,42.64-157.35,38.05-39.86,90.91-14,111-49,24.64-42.79-48.82-91.58-33.17-168.17,12.13-59.37,63.52-65.54,61.21-107C912.49,12.3,806.89-56.38,716.83-44.3,655.49-36.07,622,6.84,569.81-12,545.24-20.9,539-35.31,509.43-41.27,496.37-43.9,468.32-47,421.49-25.85,410.11-20.71,270.8,42.14,271.54,130c.42,49.22,44.37,51.7,105.34,137.09C462.51,387,438.19,469.44,510.41,500.46,546.26,515.85,556.56,497.38,626.5,517.69Z" transform="translate(-271.54 178.83)"/><path class="d" d="M557.46,47.45h0a51.93,51.93,0,0,0-70.82,16.78,51.92,51.92,0,0,0-70.52,18h0A51.91,51.91,0,0,0,432.86,153c.27.18.52.38.8.55l39.5,23.9,48.56,29.39,29.39-48.56,23.9-39.5c.17-.28.3-.57.46-.85A51.93,51.93,0,0,0,557.46,47.45Z" transform="translate(-271.54 178.83)"/><polygon class="d" points="400.47 188.05 448.69 222.5 504.41 202.31 486.55 258.81 522.97 305.56 463.71 306.04 430.5 355.12 411.74 298.91 354.8 282.5 402.46 247.28 400.47 188.05"/><g class="e"><path class="f" d="M660.72,396.1l-6.36,18L541.6,374.21l6.37-18Zm28.09-59.42-6.36,18L569.69,314.79l6.37-18ZM623.53,271.3l17.35,6.14L559.72,422.91l-17.35-6.14Zm45.14,16L686,293.41,604.86,438.88l-17.35-6.14Z" transform="translate(-271.54 178.83)"/></g><ellipse class="b" cx="343.67" cy="522.99" rx="187.04" ry="46.48"/><rect class="g" x="534.38" y="111.07" width="111.2" height="200.33" rx="6.7" transform="translate(-204.88 45.34) rotate(13.67)"/><rect class="h" x="537.87" y="111.92" width="111.2" height="200.33" rx="6.7" transform="translate(-204.58 44.54) rotate(13.67)"/><rect class="f" x="550.67" y="126.49" width="87.81" height="162.17" transform="translate(-205.62 44.16) rotate(13.67)"/><ellipse class="i" cx="572.63" cy="297.74" rx="5.28" ry="5.54" transform="translate(-123.08 963.01) rotate(-76.39)"/><ellipse class="i" cx="576.41" cy="112.29" rx="2.42" ry="2.54" transform="translate(60.05 824.9) rotate(-76.39)"/><ellipse class="i" cx="548.02" cy="262.01" rx="2.42" ry="2.54" transform="translate(-107.16 911.78) rotate(-76.39)"/><ellipse class="i" cx="555.1" cy="263.73" rx="2.42" ry="2.54" transform="translate(-103.42 919.97) rotate(-76.39)"/><ellipse class="i" cx="562.17" cy="265.45" rx="2.42" ry="2.54" transform="translate(-99.69 928.16) rotate(-76.39)"/><ellipse class="i" cx="582.24" cy="113.71" rx="1.71" ry="1.8" transform="translate(63.13 831.65) rotate(-76.39)"/><rect class="j" x="568.65" y="152.28" width="68.35" height="42.82" rx="3.23" transform="translate(-213.39 41.24) rotate(13.67)"/><path class="j" d="M579.49,187.56l6.5,1.59a.7.7,0,0,1,.38,1.18l-4.56,4.58-4.56,4.58a.77.77,0,0,1-1.26-.31L574.05,193l-1.95-6.16A.71.71,0,0,1,573,186Z" transform="translate(-271.54 178.83)"/><rect class="f" x="577.13" y="158.75" width="56.8" height="7.69" rx="2.57" transform="translate(-215.94 40.29) rotate(13.67)"/><rect class="f" x="571.73" y="180.94" width="56.8" height="7.69" rx="2.57" transform="translate(-210.85 42.2) rotate(13.67)"/><rect class="f" x="574.43" y="169.84" width="56.8" height="7.69" rx="2.57" transform="translate(-213.39 41.24) rotate(13.67)"/><rect class="k" x="555.11" y="213.77" width="68.35" height="31.15" rx="3.23" transform="translate(836.11 770.31) rotate(-166.33)"/><path class="k" d="M603.73,246.66l-6.51-1.58a.71.71,0,0,0-.88.88l1.95,6.16,2,6.16a.76.76,0,0,0,1.25.31l4.56-4.58,4.56-4.58a.71.71,0,0,0-.38-1.19Z" transform="translate(-271.54 178.83)"/><rect class="f" x="562.2" y="220.07" width="56.8" height="7.69" rx="2.57" transform="translate(840 759.93) rotate(-166.33)"/><rect class="f" x="587.5" y="234.53" width="28.4" height="7.69" rx="2.57" transform="translate(858.46 791.05) rotate(-166.33)"/><rect class="f" x="638.27" y="137.72" width="0.27" height="0.26" transform="translate(-221.15 32.42) rotate(13.61)"/><polygon class="i" points="358.93 319.4 358.64 320.6 359.9 320.9 360.39 318.9 358.93 319.4"/><polygon class="i" points="361.09 318.66 360.51 321.05 361.77 321.36 362.55 318.16 361.09 318.66"/><polygon class="i" points="363.25 317.92 362.38 321.5 363.64 321.81 364.71 317.41 363.25 317.92"/><polygon class="i" points="365.41 317.17 364.25 321.96 365.51 322.26 366.87 316.67 365.41 317.17"/><rect class="f" x="638.12" y="137.77" width="0.27" height="0.26" transform="translate(-221.14 32.46) rotate(13.61)"/><rect class="f" x="637.81" y="137.87" width="0.27" height="0.26" transform="translate(-221.13 32.53) rotate(13.61)"/><rect class="f" x="637.5" y="137.98" width="0.27" height="0.26" transform="translate(-221.11 32.61) rotate(13.61)"/><rect class="f" x="637.2" y="138.09" width="0.27" height="0.26" transform="translate(-221.09 32.68) rotate(13.61)"/><rect class="f" x="636.89" y="138.19" width="0.27" height="0.26" transform="translate(-221.08 32.76) rotate(13.61)"/><rect class="f" x="635.95" y="138.55" width="0.27" height="0.26" transform="translate(-221.02 32.99) rotate(13.61)"/><rect class="f" x="635.64" y="138.65" width="0.27" height="0.26" transform="translate(-221 33.07) rotate(13.61)"/><rect class="f" x="635.33" y="138.76" width="0.27" height="0.26" transform="translate(-220.99 33.14) rotate(13.61)"/><rect class="f" x="635.03" y="138.87" width="0.27" height="0.26" transform="translate(-220.97 33.22) rotate(13.61)"/><rect class="f" x="634.72" y="138.97" width="0.27" height="0.26" transform="translate(-220.96 33.29) rotate(13.61)"/><rect class="f" x="633.79" y="139.3" width="0.27" height="0.26" transform="translate(-220.9 33.52) rotate(13.61)"/><rect class="f" x="633.48" y="139.4" width="0.27" height="0.26" transform="translate(-220.89 33.6) rotate(13.61)"/><rect class="f" x="633.17" y="139.51" width="0.27" height="0.26" transform="translate(-220.87 33.67) rotate(13.61)"/><rect class="f" x="632.87" y="139.62" width="0.27" height="0.26" transform="translate(-220.86 33.75) rotate(13.61)"/><rect class="f" x="632.56" y="139.72" width="0.27" height="0.26" transform="translate(-220.84 33.82) rotate(13.61)"/><rect class="f" x="631.63" y="140.04" width="0.27" height="0.26" transform="translate(-220.79 34.05) rotate(13.61)"/><rect class="f" x="631.32" y="140.14" width="0.27" height="0.26" transform="translate(-220.77 34.13) rotate(13.61)"/><rect class="f" x="631.01" y="140.25" width="0.27" height="0.26" transform="translate(-220.76 34.2) rotate(13.61)"/><rect class="f" x="630.71" y="140.36" width="0.27" height="0.26" transform="translate(-220.74 34.28) rotate(13.61)"/><rect class="f" x="630.4" y="140.46" width="0.27" height="0.26" transform="translate(-220.73 34.35) rotate(13.61)"/><rect class="i" x="640.1" y="141.28" width="8.08" height="3.82" transform="translate(-219.73 31.22) rotate(13.61)"/><rect class="f" x="645.75" y="142.18" width="2.09" height="3.3" transform="translate(-219.51 30.62) rotate(13.61)"/><rect class="i" x="648.06" y="143.52" width="0.91" height="1.46" transform="translate(-219.36 30.22) rotate(13.61)"/><rect class="f" x="647.38" y="145.71" width="0.27" height="0.26" transform="translate(-219.01 30.5) rotate(13.61)"/><rect class="f" x="648.22" y="142.25" width="0.27" height="0.26" transform="translate(-219.8 30.21) rotate(13.61)"/><rect class="l" x="514.05" y="116.16" width="91.77" height="33.81" transform="translate(-278.61 213.21) rotate(-3.5)"/><path class="m" d="M540,134.29a10.09,10.09,0,1,0-16.24,8.59,2.4,2.4,0,0,1-.44-1.16c-.13-2.12,2.9-4,6.77-4.27s7.1,1.29,7.23,3.42a2.36,2.36,0,0,1-.29,1.2A10.05,10.05,0,0,0,540,134.29Z" transform="translate(-271.54 178.83)"/><path class="f" d="M530.09,137.45c-3.87.23-6.9,2.15-6.77,4.27a2.4,2.4,0,0,0,.44,1.16,10.06,10.06,0,0,0,13.27-.81,2.36,2.36,0,0,0,.29-1.2C537.19,138.74,534,137.21,530.09,137.45Z" transform="translate(-271.54 178.83)"/><circle class="f" cx="258.31" cy="312.42" r="3.86"/><rect class="n" x="546.56" y="140.43" width="34.68" height="2.51" transform="translate(-279.13 213.47) rotate(-3.5)"/><rect class="n" x="546.32" y="136.14" width="51.8" height="2.51" transform="translate(-278.85 213.97) rotate(-3.5)"/><rect class="n" x="546.09" y="132.38" width="51.8" height="2.51" transform="translate(-278.62 213.95) rotate(-3.5)"/><polygon class="o" points="281.04 306.98 278.6 308.46 278.91 305.62 276.74 303.75 279.54 303.17 280.65 300.53 282.07 303.01 284.92 303.25 283 305.37 283.65 308.15 281.04 306.98"/><polygon class="o" points="290.54 306.4 288.1 307.88 288.41 305.04 286.24 303.17 289.04 302.59 290.15 299.95 291.57 302.43 294.42 302.67 292.5 304.79 293.15 307.57 290.54 306.4"/><polygon class="o" points="300.04 305.82 297.6 307.3 297.91 304.46 295.74 302.59 298.54 302.01 299.65 299.37 301.07 301.85 303.92 302.09 302 304.21 302.65 306.99 300.04 305.82"/><polygon class="o" points="309.54 305.24 307.1 306.72 307.41 303.88 305.24 302.01 308.04 301.43 309.15 298.79 310.57 301.27 313.42 301.51 311.5 303.63 312.15 306.41 309.54 305.24"/><polygon class="o" points="319.04 304.66 316.59 306.14 316.9 303.3 314.74 301.43 317.54 300.85 318.65 298.21 320.07 300.69 322.92 300.93 320.99 303.05 321.65 305.83 319.04 304.66"/><rect class="p" x="585.3" y="186.31" width="91.77" height="33.81" transform="translate(-250.36 122.06) rotate(5.24)"/><path class="m" d="M611.3,201.39a10.09,10.09,0,1,0-17.36,6,2.39,2.39,0,0,1-.26-1.21c.2-2.12,3.48-3.55,7.34-3.2s6.82,2.36,6.63,4.48a2.39,2.39,0,0,1-.48,1.14A10.07,10.07,0,0,0,611.3,201.39Z" transform="translate(-271.54 178.83)"/><path class="f" d="M601,203c-3.86-.35-7.14,1.08-7.34,3.2a2.39,2.39,0,0,0,.26,1.21,10.06,10.06,0,0,0,13.23,1.21,2.39,2.39,0,0,0,.48-1.14C607.84,205.37,604.87,203.36,601,203Z" transform="translate(-271.54 178.83)"/><circle class="f" cx="329.83" cy="377.99" r="3.86"/><rect class="n" x="616.46" y="211.07" width="34.68" height="2.51" transform="translate(-249.51 121.86) rotate(5.24)"/><rect class="n" x="616.77" y="208.1" width="51.8" height="2.51" transform="translate(-249.75 121.04) rotate(5.24)"/><rect class="n" x="617.11" y="204.34" width="51.8" height="2.51" transform="translate(-250.09 120.99) rotate(5.24)"/><polygon class="o" points="353.12 376.07 350.48 377.16 351.22 374.4 349.36 372.22 352.22 372.07 353.71 369.63 354.74 372.3 357.52 372.97 355.3 374.77 355.52 377.62 353.12 376.07"/><polygon class="o" points="362.6 376.93 359.96 378.03 360.7 375.26 358.84 373.09 361.7 372.94 363.19 370.5 364.22 373.17 367 373.84 364.78 375.64 365 378.49 362.6 376.93"/><polygon class="o" points="372.08 377.8 369.44 378.9 370.17 376.13 368.32 373.96 371.17 373.81 372.67 371.37 373.69 374.04 376.48 374.71 374.25 376.51 374.48 379.36 372.08 377.8"/><polygon class="o" points="381.56 378.67 378.91 379.77 379.65 377 377.79 374.83 380.65 374.68 382.14 372.24 383.17 374.91 385.95 375.57 383.73 377.38 383.95 380.23 381.56 378.67"/><polygon class="o" points="391.03 379.54 388.39 380.63 389.13 377.87 387.27 375.7 390.13 375.54 391.62 373.11 392.65 375.77 395.43 376.44 393.21 378.25 393.43 381.1 391.03 379.54"/><rect class="q" x="513.24" y="266.4" width="91.77" height="33.81" transform="translate(-294.57 229.81) rotate(-5.12)"/><path class="m" d="M539.24,285.08a10.09,10.09,0,1,0-16,9.05,2.28,2.28,0,0,1-.47-1.14c-.19-2.12,2.78-4.12,6.64-4.47s7.14,1.1,7.33,3.22a2.34,2.34,0,0,1-.27,1.2A10,10,0,0,0,539.24,285.08Z" transform="translate(-271.54 178.83)"/><path class="f" d="M529.42,288.52c-3.86.35-6.83,2.35-6.64,4.47a2.28,2.28,0,0,0,.47,1.14,10.06,10.06,0,0,0,13.23-1.19,2.34,2.34,0,0,0,.27-1.2C536.56,289.62,533.27,288.18,529.42,288.52Z" transform="translate(-271.54 178.83)"/><circle class="f" cx="257.54" cy="463.5" r="3.86"/><rect class="n" x="546" y="290.54" width="34.68" height="2.51" transform="translate(-295.31 230.22) rotate(-5.12)"/><rect class="n" x="545.63" y="286.02" width="51.8" height="2.51" transform="translate(-294.88 230.93) rotate(-5.12)"/><rect class="n" x="545.29" y="282.27" width="51.8" height="2.51" transform="translate(-294.55 230.89) rotate(-5.12)"/><polygon class="l" points="280.1 457.42 277.7 458.97 277.93 456.12 275.71 454.32 278.5 453.65 279.53 450.99 281.02 453.43 283.87 453.58 282.01 455.76 282.74 458.52 280.1 457.42"/><polygon class="l" points="289.58 456.57 287.18 458.13 287.41 455.27 285.19 453.47 287.97 452.81 289.01 450.14 290.5 452.58 293.35 452.74 291.49 454.91 292.22 457.67 289.58 456.57"/><polygon class="l" points="299.06 455.73 296.66 457.28 296.89 454.43 294.67 452.62 297.45 451.96 298.49 449.29 299.97 451.73 302.83 451.89 300.97 454.06 301.7 456.82 299.06 455.73"/><polygon class="l" points="308.54 454.88 306.14 456.43 306.37 453.58 304.15 451.77 306.93 451.11 307.96 448.44 309.45 450.88 312.31 451.04 310.45 453.21 311.18 455.98 308.54 454.88"/><polygon class="l" points="318.02 454.03 315.62 455.58 315.85 452.73 313.63 450.92 316.41 450.26 317.44 447.59 318.93 450.03 321.79 450.19 319.93 452.36 320.66 455.13 318.02 454.03"/><path class="r" d="M1159.22,614.86" transform="translate(-271.54 178.83)"/><path class="s" d="M809.52,63.78" transform="translate(-271.54 178.83)"/><path class="t" d="M439.11,169.77l-10.48-3.59,7.21-15.64a3.44,3.44,0,0,1,3.13-2h30.42a3.44,3.44,0,0,1,2.95,1.66l4.78,10.28v56.29h-35Z" transform="translate(-271.54 178.83)"/><path class="u" d="M439.11,169.77l3.53-6.77s-.59,53-.54,53.77Z" transform="translate(-271.54 178.83)"/><rect class="f" x="176.5" y="321" width="12.49" height="11.45" rx="5.73"/><polygon class="v" points="170.56 395.59 165.47 518.01 174.15 518.01 187.93 418.34 190.32 418.34 186.73 518.01 193.61 518.01 201.18 456.8 205.59 395.59 170.56 395.59"/><polygon class="w" points="157.8 347.29 166.54 350.29 160.2 364.33 184.45 382.74 183.25 386.64 165.44 376.46 157.99 371.86 153.02 366.73 155.07 355.58 157.8 347.29"/><rect class="w" x="177.08" y="310.4" width="11.45" height="21.18" rx="5.04"/><polyline class="x" points="174.86 395.59 170.09 463.51 166.41 517.9"/><polyline class="x" points="189.17 418.34 189.22 415.84 189.57 395.59"/><polyline class="x" points="193.22 395.59 192.68 413.07 191.02 414.74 189.36 414.74"/><rect class="y" x="450.99" y="160.57" width="52.14" height="45.52" rx="9.92" transform="translate(-285.65 220.91) rotate(-4.98)"/><rect class="z" x="459.05" y="179.99" width="13.41" height="20.91" rx="2.78" transform="translate(-286.31 219.96) rotate(-4.98)"/><circle class="f" cx="197.62" cy="375.79" r="1.92"/><path class="h" d="M495.54,181.27l-.15-1.76a2,2,0,0,0-2.11-1.77l-10.13.88c1.36-6.32-.42-10.87-3.81-12a1.51,1.51,0,0,0-1,.09c-.42.16-1.79,1.17-1.72,1.43,2.33,8.83-3.85,13.23-3.85,13.23l1.52,17.49,1.64-.14.45,0,15.21-1.32a2,2,0,0,0,1.77-2.11l-.15-1.76v0a3.51,3.51,0,0,0,1.54-3.21l0-.21a3.55,3.55,0,0,0-.3-1.14,3.49,3.49,0,0,0,1.15-2.91l0-.21a3.47,3.47,0,0,0-.78-1.91A3.45,3.45,0,0,0,495.54,181.27Z" transform="translate(-271.54 178.83)"/><path class="aa" d="M495.39,179.51a2,2,0,0,0-2.11-1.77l-4.94.43a17.7,17.7,0,0,1,.24,1.78,18.36,18.36,0,0,1-11.39,18.62l14.35-1.25a2,2,0,0,0,1.77-2.11l-.15-1.76v0a3.51,3.51,0,0,0,1.54-3.21l0-.21a3.55,3.55,0,0,0-.3-1.14,3.49,3.49,0,0,0,1.15-2.91l0-.21a3.47,3.47,0,0,0-.78-1.91,3.45,3.45,0,0,0,.82-2.56Z" transform="translate(-271.54 178.83)"/><path class="ab" d="M454.35,131.58a5.72,5.72,0,0,0-5.73,5.72V147c0,.06,0,.11,0,.16a8.06,8.06,0,0,0,3.11.62,12.07,12.07,0,0,0,8.32-2.86V137.3A5.72,5.72,0,0,0,454.35,131.58Z" transform="translate(-271.54 178.83)"/><path class="s" d="M440.7,131.24c1.25-8.28,2.84-11.49,13.39-11.49,13.73,0,14.8,0,13.4,11.49-1.15,9.41-5.22,15.15-13.59,15.15-4.18,0-6.91-3.09-9.65-5.84S440,135.8,440.7,131.24Z" transform="translate(-271.54 178.83)"/><path class="ac" d="M467.77,123.4l-1.25-2.17a5.46,5.46,0,0,0-1.62-.84l-14-.07a2.7,2.7,0,0,0-2.56,1.76l-2.68,7.07a2.27,2.27,0,0,1-2,1.15h0a2.26,2.26,0,0,1-2.26-2.27v-.42l-4.12,6.88v-7.66c0-1.79-.06-4.92.92-6.41l4.1-6c1.81-1.77,3.25-2.18,6.84-2l13.36-.11,4.08.68a5.1,5.1,0,0,1,2.81,1.71h0a1.44,1.44,0,0,1-.13,1.85L467.86,118Z" transform="translate(-271.54 178.83)"/><ellipse class="s" cx="167.98" cy="309.86" rx="3.56" ry="4.77"/><path class="y" d="M477.05,347.55H457a.26.26,0,0,1-.26-.25v-3.69a1.3,1.3,0,0,1,.35-.88l1-1.07a2.79,2.79,0,0,1,2-.88H464a3.83,3.83,0,0,1,2,.56l4.69,2.83C472,345.08,477.33,345,477.05,347.55Z" transform="translate(-271.54 178.83)"/><path class="y" d="M454.09,347.5H436.56a.24.24,0,0,1-.22-.25v-3.63a1.36,1.36,0,0,1,.31-.87l.87-1.05a2.29,2.29,0,0,1,1.76-.86h3.43a3.13,3.13,0,0,1,1.76.55l4.09,2.78C449.66,345.07,454.33,345,454.09,347.5Z" transform="translate(-271.54 178.83)"/><polygon class="f" points="166.92 350.42 156.46 346.83 157.09 345 167.57 348.59 166.92 350.42"/><polygon class="ad" points="211.25 338.81 208.56 384.73 210.88 384.53 213.58 338.6 211.25 338.81"/><path class="ad" d="M504,192.52l-2-22.91a11.27,11.27,0,0,0-10.44-10.25l-2.69,45.78,4.88-.43A11.26,11.26,0,0,0,504,192.52Z" transform="translate(-271.54 178.83)"/><path class="ad" d="M460.33,161.94a11.26,11.26,0,0,0-10.24,12.19l2,22.91a11.26,11.26,0,0,0,12.19,10.24h.12l2.69-45.92Z" transform="translate(-271.54 178.83)"/><polygon class="ae" points="195.55 340.17 192.86 386.1 208.56 384.73 211.25 338.81 195.55 340.17"/><path class="ae" d="M489.84,159.37l-4.72.41-2.7,45.92,6.49-.56,2.69-45.78A12.94,12.94,0,0,0,489.84,159.37Z" transform="translate(-271.54 178.83)"/><path class="w" d="M492.07,159.82c0,2.11-5.28,5-8.25,5s-5.39-1.71-5.39-3.81c0-2.91,1.63-4.18,5.55-4.18C487,156.83,492.07,157.71,492.07,159.82Z" transform="translate(-271.54 178.83)"/><path class="w" d="M453.87,205.76c.43-1.4,9.1-2.24,9.44-1.55.93,1.85-2.73,1.68-2.5,2.14.34.64,6.25-.09,7.05.73s.54,3.36.31,4.12-6.11.51-8.32-.16C456,209.86,453.34,207.5,453.87,205.76Z" transform="translate(-271.54 178.83)"/><rect class="af" x="419.91" y="425.48" width="106.27" height="100.73" rx="5.14"/><path class="r" d="M749.1,285.78" transform="translate(-271.54 178.83)"/><polyline class="f" points="458.43 494.29 473.04 508.9 487.66 494.29"/><path class="f" d="M753.06,277.92a3.22,3.22,0,0,0-.56.41c-1.74,1.65-1.19,5.12,1.25,7.74a7.4,7.4,0,0,0,5.3,2.61,2,2,0,0,1,.43-1.13A8.19,8.19,0,0,1,755,285C752.85,282.67,752.14,279.78,753.06,277.92Z" transform="translate(-271.54 178.83)"/><path class="f" d="M721.78,279.89c-2.11,8,1.25,11.85,3.32,12.76,1.25.56,7.16,1.18,11.27-6.19l1,.55c1-1.28,2.06-2.58,3-3.77a66.08,66.08,0,0,0,6.07-8.2,20.88,20.88,0,0,0-1.87,1.56,18.91,18.91,0,0,0-23.46-2.23c-.16,1.74-.29,3.52-.42,5.24Z" transform="translate(-271.54 178.83)"/><path class="f" d="M738.36,287.57l1,.55c-3.58,6.44-8.67,8.25-12.31,8.25a9.53,9.53,0,0,1-2.11-.23,35.13,35.13,0,0,0-2.56,11.71l7.61,7.61h29.22l9-9c.06-4.1-1.67-8.51-5.17-13a.37.37,0,0,1-.28-.1L760.45,291c-2.38,1-5.88-.21-8.52-3.05-3.14-3.39-3.86-7.85-1.61-10a4.46,4.46,0,0,1,3.55-1.07c1.82-1.49,5.15-.67,7.56,1.94s3,5.81,1.53,7.59a6.25,6.25,0,0,1,0,1.15l2.74,2.8a.36.36,0,0,1,0,.51l-.12.12c3.58,4.5,5.31,8.56,5.91,12.13a18.9,18.9,0,0,0-.38-26.32h0a18.89,18.89,0,0,0-22.75-3c-1.21,2.94-3.92,6.29-7.07,10.15C740.3,285.14,739.35,286.3,738.36,287.57Z" transform="translate(-271.54 178.83)"/><path class="f" d="M718.49,279l1.08.29c.1-1.34.2-2.7.32-4.05a18.9,18.9,0,0,0-1.8,1.57h0a18.89,18.89,0,0,0-.24,26.48c.08.09.15.18.24.27l1,1.05a44,44,0,0,1,2.72-10.06C719.12,292.27,716.3,287.29,718.49,279Z" transform="translate(-271.54 178.83)"/><path class="f" d="M771.32,303.31c-.09.08-.16.17-.24.25l-2.85,2.74a12.94,12.94,0,0,1-3,8c-7.27,9.14-25.21,12.63-35.54,6.91-5-2.78-7.48-7.43-7.35-13.51l-3.22-3.09c-1.59,11.46,4.43,17,8.86,19.43a28.48,28.48,0,0,0,13.65,3.12c10,0,20.85-4,26.31-10.88a16.21,16.21,0,0,0,3.5-13.09Z" transform="translate(-271.54 178.83)"/><path class="f" d="M726.29,260.13c1.61-.75,3.76-.42,6.39.92-.11.5.36,1.13,1.14,1.48.09,0,.19.05.28.08a1.69,1.69,0,0,0,1,1.13,1.75,1.75,0,0,0,1.45,0,1.06,1.06,0,0,1-.17-.59l.57-.78h0a.69.69,0,0,1,.25-.1,1.74,1.74,0,0,0-1-1.07,1.86,1.86,0,0,0-1-.13,2.83,2.83,0,0,0-.63-.4,2.75,2.75,0,0,0-.58-.18c-3.38-1.92-6.1-2.4-8.25-1.4-4.15,1.92-5.3,8.94-5.92,16.16.4-.31.81-.62,1.23-.89C721.74,267.85,722.88,261.71,726.29,260.13Z" transform="translate(-271.54 178.83)"/><path class="f" d="M748.75,269.19c-.66-2-2.56-3.54-5.89-4.78a2.74,2.74,0,0,0-1-.7,3,3,0,0,0-1-.26,1.87,1.87,0,0,0-.65-.48,1.7,1.7,0,0,0-1.59.07.89.89,0,0,1,0,.75,1,1,0,0,1-.55.49,1.68,1.68,0,0,0,1,1.22,1.66,1.66,0,0,0,1.64-.12,1.92,1.92,0,0,0,.35.18,2.13,2.13,0,0,0,1.83.1c2.67,1.07,4.26,2.35,4.77,3.89s0,3.4-1.22,5.49a20.2,20.2,0,0,1,1.88-1.23A6.47,6.47,0,0,0,748.75,269.19Z" transform="translate(-271.54 178.83)"/><polygon class="ag" points="453.52 425.48 467.97 526.21 483.58 526.21 469.13 425.48 453.52 425.48"/><polygon class="ag" points="475.65 425.48 490.1 526.21 520.89 526.21 506.44 425.48 475.65 425.48"/><path class="ah" d="M784.08,131.76h0a6.43,6.43,0,0,0-8.2-3.75,6.43,6.43,0,0,0-8.26-3.62h0a6.43,6.43,0,0,0-3.75,8.19.56.56,0,0,0,0,.12l4.54,11.91,11.91-4.55.11-.05A6.42,6.42,0,0,0,784.08,131.76Z" transform="translate(-271.54 178.83)"/><path class="ai" d="M681.88,326.93l14.58-6.66a1.58,1.58,0,0,0,.83-2.17L695,314.18a1.32,1.32,0,0,0-1.37-.62c-5.67,1-3.24,2.64-3.94,3.4l-8.47,9.09A.55.55,0,0,0,681.88,326.93Z" transform="translate(-271.54 178.83)"/><rect class="s" x="453.67" y="344.98" width="6.93" height="12.9" rx="3.05"/><path class="s" d="M698.21,237.07l-19.08,3.19c-6,.31-11.87,8.34-10.51,14.23l21.22,59.56,3-.88L688.37,285c-.75-6.16-1.65-18.87-1.68-19.11-1.35-9.13-5.83-12.57,2.92-14.74l7.38-1.28" transform="translate(-271.54 178.83)"/><g class="aj"><path class="ak" d="M697.86,242.13l.35-5.06-20.44,1.78c-5.62.3-5.3,8.34-4.94,14.05C675.86,241.79,697.86,242.13,697.86,242.13Z" transform="translate(-271.54 178.83)"/></g><path class="s" d="M671.24,228.56c0-1.55-3.34-2.8-7.47-2.8s-7.46,1.25-7.46,2.8-1.24,3.26,2.88,3.26S671.24,230.11,671.24,228.56Z" transform="translate(-271.54 178.83)"/><path class="s" d="M760.51,166.1c.67,1.56,4.49,1.42,8.54-.32s6.37-4.8,5.7-6.36-7.16.18-11.21,1.92S759.84,164.55,760.51,166.1Z" transform="translate(-271.54 178.83)"/><path class="al" d="M728.53,131.84c-.7-.07-1.41-.11-2.13-.11h-.21c-7.94.58-20,10.54-16.83,15.74l-.17,24c0,.32,0,.84.44.73l19.08-9.34" transform="translate(-271.54 178.83)"/><polygon class="s" points="467.28 352.57 438.88 352.49 414.09 382.84 392.35 406.64 396.32 407.61 421.91 386.04 440.98 363.23 467.65 373.5 467.28 352.57"/><path class="ad" d="M735.29,186.46a1.7,1.7,0,0,0,.49,1Z" transform="translate(-271.54 178.83)"/><path class="am" d="M740.37,188c-3.59,5.87-5-1-5.08-1.45-.21-1.23.31-3.05.76-4.76l2.15-8.09h-3.73c-.34,2.61-6.52,8.66-11.39,8.66-5,0-7-3.48-7-6a21.18,21.18,0,0,1,0-2.73l-.94,0h-3.9l-3.79,52.21,28.16-.12.25-12.48Z" transform="translate(-271.54 178.83)"/><path class="an" d="M737.71,190.39s-6.51,20.21-4.45,35.37" transform="translate(-271.54 178.83)"/><path class="s" d="M758.83,166.7l-10.51,31.59-9.5-24.55h-.62l-2.6,9.7c-.45,1.69,3.59,11.24,3.59,11.24l7.31,14.81a2.38,2.38,0,0,0,4.35-.32l12.55-41a2,2,0,0,0-1.26-2.49l-.74-.26A2,2,0,0,0,758.83,166.7Z" transform="translate(-271.54 178.83)"/><path class="ao" d="M734.47,173.73c-.71,2.46-6.44,8.44-11.35,8.44s-6.47-2.95-6.91-5.72a25,25,0,0,0-.21-2.76c-.93.91-.85,2.68-.67,4.11.32,2.59,2.39,5.8,7.71,5.8s12-6,12-8.61A1.76,1.76,0,0,0,734.47,173.73Z" transform="translate(-271.54 178.83)"/><ellipse class="ap" cx="442.36" cy="371.56" rx="5.51" ry="6.2"/><path class="h" d="M687.26,227.8l9.73,22,36.5.05c3.38-.32,5.08-3.2,5.38-6.58l.64-7.31c.47-5.43-.32-7.45-3.59-10.25l-28.55.12v1.32Z" transform="translate(-271.54 178.83)"/><path class="ab" d="M687.5,276.12c-.43-5.13-.78-10-.81-10.21l-6.36-13.16a29.9,29.9,0,0,0-6.65-8.74l-.66-.6a1.71,1.71,0,0,1-.29-.74c-3,3.28-5,8.19-4.11,11.86l1.12,3.15,17.31,18Z" transform="translate(-271.54 178.83)"/><path class="aq" d="M679.13,239.15" transform="translate(-271.54 178.83)"/><path class="s" d="M687.28,227.81l-21.24.61a5.93,5.93,0,0,0-5.7,5l-.11.73c-.3,2,1.62,8,5.57,12.8L687,275.4c3.45,4.21,4.34-.41,2.47-5l-6.32-18.62a29.9,29.9,0,0,0-5.52-9.48l-.58-.68a1.64,1.64,0,0,1,1.53-2.45l13.43-.54" transform="translate(-271.54 178.83)"/><path class="ai" d="M686.94,293.19l10.88-13.86a1.74,1.74,0,0,0-.29-2.54l-4.18-2.69a1.45,1.45,0,0,0-1.66.09c-5,3.88-1.83,4.21-2.14,5.31l-3.68,13.15A.61.61,0,0,0,686.94,293.19Z" transform="translate(-271.54 178.83)"/><ellipse class="am" cx="442.36" cy="370.43" rx="5.51" ry="6.2"/><ellipse class="ap" cx="456.21" cy="372.13" rx="5.51" ry="6.2"/><ellipse class="am" cx="456.21" cy="371" rx="5.51" ry="6.2"/><line class="ar" x1="439.02" y1="407.61" x2="458.46" y2="413.6"/><line class="ar" x1="439.02" y1="407.61" x2="453.3" y2="408.75"/><path class="y" d="M764.4,169.6a1.65,1.65,0,0,0-2.09.56l-3.94-1.77-.49,1.09,3.87,1.74a1.54,1.54,0,0,0,.5,1.7,2.06,2.06,0,0,0,2.15-3.32Z" transform="translate(-271.54 178.83)"/><circle class="as" cx="445.5" cy="340.15" r="6.91"/><path class="at" d="M753.88,181.78a0,0,0,0,0-.07,0l-5.46,16.4a0,0,0,0,1-.07,0l-9.47-24.44h-6.68v-4.11a3.47,3.47,0,1,0-6.93,0v2.59l7.23,4.68c2.32,21.2-3.81,34.36-3.77,49v0c-6.31,14.72-16.12,4-27.13,24h0l32,0c3.38-.32,5.08-3.2,5.38-6.58l.64-7.31c.47-5.43-.32-7.45-3.59-10.25h-.38l.24-12.48h0l3.39-18.63,0,0,7.31,14.81a2.38,2.38,0,0,0,4.35-.32l5.48-17.88v0Z" transform="translate(-271.54 178.83)"/><path class="s" d="M728.84,170.81l-3.76-.11c-7.53-.25-14.52-8.6-14.52-16.12v-6.21h18.28Z" transform="translate(-271.54 178.83)"/><circle class="au" cx="460.69" cy="341.59" r="6.91"/><path class="aq" d="M731.09,173.52" transform="translate(-271.54 178.83)"/><path class="av" d="M727.71,162.88v9.72c16-4.94,21.07-12.22,19.12-19.44h0a21.5,21.5,0,0,0-19.3-21.32" transform="translate(-271.54 178.83)"/></g></svg>