<svg xmlns="http://www.w3.org/2000/svg" xmlns:xlink="http://www.w3.org/1999/xlink" viewBox="0 0 590.89 675.8"><defs><style>.a{fill:url(#a);}.b{fill:#9ee9e2;opacity:0.5;}.c{opacity:0.3;}.d{fill:#286e75;}.e,.f,.g,.h,.i{fill:none;stroke:#286e75;stroke-miterlimit:10;}.e{stroke-width:6px;}.g{stroke-width:10px;}.h,.i{stroke-width:5px;}.i{font-size:55.57px;}.ah,.i{font-family:MyriadPro-Regular, Myriad Pro;}.j{opacity:0.4;}.ah,.k{fill:#c3e6e0;}.l{fill:url(#b);}.m{fill:url(#c);}.n{fill:url(#d);}.o{fill:url(#e);}.p{fill:url(#f);}.q{fill:url(#g);}.r{fill:url(#h);}.s{fill:url(#i);}.t{fill:url(#j);}.u{fill:url(#k);}.v{fill:#0e5090;}.w{fill:#1e76bd;}.x{fill:url(#l);}.y{fill:#08357f;}.z{fill:url(#m);}.aa{fill:url(#n);}.ab{fill:#cb003f;}.ac{fill:#75c44c;}.ad{fill:#f2f2f0;}.ae{fill:#f0a30a;}.af{fill:#dddcd7;}.ag{fill:#01c6b2;}.ah{font-size:25.88px;}</style><linearGradient id="a" x1="233.07" y1="422.81" x2="573.7" y2="53.2" gradientUnits="userSpaceOnUse"><stop offset="0" stop-color="#407ec2"/><stop offset="0.19" stop-color="#328ebe"/><stop offset="0.72" stop-color="#0fb6b5"/><stop offset="1" stop-color="#01c6b2"/></linearGradient><linearGradient id="b" x1="358.91" y1="484.57" x2="362.09" y2="484.57" xlink:href="#a"/><linearGradient id="c" x1="248.15" y1="565.58" x2="252.39" y2="565.58" xlink:href="#a"/><linearGradient id="d" x1="247.7" y1="544.47" x2="252.84" y2="544.47" xlink:href="#a"/><linearGradient id="e" x1="357.52" y1="415.57" x2="363.49" y2="415.57" xlink:href="#a"/><linearGradient id="f" x1="351.91" y1="447.98" x2="366.98" y2="447.98" xlink:href="#a"/><linearGradient id="g" x1="248.41" y1="574.92" x2="252.13" y2="574.92" xlink:href="#a"/><linearGradient id="h" x1="247.95" y1="555.44" x2="252.59" y2="555.44" xlink:href="#a"/><linearGradient id="i" x1="357.6" y1="430.35" x2="363.41" y2="430.35" xlink:href="#a"/><linearGradient id="j" x1="422.58" y1="372.56" x2="422.58" y2="345.74" gradientUnits="userSpaceOnUse"><stop offset="0" stop-color="#d3ebfe"/><stop offset="0.61" stop-color="#a5e7f4"/></linearGradient><linearGradient id="k" x1="312.34" y1="426.63" x2="312.34" y2="243.4" xlink:href="#j"/><linearGradient id="l" x1="133.27" y1="394.7" x2="491.42" y2="394.7" gradientUnits="userSpaceOnUse"><stop offset="0.01" stop-color="#5394a3"/><stop offset="0.1" stop-color="#5797a6"/><stop offset="0.2" stop-color="#649fae"/><stop offset="0.31" stop-color="#79adbc"/><stop offset="0.41" stop-color="#97c1d0"/><stop offset="0.52" stop-color="#bdd9e8"/><stop offset="0.58" stop-color="#d6eaf9"/><stop offset="0.61" stop-color="#c8e0ef"/><stop offset="0.73" stop-color="#9fc2d3"/><stop offset="0.84" stop-color="#82acbe"/><stop offset="0.93" stop-color="#6f9fb1"/><stop offset="1" stop-color="#699aad"/></linearGradient><linearGradient id="m" x1="414.35" y1="332.33" x2="430.71" y2="315.97" gradientUnits="userSpaceOnUse"><stop offset="0" stop-color="#73a3c6"/><stop offset="0.52" stop-color="#9cc8e9"/><stop offset="1" stop-color="#bddcf8"/></linearGradient><linearGradient id="n" x1="386.67" y1="415.41" x2="393.55" y2="408.53" gradientTransform="matrix(0, 0.96, -1.02, 0, 845.77, -70.13)" xlink:href="#m"/></defs><title>page1_phone</title><path class="a" d="M192.06,375.55C310.74,574.93,528.53,640,647.4,503.48c108.73-124.84,55-556.18-184.75-594.8C75.1-153.75,44.44,127.55,192.06,375.55Z" transform="translate(-110.23 100.13)"/><path class="b" d="M114.72,65.36" transform="translate(-110.23 100.13)"/><g class="c"><path class="d" d="M502.05,17.85h20.06A6.11,6.11,0,0,1,528.22,24V61.81a0,0,0,0,1,0,0H495.95a0,0,0,0,1,0,0V24A6.11,6.11,0,0,1,502.05,17.85Z" transform="translate(-69.62 343.76) rotate(-27.83)"/><path class="d" d="M523.86,59.16h20.06A6.11,6.11,0,0,1,550,65.27v37.86a0,0,0,0,1,0,0H517.75a0,0,0,0,1,0,0V65.27a6.11,6.11,0,0,1,6.11-6.11Z" transform="translate(933.68 3.83) rotate(152.17)"/><circle class="d" cx="459.53" cy="84.66" r="12.79"/><circle class="d" cx="480.67" cy="124.72" r="12.79"/><circle class="d" cx="501.81" cy="164.77" r="12.79"/><polygon class="d" points="446.9 93.76 444.89 89.95 432.52 96.47 433.53 98.38 433.53 98.38 453.67 136.53 428.75 149.68 430.76 153.5 455.68 140.34 475.81 178.49 475.81 178.49 476.82 180.4 489.18 173.87 487.17 170.06 478.62 174.57 459.49 138.33 468.04 133.82 466.03 130 457.48 134.52 438.35 98.28 446.9 93.76"/></g><g class="c"><path class="e" d="M586.55,258.54c10.59-3.2,24.66-.75,26.15-3.62,5.83-11.15,4.77-20,6.92-20.36,4.23-.65,13.61,47.48,17.62,45.35s2.14-75.08,7.12-76.26c7.15-1.7,9.6,38.28,22.86,44.51" transform="translate(-110.23 100.13)"/><path class="e" d="M586.55,258.54c10.59-3.2,24.66-.75,26.15-3.62,5.83-11.15,4.77-20,6.92-20.36,4.23-.65,13.61,47.48,17.62,45.35s2.14-75.08,7.12-76.26c7.15-1.7,9.6,38.28,22.86,44.51,5.07,2.39,6.36-1.13,14.09-1.15" transform="translate(-110.23 100.13)"/><circle class="f" cx="578.18" cy="347.06" r="7.28"/></g><g class="c"><path class="g" d="M218.54,70.71l-.62-.24a10.26,10.26,0,0,0-7.32-.1l-.58.21-4.27,1.57-2-4.07-.27-.56a10.34,10.34,0,0,0-5.39-4.95l-.63-.24c-8.16-3.25-16.85,7.14-13.52,16.16h0l8.86,24.06a1.1,1.1,0,0,0,1.56.62l23-11.41C225.9,87.47,226.71,74,218.54,70.71Z" transform="translate(-110.23 100.13)"/><path class="g" d="M170.39,41.46H231a7.71,7.71,0,0,1,7.71,7.71V119.3a9,9,0,0,1-9,9H171.66a9,9,0,0,1-9-9V49.17A7.71,7.71,0,0,1,170.39,41.46Z" transform="translate(-64.72 32.02) rotate(21.67)"/><rect class="g" x="201.58" y="39.71" width="32.14" height="4.96" transform="translate(-79.28 22.75) rotate(21.67)"/><rect class="g" x="200.39" y="11.58" width="50.69" height="20.51" rx="1.52" transform="matrix(0.93, 0.37, -0.37, 0.93, -86.22, 18.32)"/></g><g class="c"><path class="h" d="M582.46,371.11l28.42,19.16a.27.27,0,0,1-.1.49l-23.32,4.45a.26.26,0,0,1-.31-.21l-4.53-23.69a.27.27,0,0,0-.32-.21l-65.91,12.6a.27.27,0,0,0-.21.31L539.1,503.88a.27.27,0,0,0,.31.22l90.13-17.24a.27.27,0,0,0,.22-.31l-18.32-95.81a.25.25,0,0,0-.11-.17Z" transform="translate(-110.23 100.13)"/><text class="i" transform="matrix(0.98, -0.19, 0.19, 0.98, 449.05, 538.05)">£</text><rect class="f" x="562.69" y="461.91" width="47.72" height="2.51" rx="0.35" transform="translate(-186.78 218.52) rotate(-10.82)"/><rect class="f" x="564.77" y="472.8" width="47.72" height="2.51" rx="0.35" transform="translate(-188.79 219.11) rotate(-10.82)"/><rect class="f" x="556.67" y="452.09" width="44.4" height="2.51" rx="0.35" transform="translate(-185.07 216.91) rotate(-10.82)"/><path class="f" d="M564.45,461.67l.33.58a4.51,4.51,0,0,0,3.54,2.33l.67.07a4.54,4.54,0,0,1,4.07,5.09l-.08.66a4.52,4.52,0,0,0,1.5,4l.5.44a4.55,4.55,0,0,1,.3,6.52l-.45.48a4.57,4.57,0,0,0-1.13,4.1l.15.65a4.54,4.54,0,0,1-3.58,5.45l-.66.12a4.56,4.56,0,0,0-3.31,2.65l-.27.62a4.53,4.53,0,0,1-6.09,2.3l-.61-.28a4.55,4.55,0,0,0-4.24.19l-.58.34a4.52,4.52,0,0,1-6.28-1.72l-.33-.58a4.51,4.51,0,0,0-3.54-2.33l-.67-.07a4.53,4.53,0,0,1-4.07-5.09l.08-.66a4.52,4.52,0,0,0-1.5-4l-.5-.44a4.53,4.53,0,0,1-.3-6.51l.45-.49A4.56,4.56,0,0,0,539,472l-.15-.66a4.54,4.54,0,0,1,3.58-5.45l.66-.12a4.56,4.56,0,0,0,3.31-2.65l.27-.62a4.53,4.53,0,0,1,6.09-2.3l.61.28a4.55,4.55,0,0,0,4.24-.19l.58-.34A4.53,4.53,0,0,1,564.45,461.67Z" transform="translate(-110.23 100.13)"/><path class="f" d="M554.27,490.33l-.23.75c-1.5,4.85-2.3,4.63-1.12-.31l.18-.76Z" transform="translate(-110.23 100.13)"/><polygon class="f" points="446.18 583.42 445.3 586.4 444.96 587.49 443.59 587.11 443.85 586 444.62 582.99 446.18 583.42"/><polygon class="f" points="448.63 575.13 447.24 579.83 445.53 579.36 446.73 574.62 448.63 575.13"/><path class="f" d="M558.46,468.55c1.38-5.68,1.81-5.22,2.53-5h0c.71.2,1.31,0-.39,5.61Z" transform="translate(-110.23 100.13)"/><path class="f" d="M560.23,475.64c-.47,1.84-4.21,2.24-4.59,3.56-.31,1.12,2.39,2.39,2.09,4-.41,2.13-3.61,2.25-4.06,3.69s2.26,2.74,1.82,3.69a1.48,1.48,0,0,1-1.87.71c-.86-.23,2-.6.71-1.56-.83-.63-2.57-2.46-1.06-4.1,1-1.06,3.12-1.41,3.28-2.46.2-1.29-2.9-2.9-2.3-4.81.43-1.36,4.59-2.09,4.73-3.41.28-2.66-3.42-3.81-2.54-7.27.59-2.34,4.89-2.52,5.47-1.05,1,2.59-3.46-.91-4,1.8C557.66,469.8,561.2,471.84,560.23,475.64Z" transform="translate(-110.23 100.13)"/><polygon class="f" points="444.96 587.49 444.04 590.46 442.87 590.13 443.59 587.11 444.96 587.49"/><polygon class="f" points="447.24 579.83 446.18 583.42 444.62 582.99 445.53 579.36 447.24 579.83"/><path class="f" d="M560.6,469.13c0,.12-.07.24-.11.36L558.86,475l-1.9-.52,1.41-5.58.09-.36Z" transform="translate(-110.23 100.13)"/></g><g class="j"><rect class="k" x="294.79" y="86.95" width="30.21" height="3.16"/><rect class="k" x="239.06" y="91.95" width="33.12" height="3.16"/><rect class="k" x="347.72" y="61.82" width="62.7" height="3.16" transform="translate(647.89 226.94) rotate(180)"/><rect class="k" x="237.9" y="116.95" width="62.7" height="3.16"/><rect class="k" x="237.48" y="186.95" width="62.7" height="3.16"/><rect class="k" x="294.79" y="156.95" width="30.21" height="3.16"/><rect class="k" x="237.89" y="141.95" width="68.27" height="3.16"/><rect class="k" x="237.9" y="101.95" width="107.8" height="3.16"/><rect class="k" x="237.48" y="171.9" width="107.8" height="3.16"/><rect class="k" x="314.37" y="121.95" width="18.47" height="3.16"/><rect class="k" x="239.06" y="81.95" width="33.12" height="3.16"/><rect class="k" x="260.09" y="86.95" width="33.12" height="3.16"/><rect class="k" x="303.34" y="116.95" width="33.12" height="3.16"/><rect class="k" x="273.77" y="91.95" width="62.7" height="3.16"/><rect class="k" x="411.99" y="61.82" width="33.12" height="3.16" transform="translate(746.88 226.94) rotate(180)"/><rect class="k" x="252.01" y="121.95" width="59.37" height="3.16"/><rect class="k" x="254.41" y="126.95" width="51.63" height="3.16"/><rect class="k" x="302.92" y="186.95" width="33.12" height="3.16"/><rect class="k" x="348.13" y="36.82" width="35.9" height="3.16" transform="translate(621.94 176.94) rotate(180)"/><rect class="k" x="387.69" y="36.82" width="68.27" height="3.16" transform="translate(733.41 176.94) rotate(180)"/><rect class="k" x="309.81" y="141.95" width="35.9" height="3.16"/><rect class="k" x="237.9" y="96.95" width="107.8" height="3.16"/><rect class="k" x="237.48" y="166.9" width="107.8" height="3.16"/><rect class="k" x="327.23" y="86.95" width="18.47" height="3.16"/><rect class="k" x="260.09" y="156.95" width="33.12" height="3.16"/><rect class="k" x="327.23" y="156.95" width="18.47" height="3.16"/><rect class="k" x="335.24" y="121.95" width="10.46" height="3.16"/><rect class="k" x="237.9" y="121.95" width="11.36" height="3.16"/><rect class="k" x="275.06" y="81.95" width="36.29" height="3.16"/><rect class="k" x="261.73" y="176.95" width="42.31" height="3.16"/><rect class="k" x="306.91" y="176.95" width="36.29" height="3.16"/><rect class="k" x="237.48" y="151.95" width="36.58" height="3.16"/><rect class="k" x="277.45" y="151.95" width="39.86" height="3.16"/><rect class="k" x="405.06" y="6.82" width="33.12" height="3.16" transform="translate(733 116.94) rotate(180)"/><rect class="k" x="365.89" y="6.82" width="36.29" height="3.16" transform="translate(657.84 116.94) rotate(180)"/><rect class="k" x="215.06" y="81.95" width="18.99" height="3.16"/><rect class="k" x="215.06" y="86.95" width="18.99" height="3.16"/><rect class="k" x="215.06" y="91.95" width="18.99" height="3.16"/><rect class="k" x="215.06" y="96.95" width="18.99" height="3.16"/><rect class="k" x="215.06" y="101.95" width="18.99" height="3.16"/><rect class="k" x="215.06" y="111.95" width="18.99" height="3.16"/><rect class="k" x="215.06" y="116.95" width="18.99" height="3.16"/><rect class="k" x="215.06" y="136.95" width="18.99" height="3.16"/><rect class="k" x="215.06" y="141.95" width="18.99" height="3.16"/><rect class="k" x="215.06" y="151.95" width="18.99" height="3.16"/><rect class="k" x="215.06" y="156.95" width="18.99" height="3.16"/><rect class="k" x="215.06" y="161.95" width="18.99" height="3.16"/><rect class="k" x="215.06" y="166.95" width="18.99" height="3.16"/><rect class="k" x="215.06" y="171.95" width="18.99" height="3.16"/><rect class="k" x="215.06" y="181.95" width="18.99" height="3.16"/><rect class="k" x="215.06" y="186.95" width="18.99" height="3.16"/></g><g class="j"><path class="k" d="M212.82,236.46V221.75H201.39a24.26,24.26,0,0,0-1.76-4.16l8.11-8.11-10.4-10.4-8.27,8.27a25.28,25.28,0,0,0-4-1.57V194h-14.7v12.1a23.92,23.92,0,0,0-3.67,1.59l-8.6-8.61-10.4,10.4,8.77,8.77a24.93,24.93,0,0,0-1.43,3.5H142.6v14.71H155a24.93,24.93,0,0,0,1.43,3.5l-8.77,8.77,10.4,10.4,8.6-8.61a25,25,0,0,0,3.67,1.6v12.09h14.7V252.43a23.5,23.5,0,0,0,4-1.57l8.27,8.27,10.4-10.4-8.11-8.11a24.26,24.26,0,0,0,1.76-4.16Zm-52-7.35A17.14,17.14,0,1,1,178,246.49,17.38,17.38,0,0,1,160.82,229.11Z" transform="translate(-110.23 100.13)"/><circle class="k" cx="67.48" cy="329.24" r="12.26"/><path class="k" d="M258.79,265.64V255.35h-8a17.44,17.44,0,0,0-1.24-2.91l5.68-5.68L248,239.49l-5.79,5.78a17.9,17.9,0,0,0-2.8-1.1v-8.24H229.08v8.47a16.22,16.22,0,0,0-2.56,1.11l-6-6-7.28,7.27,6.14,6.14a16.3,16.3,0,0,0-1,2.45h-8.7v10.29h8.7a16.42,16.42,0,0,0,1,2.46l-6.14,6.13,7.28,7.28,6-6a16.22,16.22,0,0,0,2.56,1.11v8.47h10.29v-8.25a16.13,16.13,0,0,0,2.8-1.1l5.79,5.79,7.28-7.28-5.68-5.67a17.54,17.54,0,0,0,1.24-2.92Zm-36.38-5.14a12,12,0,1,1,12,12.16A12.16,12.16,0,0,1,222.41,260.5Z" transform="translate(-110.23 100.13)"/><circle class="k" cx="123.99" cy="360.63" r="8.58"/></g><g class="j"><polygon class="k" points="302.46 536.2 288.46 512.67 264.54 526.08 264.54 499.26 236.55 499.26 236.55 526.08 212.63 512.67 198.63 536.2 222.56 549.61 198.63 563.02 212.63 586.55 236.55 573.14 236.55 599.96 264.54 599.96 264.54 573.14 288.46 586.55 302.46 563.02 278.53 549.61 302.46 536.2"/><path class="l" d="M362.09,478.74l-.06,2c-.43,12.89-2.62,12.89-3,0l-.07-2Z" transform="translate(-110.23 100.13)"/><polygon class="m" points="252.39 560.19 252.23 568.09 252.13 570.98 248.41 570.98 248.31 568.09 248.15 560.19 252.39 560.19"/><polygon class="n" points="252.84 538.26 252.59 550.68 247.95 550.68 247.7 538.26 252.84 538.26"/><path class="o" d="M357.6,422.57c-.44-14.84,1-14,2.9-14h0c1.93,0,3.34-.84,2.91,14Z" transform="translate(-110.23 100.13)"/><path class="p" d="M367,438.76c.1,4.83-9.08,8.31-9.11,11.81,0,2.95,7.68,4.24,8,8.44.45,5.48-7.55,7.93-7.68,11.76-.12,3.64,7.59,5.2,7.15,7.83-.3,1.83-2,3-4.24,3s4.61-2.8.72-4.32c-2.53-1-8.19-4.3-5.52-9.32,1.72-3.25,6.92-5.54,6.59-8.22-.4-3.3-9.33-5.17-9.12-10.26.14-3.62,10.13-8.19,9.57-11.51-1.13-6.71-11.28-7.05-11.45-16.13-.11-6.12,10.62-9.45,13.08-6.24,4.35,5.69-9.37.1-8.81,7.11C356.46,426.19,366.78,428.8,367,438.76Z" transform="translate(-110.23 100.13)"/><polygon class="q" points="252.13 570.98 251.86 578.87 248.68 578.87 248.41 570.98 252.13 570.98"/><polygon class="r" points="252.59 550.68 252.39 560.19 248.15 560.19 247.95 550.68 252.59 550.68"/><path class="s" d="M363.41,422.57l0,.95-.3,14.61h-5.15l-.3-14.61,0-.95Z" transform="translate(-110.23 100.13)"/></g><path class="t" d="M443.61,347.11a30.7,30.7,0,0,1,.26-4H401.28a30.7,30.7,0,0,1,.26,4c0,14.59-10.15,26.42-22.67,26.42V375h87.41v-1.46C453.76,373.53,443.61,361.7,443.61,347.11Z" transform="translate(-110.23 100.13)"/><rect class="u" x="133.27" y="225.54" width="358.15" height="217.72" rx="12"/><path class="v" d="M145.29,225.54H479.39a12,12,0,0,1,12,12V394a0,0,0,0,1,0,0H133.27a0,0,0,0,1,0,0V237.56A12,12,0,0,1,145.29,225.54Z"/><rect class="w" x="139.91" y="241.7" width="344.87" height="146.33"/><rect class="x" x="133.27" y="393.99" width="358.15" height="1.41"/><rect class="y" x="297.3" y="231.47" width="28.21" height="5.24" rx="2.18"/><path class="z" d="M428.86,318.07a8.54,8.54,0,0,1,.66-3.28,11.63,11.63,0,1,0,4.54,11.1A8.48,8.48,0,0,1,428.86,318.07Z" transform="translate(-110.23 100.13)"/><ellipse class="aa" cx="426.3" cy="304.95" rx="6.54" ry="2.37" transform="translate(-201 490.88) rotate(-45)"/><polygon class="k" points="407.41 355.84 403.78 349.54 397.56 353.13 397.56 345.95 390.29 345.95 390.29 353.13 384.07 349.54 380.44 355.84 386.65 359.42 380.44 363.01 384.07 369.31 390.29 365.72 390.29 372.9 397.56 372.9 397.56 365.72 403.78 369.31 407.41 363.01 401.2 359.42 407.41 355.84"/><path class="w" d="M504.5,267.13l0,.53c-.11,3.45-.68,3.45-.79,0l0-.53Z" transform="translate(-110.23 100.13)"/><polygon class="w" points="394.4 362.26 394.36 364.37 394.34 365.14 393.37 365.14 393.35 364.37 393.3 362.26 394.4 362.26"/><polygon class="w" points="394.52 356.39 394.46 359.71 393.25 359.71 393.19 356.39 394.52 356.39"/><path class="w" d="M503.33,252.1c-.11-4,.26-3.75.76-3.75h0c.5,0,.86-.23.75,3.75Z" transform="translate(-110.23 100.13)"/><path class="w" d="M505.77,256.43c0,1.29-2.36,2.22-2.37,3.16s2,1.13,2.09,2.26c.11,1.46-2,2.12-2,3.14s2,1.39,1.86,2.1a1,1,0,0,1-1.1.8c-.61,0,1.19-.75.18-1.15-.65-.27-2.12-1.15-1.43-2.5.45-.87,1.8-1.48,1.71-2.2-.1-.88-2.42-1.38-2.37-2.74,0-1,2.63-2.2,2.49-3.09-.29-1.79-2.93-1.88-3-4.31,0-1.64,2.75-2.53,3.39-1.67,1.13,1.52-2.43,0-2.29,1.9C503,253.06,505.72,253.76,505.77,256.43Z" transform="translate(-110.23 100.13)"/><polygon class="w" points="394.34 365.14 394.27 367.25 393.44 367.25 393.37 365.14 394.34 365.14"/><polygon class="w" points="394.46 359.71 394.4 362.26 393.3 362.26 393.25 359.71 394.46 359.71"/><path class="w" d="M504.84,252.1a2.18,2.18,0,0,1,0,.25l-.07,3.91h-1.34l-.08-3.91c0-.09,0-.17,0-.25Z" transform="translate(-110.23 100.13)"/><rect class="ab" x="247.95" y="266.48" width="30.21" height="3.16"/><rect class="ab" x="192.23" y="271.48" width="33.12" height="3.16"/><rect class="ab" x="300.88" y="241.35" width="62.7" height="3.16" transform="translate(554.22 586) rotate(180)"/><rect class="ab" x="191.06" y="296.48" width="62.7" height="3.16"/><rect class="ab" x="190.64" y="366.48" width="62.7" height="3.16"/><rect class="ab" x="247.95" y="336.48" width="30.21" height="3.16"/><rect class="ac" x="191.06" y="321.48" width="68.27" height="3.16"/><rect class="ac" x="191.06" y="281.48" width="107.8" height="3.16"/><rect class="ac" x="190.64" y="351.43" width="107.8" height="3.16"/><rect class="ac" x="267.54" y="301.48" width="18.47" height="3.16"/><rect class="ad" x="192.23" y="261.48" width="33.12" height="3.16"/><rect class="ad" x="213.25" y="266.48" width="33.12" height="3.16"/><rect class="ad" x="256.51" y="296.48" width="33.12" height="3.16"/><rect class="ad" x="226.93" y="271.48" width="62.7" height="3.16"/><rect class="ad" x="365.16" y="241.35" width="33.12" height="3.16" transform="translate(653.2 586) rotate(180)"/><rect class="ad" x="205.17" y="301.48" width="59.37" height="3.16"/><rect class="ad" x="207.57" y="306.48" width="51.63" height="3.16"/><rect class="ad" x="256.09" y="366.48" width="33.12" height="3.16"/><rect class="ad" x="301.3" y="216.35" width="35.9" height="3.16" transform="translate(528.26 536) rotate(180)"/><rect class="ad" x="340.85" y="216.35" width="68.27" height="3.16" transform="translate(639.73 536) rotate(180)"/><rect class="ad" x="262.97" y="321.48" width="35.9" height="3.16"/><rect class="ad" x="191.06" y="276.48" width="107.8" height="3.16"/><rect class="ad" x="190.64" y="346.43" width="107.8" height="3.16"/><rect class="ad" x="280.39" y="266.48" width="18.47" height="3.16"/><rect class="ad" x="213.25" y="336.48" width="33.12" height="3.16"/><rect class="ad" x="280.39" y="336.48" width="18.47" height="3.16"/><rect class="ad" x="288.41" y="301.48" width="10.46" height="3.16"/><rect class="ad" x="191.06" y="301.48" width="11.36" height="3.16"/><rect class="ad" x="228.23" y="261.48" width="36.29" height="3.16"/><rect class="ad" x="214.89" y="356.48" width="42.31" height="3.16"/><rect class="ad" x="260.07" y="356.48" width="36.29" height="3.16"/><rect class="ad" x="190.64" y="331.48" width="36.58" height="3.16"/><rect class="ad" x="230.62" y="331.48" width="39.86" height="3.16"/><rect class="ad" x="358.22" y="186.35" width="33.12" height="3.16" transform="translate(639.33 476) rotate(180)"/><rect class="ad" x="319.05" y="186.35" width="36.29" height="3.16" transform="translate(564.16 476) rotate(180)"/><rect class="ae" x="168.23" y="261.48" width="18.99" height="3.16"/><rect class="af" x="168.23" y="266.48" width="18.99" height="3.16"/><rect class="af" x="168.23" y="271.48" width="18.99" height="3.16"/><rect class="af" x="168.23" y="276.48" width="18.99" height="3.16"/><rect class="af" x="168.23" y="281.48" width="18.99" height="3.16"/><rect class="af" x="168.23" y="291.48" width="18.99" height="3.16"/><rect class="ae" x="168.23" y="296.48" width="18.99" height="3.16"/><rect class="af" x="168.23" y="316.48" width="18.99" height="3.16"/><rect class="af" x="168.23" y="321.48" width="18.99" height="3.16"/><rect class="ae" x="168.23" y="331.48" width="18.99" height="3.16"/><rect class="af" x="168.23" y="336.48" width="18.99" height="3.16"/><rect class="af" x="168.23" y="341.48" width="18.99" height="3.16"/><rect class="af" x="168.23" y="346.48" width="18.99" height="3.16"/><rect class="af" x="168.23" y="351.48" width="18.99" height="3.16"/><rect class="af" x="168.23" y="361.48" width="18.99" height="3.16"/><rect class="ae" x="168.23" y="366.48" width="18.99" height="3.16"/><rect class="ag" x="146.69" y="261.48" width="4.13" height="3.16"/><rect class="ag" x="146.69" y="266.48" width="4.13" height="3.16"/><rect class="ag" x="146.69" y="271.48" width="4.13" height="3.16"/><rect class="ag" x="146.69" y="276.48" width="4.13" height="3.16"/><rect class="ag" x="146.69" y="281.48" width="4.13" height="3.16"/><rect class="ag" x="146.69" y="286.48" width="4.13" height="3.16"/><rect class="ag" x="146.69" y="291.48" width="4.13" height="3.16"/><rect class="ag" x="146.69" y="296.48" width="4.13" height="3.16"/><rect class="ag" x="146.69" y="301.48" width="4.13" height="3.16"/><rect class="ag" x="146.69" y="306.48" width="4.13" height="3.16"/><rect class="ag" x="146.69" y="311.48" width="4.13" height="3.16"/><rect class="ag" x="146.69" y="316.48" width="4.13" height="3.16"/><rect class="k" x="443.89" y="187.12" width="57.89" height="2.43" transform="translate(835.44 476.81) rotate(180)"/><rect class="k" x="443.89" y="190.96" width="57.89" height="2.43" transform="translate(835.44 484.48) rotate(180)"/><rect class="ac" x="504.73" y="190.96" width="14.58" height="2.43" transform="translate(913.82 484.48) rotate(180)"/><rect class="ac" x="504.73" y="187.12" width="14.58" height="2.43" transform="translate(913.82 476.81) rotate(180)"/><rect class="k" x="443.89" y="196.69" width="57.89" height="2.43" transform="translate(835.44 495.94) rotate(180)"/><rect class="k" x="443.89" y="200.53" width="57.89" height="2.43" transform="translate(835.44 503.62) rotate(180)"/><rect class="k" x="504.73" y="200.53" width="14.58" height="2.43" transform="translate(913.82 503.62) rotate(180)"/><rect class="k" x="504.73" y="196.69" width="14.58" height="2.43" transform="translate(913.82 495.94) rotate(180)"/><rect class="ac" x="444.04" y="206.26" width="57.89" height="2.43" transform="translate(835.74 515.08) rotate(180)"/><rect class="ac" x="444.04" y="210.1" width="57.89" height="2.43" transform="translate(835.74 522.76) rotate(180)"/><rect class="k" x="504.89" y="210.1" width="14.58" height="2.43" transform="translate(914.12 522.76) rotate(180)"/><rect class="k" x="504.89" y="206.26" width="14.58" height="2.43" transform="translate(914.12 515.08) rotate(180)"/><rect class="k" x="444.04" y="215.83" width="57.89" height="2.43" transform="translate(835.74 534.22) rotate(180)"/><rect class="k" x="444.04" y="219.67" width="57.89" height="2.43" transform="translate(835.74 541.9) rotate(180)"/><rect class="ac" x="504.89" y="219.67" width="14.58" height="2.43" transform="translate(914.12 541.9) rotate(180)"/><rect class="ac" x="504.89" y="215.83" width="14.58" height="2.43" transform="translate(914.12 534.22) rotate(180)"/><rect class="k" x="444.04" y="225.4" width="57.89" height="2.43" transform="translate(835.74 553.36) rotate(180)"/><rect class="k" x="444.04" y="229.24" width="57.89" height="2.43" transform="translate(835.74 561.04) rotate(180)"/><rect class="ac" x="504.89" y="229.24" width="14.58" height="2.43" transform="translate(914.12 561.04) rotate(180)"/><rect class="ac" x="504.89" y="225.4" width="14.58" height="2.43" transform="translate(914.12 553.36) rotate(180)"/><rect class="ac" x="460.78" y="261.97" width="6.9" height="0.72"/><rect class="ac" x="448.05" y="263.12" width="7.57" height="0.72"/><rect class="ac" x="557.93" y="178.98" width="14.32" height="0.72" transform="translate(1019.94 458.81) rotate(180)"/><rect class="ac" x="447.79" y="268.83" width="14.32" height="0.72"/><rect class="ac" x="447.69" y="284.82" width="14.32" height="0.72"/><rect class="ac" x="460.78" y="277.96" width="6.9" height="0.72"/><rect class="ac" x="447.79" y="274.54" width="15.59" height="0.72"/><rect class="ac" x="447.79" y="265.4" width="24.62" height="0.72"/><rect class="ac" x="447.69" y="281.38" width="24.62" height="0.72"/><rect class="ac" x="465.26" y="269.97" width="4.22" height="0.72"/><rect class="ac" x="448.05" y="260.83" width="7.57" height="0.72"/><rect class="ac" x="452.86" y="261.97" width="7.57" height="0.72"/><rect class="ac" x="462.74" y="268.83" width="7.57" height="0.72"/><rect class="ac" x="455.98" y="263.12" width="14.32" height="0.72"/><rect class="ac" x="572.61" y="178.98" width="7.57" height="0.72" transform="translate(1042.55 458.81) rotate(180)"/><rect class="ac" x="451.01" y="269.97" width="13.56" height="0.72"/><rect class="ac" x="451.56" y="271.11" width="11.79" height="0.72"/><rect class="ac" x="462.64" y="284.82" width="7.57" height="0.72"/><rect class="ac" x="558.02" y="173.27" width="8.2" height="0.72" transform="translate(1014.01 447.39) rotate(180)"/><rect class="ac" x="567.06" y="173.27" width="15.59" height="0.72" transform="translate(1039.47 447.39) rotate(180)"/><rect class="ac" x="464.21" y="274.54" width="8.2" height="0.72"/><rect class="ac" x="447.79" y="264.26" width="24.62" height="0.72"/><rect class="ac" x="447.69" y="280.24" width="24.62" height="0.72"/><rect class="ac" x="468.19" y="261.97" width="4.22" height="0.72"/><rect class="ac" x="452.86" y="277.96" width="7.57" height="0.72"/><rect class="ac" x="468.19" y="277.96" width="4.22" height="0.72"/><rect class="ac" x="470.02" y="269.97" width="2.39" height="0.72"/><rect class="ac" x="447.79" y="269.97" width="2.6" height="0.72"/><rect class="ac" x="456.28" y="260.83" width="8.29" height="0.72"/><rect class="ac" x="453.23" y="282.53" width="9.66" height="0.72"/><rect class="ac" x="463.55" y="282.53" width="8.29" height="0.72"/><rect class="ac" x="447.69" y="276.82" width="8.35" height="0.72"/><rect class="ac" x="456.82" y="276.82" width="9.1" height="0.72"/><rect class="ac" x="571.02" y="166.42" width="7.57" height="0.72" transform="translate(1039.38 433.68) rotate(180)"/><rect class="ac" x="562.08" y="166.42" width="8.29" height="0.72" transform="translate(1022.21 433.68) rotate(180)"/><rect class="ac" x="442.57" y="260.83" width="4.34" height="0.72"/><rect class="ac" x="442.57" y="261.97" width="4.34" height="0.72"/><rect class="ac" x="442.57" y="263.12" width="4.34" height="0.72"/><rect class="ac" x="442.57" y="264.26" width="4.34" height="0.72"/><rect class="ac" x="442.57" y="265.4" width="4.34" height="0.72"/><rect class="ac" x="442.57" y="267.69" width="4.34" height="0.72"/><rect class="ac" x="442.57" y="268.83" width="4.34" height="0.72"/><rect class="ac" x="442.57" y="273.4" width="4.34" height="0.72"/><rect class="ac" x="442.57" y="274.54" width="4.34" height="0.72"/><rect class="ac" x="442.57" y="276.82" width="4.34" height="0.72"/><rect class="ac" x="442.57" y="277.96" width="4.34" height="0.72"/><rect class="ac" x="442.57" y="279.11" width="4.34" height="0.72"/><rect class="ac" x="442.57" y="280.25" width="4.34" height="0.72"/><rect class="ac" x="442.57" y="281.39" width="4.34" height="0.72"/><rect class="ac" x="442.57" y="283.67" width="4.34" height="0.72"/><rect class="ac" x="442.57" y="284.82" width="4.34" height="0.72"/><rect class="ad" x="460.74" y="289.76" width="6.9" height="0.72"/><rect class="ad" x="448.02" y="290.9" width="7.57" height="0.72"/><rect class="ad" x="557.89" y="206.76" width="14.32" height="0.72" transform="translate(1019.86 514.38) rotate(180)"/><rect class="ad" x="447.75" y="296.61" width="14.32" height="0.72"/><rect class="ad" x="447.65" y="312.6" width="14.32" height="0.72"/><rect class="ad" x="460.74" y="305.75" width="6.9" height="0.72"/><rect class="ad" x="447.75" y="302.32" width="15.59" height="0.72"/><rect class="ad" x="447.75" y="293.19" width="24.62" height="0.72"/><rect class="ad" x="447.65" y="309.16" width="24.62" height="0.72"/><rect class="ad" x="465.22" y="297.76" width="4.22" height="0.72"/><rect class="ad" x="448.02" y="288.62" width="7.57" height="0.72"/><rect class="ad" x="452.82" y="289.76" width="7.57" height="0.72"/><rect class="ad" x="462.7" y="296.61" width="7.57" height="0.72"/><rect class="ad" x="455.94" y="290.9" width="14.32" height="0.72"/><rect class="ad" x="572.57" y="206.76" width="7.57" height="0.72" transform="translate(1042.47 514.38) rotate(180)"/><rect class="ad" x="450.97" y="297.76" width="13.56" height="0.72"/><rect class="ad" x="451.52" y="298.9" width="11.79" height="0.72"/><rect class="ad" x="462.6" y="312.6" width="7.57" height="0.72"/><rect class="ad" x="557.98" y="201.05" width="8.2" height="0.72" transform="translate(1013.93 502.96) rotate(180)"/><rect class="ad" x="567.02" y="201.05" width="15.59" height="0.72" transform="translate(1039.4 502.96) rotate(180)"/><rect class="ad" x="464.18" y="302.32" width="8.2" height="0.72"/><rect class="ad" x="447.75" y="292.05" width="24.62" height="0.72"/><rect class="ad" x="447.65" y="308.02" width="24.62" height="0.72"/><rect class="ad" x="468.15" y="289.76" width="4.22" height="0.72"/><rect class="ad" x="452.82" y="305.75" width="7.57" height="0.72"/><rect class="ad" x="468.15" y="305.75" width="4.22" height="0.72"/><rect class="ad" x="469.98" y="297.76" width="2.39" height="0.72"/><rect class="ad" x="447.75" y="297.76" width="2.6" height="0.72"/><rect class="ad" x="456.24" y="288.62" width="8.29" height="0.72"/><rect class="ad" x="453.19" y="310.32" width="9.66" height="0.72"/><rect class="ad" x="463.51" y="310.32" width="8.29" height="0.72"/><rect class="ad" x="447.65" y="304.61" width="8.35" height="0.72"/><rect class="ad" x="456.78" y="304.61" width="9.1" height="0.72"/><rect class="ad" x="570.99" y="194.2" width="7.57" height="0.72" transform="translate(1039.3 489.25) rotate(180)"/><rect class="ad" x="562.04" y="194.2" width="8.29" height="0.72" transform="translate(1022.13 489.25) rotate(180)"/><rect class="ad" x="442.53" y="288.62" width="4.34" height="0.72"/><rect class="ad" x="442.53" y="289.76" width="4.34" height="0.72"/><rect class="ad" x="442.53" y="290.9" width="4.34" height="0.72"/><rect class="ad" x="442.53" y="292.05" width="4.34" height="0.72"/><rect class="ad" x="442.53" y="293.19" width="4.34" height="0.72"/><rect class="ad" x="442.53" y="295.47" width="4.34" height="0.72"/><rect class="ad" x="442.53" y="296.61" width="4.34" height="0.72"/><rect class="ad" x="442.53" y="301.18" width="4.34" height="0.72"/><rect class="ad" x="442.53" y="302.32" width="4.34" height="0.72"/><rect class="ad" x="442.53" y="304.61" width="4.34" height="0.72"/><rect class="ad" x="442.53" y="305.75" width="4.34" height="0.72"/><rect class="ad" x="442.53" y="306.89" width="4.34" height="0.72"/><rect class="ad" x="442.53" y="308.03" width="4.34" height="0.72"/><rect class="ad" x="442.53" y="309.18" width="4.34" height="0.72"/><rect class="ad" x="442.53" y="311.46" width="4.34" height="0.72"/><rect class="ad" x="442.53" y="312.6" width="4.34" height="0.72"/><rect class="ae" x="460.73" y="317.55" width="6.9" height="0.72"/><rect class="ae" x="448" y="318.69" width="7.57" height="0.72"/><rect class="ae" x="557.87" y="234.55" width="14.32" height="0.72" transform="translate(1019.82 569.95) rotate(180)"/><rect class="ae" x="447.73" y="324.4" width="14.32" height="0.72"/><rect class="ae" x="447.64" y="340.39" width="14.32" height="0.72"/><rect class="ae" x="460.73" y="333.54" width="6.9" height="0.72"/><rect class="ae" x="447.73" y="330.11" width="15.59" height="0.72"/><rect class="ae" x="447.73" y="320.97" width="24.62" height="0.72"/><rect class="ae" x="447.64" y="336.95" width="24.62" height="0.72"/><rect class="ae" x="465.2" y="325.54" width="4.22" height="0.72"/><rect class="ae" x="448" y="316.41" width="7.57" height="0.72"/><rect class="ae" x="452.8" y="317.55" width="7.57" height="0.72"/><rect class="ae" x="462.68" y="324.4" width="7.57" height="0.72"/><rect class="ae" x="455.92" y="318.69" width="14.32" height="0.72"/><rect class="ae" x="572.55" y="234.55" width="7.57" height="0.72" transform="translate(1042.43 569.95) rotate(180)"/><rect class="ae" x="450.95" y="325.54" width="13.56" height="0.72"/><rect class="ae" x="451.5" y="326.68" width="11.79" height="0.72"/><rect class="ae" x="462.58" y="340.39" width="7.57" height="0.72"/><rect class="ae" x="557.96" y="228.84" width="8.2" height="0.72" transform="translate(1013.9 558.53) rotate(180)"/><rect class="ae" x="567" y="228.84" width="15.59" height="0.72" transform="translate(1039.36 558.53) rotate(180)"/><rect class="ae" x="464.16" y="330.11" width="8.2" height="0.72"/><rect class="ae" x="447.73" y="319.83" width="24.62" height="0.72"/><rect class="ae" x="447.64" y="335.81" width="24.62" height="0.72"/><rect class="ae" x="468.13" y="317.55" width="4.22" height="0.72"/><rect class="ae" x="452.8" y="333.54" width="7.57" height="0.72"/><rect class="ae" x="468.13" y="333.54" width="4.22" height="0.72"/><rect class="ae" x="469.97" y="325.54" width="2.39" height="0.72"/><rect class="ae" x="447.73" y="325.54" width="2.6" height="0.72"/><rect class="ae" x="456.22" y="316.41" width="8.29" height="0.72"/><rect class="ae" x="453.17" y="338.1" width="9.66" height="0.72"/><rect class="ae" x="463.49" y="338.1" width="8.29" height="0.72"/><rect class="ae" x="447.64" y="332.39" width="8.35" height="0.72"/><rect class="ae" x="456.76" y="332.39" width="9.1" height="0.72"/><rect class="ae" x="570.97" y="221.99" width="7.57" height="0.72" transform="translate(1039.26 544.83) rotate(180)"/><rect class="ae" x="562.02" y="221.99" width="8.29" height="0.72" transform="translate(1022.1 544.83) rotate(180)"/><rect class="ae" x="442.51" y="316.41" width="4.34" height="0.72"/><rect class="ae" x="442.51" y="317.55" width="4.34" height="0.72"/><rect class="ae" x="442.51" y="318.69" width="4.34" height="0.72"/><rect class="ae" x="442.51" y="319.83" width="4.34" height="0.72"/><rect class="ae" x="442.51" y="320.97" width="4.34" height="0.72"/><rect class="ae" x="442.51" y="323.26" width="4.34" height="0.72"/><rect class="ae" x="442.51" y="324.4" width="4.34" height="0.72"/><rect class="ae" x="442.51" y="328.97" width="4.34" height="0.72"/><rect class="ae" x="442.51" y="330.11" width="4.34" height="0.72"/><rect class="ae" x="442.51" y="332.39" width="4.34" height="0.72"/><rect class="ae" x="442.51" y="333.54" width="4.34" height="0.72"/><rect class="ae" x="442.51" y="334.68" width="4.34" height="0.72"/><rect class="ae" x="442.51" y="335.82" width="4.34" height="0.72"/><rect class="ae" x="442.51" y="336.96" width="4.34" height="0.72"/><rect class="ae" x="442.51" y="339.25" width="4.34" height="0.72"/><rect class="ae" x="442.51" y="340.39" width="4.34" height="0.72"/><rect class="ad" x="460.69" y="345.33" width="6.9" height="0.72"/><rect class="ad" x="447.96" y="346.48" width="7.57" height="0.72"/><rect class="ad" x="557.83" y="262.34" width="14.32" height="0.72" transform="translate(1019.75 625.53) rotate(180)"/><rect class="ad" x="447.69" y="352.19" width="14.32" height="0.72"/><rect class="ad" x="447.6" y="368.18" width="14.32" height="0.72"/><rect class="ad" x="460.69" y="361.32" width="6.9" height="0.72"/><rect class="ad" x="447.69" y="357.9" width="15.59" height="0.72"/><rect class="ad" x="447.69" y="348.76" width="24.62" height="0.72"/><rect class="ad" x="447.6" y="364.74" width="24.62" height="0.72"/><rect class="ad" x="465.16" y="353.33" width="4.22" height="0.72"/><rect class="ad" x="447.96" y="344.19" width="7.57" height="0.72"/><rect class="ad" x="452.76" y="345.33" width="7.57" height="0.72"/><rect class="ad" x="462.64" y="352.19" width="7.57" height="0.72"/><rect class="ad" x="455.88" y="346.48" width="14.32" height="0.72"/><rect class="ad" x="572.51" y="262.34" width="7.57" height="0.72" transform="translate(1042.36 625.53) rotate(180)"/><rect class="ad" x="450.91" y="353.33" width="13.56" height="0.72"/><rect class="ad" x="451.46" y="354.47" width="11.79" height="0.72"/><rect class="ad" x="462.54" y="368.18" width="7.57" height="0.72"/><rect class="ad" x="557.93" y="256.63" width="8.2" height="0.72" transform="translate(1013.82 614.1) rotate(180)"/><rect class="ad" x="566.96" y="256.63" width="15.59" height="0.72" transform="translate(1039.28 614.1) rotate(180)"/><rect class="ad" x="464.12" y="357.9" width="8.2" height="0.72"/><rect class="ad" x="447.69" y="347.62" width="24.62" height="0.72"/><rect class="ad" x="447.6" y="363.6" width="24.62" height="0.72"/><rect class="ad" x="468.1" y="345.33" width="4.22" height="0.72"/><rect class="ad" x="452.76" y="361.32" width="7.57" height="0.72"/><rect class="ad" x="468.1" y="361.32" width="4.22" height="0.72"/><rect class="ad" x="469.93" y="353.33" width="2.39" height="0.72"/><rect class="ad" x="447.69" y="353.33" width="2.6" height="0.72"/><rect class="ad" x="456.18" y="344.19" width="8.29" height="0.72"/><rect class="ad" x="453.13" y="365.89" width="9.66" height="0.72"/><rect class="ad" x="463.45" y="365.89" width="8.29" height="0.72"/><rect class="ad" x="447.6" y="360.18" width="8.35" height="0.72"/><rect class="ad" x="456.73" y="360.18" width="9.1" height="0.72"/><rect class="ad" x="570.93" y="249.77" width="7.57" height="0.72" transform="translate(1039.19 600.4) rotate(180)"/><rect class="ad" x="561.98" y="249.77" width="8.29" height="0.72" transform="translate(1022.02 600.4) rotate(180)"/><rect class="ad" x="442.48" y="344.19" width="4.34" height="0.72"/><rect class="ad" x="442.48" y="345.33" width="4.34" height="0.72"/><rect class="ad" x="442.48" y="346.48" width="4.34" height="0.72"/><rect class="ad" x="442.48" y="347.62" width="4.34" height="0.72"/><rect class="ad" x="442.48" y="348.76" width="4.34" height="0.72"/><rect class="ad" x="442.48" y="351.04" width="4.34" height="0.72"/><rect class="ad" x="442.48" y="352.19" width="4.34" height="0.72"/><rect class="ad" x="442.48" y="356.75" width="4.34" height="0.72"/><rect class="ad" x="442.48" y="357.9" width="4.34" height="0.72"/><rect class="ad" x="442.48" y="360.18" width="4.34" height="0.72"/><rect class="ad" x="442.48" y="361.32" width="4.34" height="0.72"/><rect class="ad" x="442.48" y="362.47" width="4.34" height="0.72"/><rect class="ad" x="442.48" y="363.61" width="4.34" height="0.72"/><rect class="ad" x="442.48" y="364.75" width="4.34" height="0.72"/><rect class="ad" x="442.48" y="367.03" width="4.34" height="0.72"/><rect class="ad" x="442.48" y="368.18" width="4.34" height="0.72"/><path class="k" d="M466.27,259.65V255h-3.65a6.8,6.8,0,0,0-.56-1.33l2.59-2.6-3.32-3.32-2.65,2.64a7.8,7.8,0,0,0-1.27-.5v-3.76h-4.7v3.86a7.66,7.66,0,0,0-1.17.51l-2.75-2.75L445.46,251l2.8,2.81a8.44,8.44,0,0,0-.45,1.12h-4v4.7h4a8.31,8.31,0,0,0,.45,1.11l-2.8,2.81,3.33,3.32,2.75-2.75a7.66,7.66,0,0,0,1.17.51v3.86h4.7v-3.76a7.8,7.8,0,0,0,1.27-.5l2.65,2.64,3.32-3.32L462.06,261a7.36,7.36,0,0,0,.56-1.33Zm-16.61-2.35a5.48,5.48,0,1,1,5.48,5.55A5.56,5.56,0,0,1,449.66,257.3Z" transform="translate(-110.23 100.13)"/><circle class="k" cx="344.82" cy="357.42" r="3.92"/><path class="k" d="M481,269v-3.29h-2.56a6.31,6.31,0,0,0-.39-.93l1.81-1.81-2.33-2.33-1.85,1.85a5.31,5.31,0,0,0-.89-.35v-2.63h-3.29v2.7a6,6,0,0,0-.82.36l-1.92-1.93-2.33,2.33,2,2a6.71,6.71,0,0,0-.32.78h-2.78V269H468a6.71,6.71,0,0,0,.32.78l-2,2,2.33,2.33,1.92-1.93a5,5,0,0,0,.82.36v2.71h3.29v-2.64a5.31,5.31,0,0,0,.89-.35L477.5,274l2.33-2.33L478,269.9a5.88,5.88,0,0,0,.39-.93Zm-11.63-1.64a3.83,3.83,0,1,1,3.83,3.88A3.89,3.89,0,0,1,469.34,267.33Z" transform="translate(-110.23 100.13)"/><circle class="k" cx="362.88" cy="367.45" r="2.74"/><text class="ah" transform="translate(347.54 276.48)">{ } { }</text></svg>