<svg xmlns="http://www.w3.org/2000/svg" xmlns:xlink="http://www.w3.org/1999/xlink" viewBox="0 0 393.63 429.65"><defs><style>.a{isolation:isolate;}.b,.d,.z{fill:#23559c;}.b,.c,.e{opacity:0.29;}.b,.c{mix-blend-mode:soft-light;}.e{fill:#a100b9;}.f{fill:#88b9cc;}.g{fill:#bad7f8;}.ad,.h{fill:#fff;}.i{fill:#6badcd;}.j{fill:#9ec8e4;}.k{fill:#9ab4e4;}.l{fill:#ed706a;}.m{fill:#1b1c52;}.n{fill:#fefefe;}.o{fill:#ffce75;}.p{fill:#5087c7;}.q{fill:#f9c974;}.ac,.am,.aq,.ar,.at,.r,.x,.y{fill:none;}.r{stroke:#985288;stroke-width:5px;}.am,.aq,.ar,.at,.r,.x,.y{stroke-miterlimit:10;}.s{fill:#f8b384;}.t{fill:#417feb;}.u{fill:#32358a;}.ad,.af,.as,.u{opacity:0.25;}.v{fill:#2b3547;}.w{fill:#ffb08c;}.x{stroke:#5b687f;}.y{stroke:#bad7f8;}.z{opacity:0.3;}.aa,.aj,.ap{fill:#72533e;}.aa,.ai{opacity:0.65;}.ab{fill:#fdd548;}.ae{fill:#ff3132;}.af{fill:#adb3bf;}.ag{fill:url(#a);}.ah{fill:#549ffb;}.aj{opacity:0.8;}.ak{fill:url(#b);}.al{fill:#55a0fb;}.am{stroke:#fff;}.an{fill:#fcfcf3;}.ao{fill:#3a70a5;opacity:0.5;}.aq{stroke:#94b3d0;stroke-width:0.4px;}.ar{stroke:url(#c);}.as{fill:#5b687f;}.at{stroke:url(#d);}.au{fill:url(#e);}</style><linearGradient id="a" x1="776.31" y1="125.89" x2="769.35" y2="144.94" gradientUnits="userSpaceOnUse"><stop offset="0" stop-color="#ff3132"/><stop offset="0.18" stop-color="#fa3a44"/><stop offset="0.53" stop-color="#ec5074"/><stop offset="1" stop-color="#d871bc"/></linearGradient><linearGradient id="b" x1="718.77" y1="172.24" x2="718.77" y2="131.73" gradientUnits="userSpaceOnUse"><stop offset="0" stop-color="#ff3132"/><stop offset="1" stop-color="#f5673c"/></linearGradient><linearGradient id="c" x1="301.11" y1="153.26" x2="315.75" y2="150.94" gradientUnits="userSpaceOnUse"><stop offset="0" stop-color="#fff"/><stop offset="0.01" stop-color="#fffff6"/><stop offset="0.05" stop-color="#ffffc8"/><stop offset="0.09" stop-color="#ffff9d"/><stop offset="0.14" stop-color="#ff7"/><stop offset="0.2" stop-color="#ffff57"/><stop offset="0.25" stop-color="#ffff3b"/><stop offset="0.32" stop-color="#ffff25"/><stop offset="0.4" stop-color="#ffff14"/><stop offset="0.49" stop-color="#ffff09"/><stop offset="0.63" stop-color="#ffff02"/><stop offset="1" stop-color="#ff0"/></linearGradient><linearGradient id="d" x1="316.3" y1="154.7" x2="330.94" y2="152.38" xlink:href="#c"/><linearGradient id="e" x1="737.38" y1="172.6" x2="737.38" y2="131.84" xlink:href="#b"/></defs><title>page3_phone</title><g class="a"><path class="b" d="M557.46,47.45h0a51.93,51.93,0,0,0-70.82,16.78,51.92,51.92,0,0,0-70.52,18h0A51.91,51.91,0,0,0,432.86,153c.27.18.52.38.8.55l39.5,23.9,48.56,29.39,29.39-48.56,23.9-39.5c.17-.28.3-.57.46-.85A51.93,51.93,0,0,0,557.46,47.45Z" transform="translate(-408.61 -9.22)"/><polygon class="b" points="263.4 0 311.62 34.45 367.34 14.26 349.47 70.76 385.9 117.51 326.64 117.99 293.43 167.07 274.67 110.86 217.72 94.45 265.39 59.23 263.4 0"/><g class="c"><path class="d" d="M660.72,396.1l-6.36,18L541.6,374.21l6.37-18Zm28.09-59.42-6.36,18L569.69,314.79l6.37-18ZM623.53,271.3l17.35,6.14L559.72,422.91l-17.35-6.14Zm45.14,16L686,293.41,604.86,438.88l-17.35-6.14Z" transform="translate(-408.61 -9.22)"/></g><ellipse class="e" cx="206.59" cy="334.94" rx="187.04" ry="46.48"/><rect class="f" x="534.38" y="111.07" width="111.2" height="200.33" rx="6.7" transform="translate(-341.96 -142.7) rotate(13.67)"/><rect class="g" x="537.87" y="111.92" width="111.2" height="200.33" rx="6.7" transform="translate(-341.66 -143.51) rotate(13.67)"/><rect class="h" x="550.67" y="126.49" width="87.81" height="162.17" transform="translate(-342.69 -143.89) rotate(13.67)"/><ellipse class="i" cx="572.63" cy="297.74" rx="5.28" ry="5.54" transform="translate(-260.15 774.96) rotate(-76.39)"/><ellipse class="i" cx="576.41" cy="112.29" rx="2.42" ry="2.54" transform="translate(-77.03 636.85) rotate(-76.39)"/><ellipse class="i" cx="548.02" cy="262.01" rx="2.42" ry="2.54" transform="translate(-244.23 723.73) rotate(-76.39)"/><ellipse class="i" cx="555.1" cy="263.73" rx="2.42" ry="2.54" transform="translate(-240.5 731.92) rotate(-76.39)"/><ellipse class="i" cx="562.17" cy="265.45" rx="2.42" ry="2.54" transform="translate(-236.76 740.11) rotate(-76.39)"/><ellipse class="i" cx="582.24" cy="113.71" rx="1.71" ry="1.8" transform="translate(-73.94 643.6) rotate(-76.39)"/><rect class="j" x="568.65" y="152.28" width="68.35" height="42.82" rx="3.23" transform="translate(-350.47 -146.81) rotate(13.67)"/><path class="j" d="M579.49,187.56l6.5,1.59a.7.7,0,0,1,.38,1.18l-4.56,4.58-4.56,4.58a.77.77,0,0,1-1.26-.31L574.05,193l-1.95-6.16A.71.71,0,0,1,573,186Z" transform="translate(-408.61 -9.22)"/><rect class="h" x="577.13" y="158.75" width="56.8" height="7.69" rx="2.57" transform="translate(-353.02 -147.76) rotate(13.67)"/><rect class="h" x="571.73" y="180.94" width="56.8" height="7.69" rx="2.57" transform="translate(-347.92 -145.85) rotate(13.67)"/><rect class="h" x="574.43" y="169.84" width="56.8" height="7.69" rx="2.57" transform="translate(-350.47 -146.81) rotate(13.67)"/><rect class="k" x="555.11" y="213.77" width="68.35" height="31.15" rx="3.23" transform="translate(699.03 582.26) rotate(-166.33)"/><path class="k" d="M603.73,246.66l-6.51-1.58a.71.71,0,0,0-.88.88l1.95,6.16,2,6.16a.76.76,0,0,0,1.25.31l4.56-4.58,4.56-4.58a.71.71,0,0,0-.38-1.19Z" transform="translate(-408.61 -9.22)"/><rect class="h" x="562.2" y="220.07" width="56.8" height="7.69" rx="2.57" transform="translate(702.92 571.88) rotate(-166.33)"/><rect class="h" x="587.5" y="234.53" width="28.4" height="7.69" rx="2.57" transform="translate(721.38 603) rotate(-166.33)"/><rect class="h" x="638.27" y="137.72" width="0.27" height="0.26" transform="translate(-358.23 -155.63) rotate(13.61)"/><polygon class="i" points="221.86 131.35 221.57 132.55 222.83 132.85 223.31 130.85 221.86 131.35"/><polygon class="i" points="224.02 130.61 223.44 133 224.7 133.31 225.47 130.11 224.02 130.61"/><polygon class="i" points="226.18 129.87 225.31 133.45 226.57 133.76 227.63 129.37 226.18 129.87"/><polygon class="i" points="228.34 129.12 227.18 133.91 228.44 134.21 229.79 128.62 228.34 129.12"/><rect class="h" x="638.12" y="137.77" width="0.27" height="0.26" transform="translate(-358.22 -155.59) rotate(13.61)"/><rect class="h" x="637.81" y="137.87" width="0.27" height="0.26" transform="translate(-358.2 -155.52) rotate(13.61)"/><rect class="h" x="637.5" y="137.98" width="0.27" height="0.26" transform="translate(-358.19 -155.44) rotate(13.61)"/><rect class="h" x="637.2" y="138.09" width="0.27" height="0.26" transform="translate(-358.17 -155.36) rotate(13.61)"/><rect class="h" x="636.89" y="138.19" width="0.27" height="0.26" transform="translate(-358.15 -155.29) rotate(13.61)"/><rect class="h" x="635.95" y="138.55" width="0.27" height="0.26" transform="translate(-358.1 -155.06) rotate(13.61)"/><rect class="h" x="635.64" y="138.65" width="0.27" height="0.26" transform="translate(-358.08 -154.98) rotate(13.61)"/><rect class="h" x="635.33" y="138.76" width="0.27" height="0.26" transform="translate(-358.06 -154.91) rotate(13.61)"/><rect class="h" x="635.03" y="138.87" width="0.27" height="0.26" transform="translate(-358.05 -154.83) rotate(13.61)"/><rect class="h" x="634.72" y="138.97" width="0.27" height="0.26" transform="translate(-358.03 -154.76) rotate(13.61)"/><rect class="h" x="633.79" y="139.3" width="0.27" height="0.26" transform="translate(-357.98 -154.53) rotate(13.61)"/><rect class="h" x="633.48" y="139.4" width="0.27" height="0.26" transform="translate(-357.96 -154.45) rotate(13.61)"/><rect class="h" x="633.17" y="139.51" width="0.27" height="0.26" transform="translate(-357.95 -154.38) rotate(13.61)"/><rect class="h" x="632.87" y="139.62" width="0.27" height="0.26" transform="translate(-357.93 -154.3) rotate(13.61)"/><rect class="h" x="632.56" y="139.72" width="0.27" height="0.26" transform="translate(-357.91 -154.23) rotate(13.61)"/><rect class="h" x="631.63" y="140.04" width="0.27" height="0.26" transform="translate(-357.87 -154) rotate(13.61)"/><rect class="h" x="631.32" y="140.14" width="0.27" height="0.26" transform="translate(-357.85 -153.92) rotate(13.61)"/><rect class="h" x="631.01" y="140.25" width="0.27" height="0.26" transform="translate(-357.83 -153.85) rotate(13.61)"/><rect class="h" x="630.71" y="140.36" width="0.27" height="0.26" transform="translate(-357.82 -153.77) rotate(13.61)"/><rect class="h" x="630.4" y="140.46" width="0.27" height="0.26" transform="translate(-357.8 -153.7) rotate(13.61)"/><rect class="i" x="640.1" y="141.28" width="8.08" height="3.82" transform="translate(-356.81 -156.83) rotate(13.61)"/><rect class="h" x="645.75" y="142.18" width="2.09" height="3.3" transform="translate(-356.58 -157.43) rotate(13.61)"/><rect class="i" x="648.06" y="143.52" width="0.91" height="1.46" transform="translate(-356.43 -157.83) rotate(13.61)"/><rect class="h" x="647.38" y="145.71" width="0.27" height="0.26" transform="translate(-356.09 -157.55) rotate(13.61)"/><rect class="h" x="648.22" y="142.25" width="0.27" height="0.26" transform="translate(-356.88 -157.84) rotate(13.61)"/><rect class="l" x="514.05" y="116.16" width="91.77" height="33.81" transform="translate(-415.68 25.16) rotate(-3.5)"/><path class="m" d="M540,134.29a10.09,10.09,0,1,0-16.24,8.59,2.4,2.4,0,0,1-.44-1.16c-.13-2.12,2.9-4,6.77-4.27s7.1,1.29,7.23,3.42a2.36,2.36,0,0,1-.29,1.2A10.05,10.05,0,0,0,540,134.29Z" transform="translate(-408.61 -9.22)"/><path class="h" d="M530.09,137.45c-3.87.23-6.9,2.15-6.77,4.27a2.4,2.4,0,0,0,.44,1.16,10.06,10.06,0,0,0,13.27-.81,2.36,2.36,0,0,0,.29-1.2C537.19,138.74,534,137.21,530.09,137.45Z" transform="translate(-408.61 -9.22)"/><circle class="h" cx="121.24" cy="124.37" r="3.86"/><rect class="n" x="546.56" y="140.43" width="34.68" height="2.51" transform="translate(-416.2 25.42) rotate(-3.5)"/><rect class="n" x="546.32" y="136.14" width="51.8" height="2.51" transform="translate(-415.93 25.92) rotate(-3.5)"/><rect class="n" x="546.09" y="132.38" width="51.8" height="2.51" transform="translate(-415.7 25.9) rotate(-3.5)"/><polygon class="o" points="143.97 118.93 141.52 120.41 141.83 117.57 139.67 115.7 142.47 115.12 143.57 112.48 145 114.96 147.85 115.2 145.92 117.32 146.58 120.1 143.97 118.93"/><polygon class="o" points="153.47 118.35 151.02 119.83 151.33 116.99 149.17 115.12 151.97 114.54 153.07 111.9 154.49 114.38 157.34 114.62 155.42 116.74 156.08 119.52 153.47 118.35"/><polygon class="o" points="162.97 117.77 160.52 119.25 160.83 116.41 158.66 114.54 161.47 113.96 162.57 111.32 163.99 113.8 166.84 114.04 164.92 116.16 165.57 118.94 162.97 117.77"/><polygon class="o" points="172.47 117.19 170.02 118.67 170.33 115.83 168.16 113.96 170.97 113.38 172.07 110.74 173.49 113.22 176.34 113.46 174.42 115.58 175.07 118.36 172.47 117.19"/><polygon class="o" points="181.97 116.61 179.52 118.09 179.83 115.25 177.66 113.38 180.46 112.8 181.57 110.16 182.99 112.64 185.84 112.88 183.92 115 184.57 117.78 181.97 116.61"/><rect class="p" x="585.3" y="186.31" width="91.77" height="33.81" transform="translate(-387.43 -65.99) rotate(5.24)"/><path class="m" d="M611.3,201.39a10.09,10.09,0,1,0-17.36,6,2.39,2.39,0,0,1-.26-1.21c.2-2.12,3.48-3.55,7.34-3.2s6.82,2.36,6.63,4.48a2.39,2.39,0,0,1-.48,1.14A10.07,10.07,0,0,0,611.3,201.39Z" transform="translate(-408.61 -9.22)"/><path class="h" d="M601,203c-3.86-.35-7.14,1.08-7.34,3.2a2.39,2.39,0,0,0,.26,1.21,10.06,10.06,0,0,0,13.23,1.21,2.39,2.39,0,0,0,.48-1.14C607.84,205.37,604.87,203.36,601,203Z" transform="translate(-408.61 -9.22)"/><circle class="h" cx="192.76" cy="189.94" r="3.86"/><rect class="n" x="616.46" y="211.07" width="34.68" height="2.51" transform="translate(-386.59 -66.19) rotate(5.24)"/><rect class="n" x="616.77" y="208.1" width="51.8" height="2.51" transform="translate(-386.82 -67.01) rotate(5.24)"/><rect class="n" x="617.11" y="204.34" width="51.8" height="2.51" transform="translate(-387.16 -67.06) rotate(5.24)"/><polygon class="o" points="216.05 188.02 213.41 189.11 214.14 186.35 212.29 184.17 215.14 184.02 216.64 181.58 217.66 184.25 220.45 184.92 218.22 186.72 218.45 189.57 216.05 188.02"/><polygon class="o" points="225.53 188.88 222.88 189.98 223.62 187.22 221.76 185.04 224.62 184.89 226.12 182.45 227.14 185.12 229.92 185.79 227.7 187.59 227.93 190.44 225.53 188.88"/><polygon class="o" points="235 189.75 232.36 190.85 233.1 188.08 231.24 185.91 234.1 185.76 235.59 183.32 236.62 185.99 239.4 186.66 237.18 188.46 237.4 191.31 235 189.75"/><polygon class="o" points="244.48 190.62 241.84 191.72 242.57 188.95 240.72 186.78 243.57 186.63 245.07 184.19 246.1 186.86 248.88 187.53 246.66 189.33 246.88 192.18 244.48 190.62"/><polygon class="o" points="253.96 191.49 251.31 192.59 252.05 189.82 250.19 187.65 253.05 187.5 254.55 185.06 255.57 187.73 258.36 188.39 256.13 190.19 256.36 193.05 253.96 191.49"/><rect class="q" x="513.24" y="266.4" width="91.77" height="33.81" transform="translate(-431.65 41.76) rotate(-5.12)"/><path class="m" d="M539.24,285.08a10.09,10.09,0,1,0-16,9.05,2.28,2.28,0,0,1-.47-1.14c-.19-2.12,2.78-4.12,6.64-4.47s7.14,1.1,7.33,3.22a2.34,2.34,0,0,1-.27,1.2A10,10,0,0,0,539.24,285.08Z" transform="translate(-408.61 -9.22)"/><path class="h" d="M529.42,288.52c-3.86.35-6.83,2.35-6.64,4.47a2.28,2.28,0,0,0,.47,1.14,10.06,10.06,0,0,0,13.23-1.19,2.34,2.34,0,0,0,.27-1.2C536.56,289.62,533.27,288.18,529.42,288.52Z" transform="translate(-408.61 -9.22)"/><circle class="h" cx="120.46" cy="275.45" r="3.86"/><rect class="n" x="546" y="290.54" width="34.68" height="2.51" transform="translate(-432.39 42.17) rotate(-5.12)"/><rect class="n" x="545.63" y="286.02" width="51.8" height="2.51" transform="translate(-431.95 42.88) rotate(-5.12)"/><rect class="n" x="545.29" y="282.27" width="51.8" height="2.51" transform="translate(-431.62 42.84) rotate(-5.12)"/><polygon class="l" points="143.03 269.37 140.63 270.92 140.85 268.07 138.64 266.27 141.42 265.6 142.45 262.94 143.94 265.38 146.8 265.54 144.94 267.71 145.67 270.47 143.03 269.37"/><polygon class="l" points="152.51 268.52 150.1 270.08 150.33 267.22 148.12 265.42 150.9 264.76 151.93 262.09 153.42 264.53 156.28 264.69 154.41 266.86 155.15 269.62 152.51 268.52"/><polygon class="l" points="161.99 267.68 159.58 269.23 159.81 266.38 157.59 264.57 160.38 263.91 161.41 261.24 162.9 263.68 165.76 263.84 163.89 266.01 164.63 268.77 161.99 267.68"/><polygon class="l" points="171.46 266.83 169.06 268.38 169.29 265.53 167.07 263.72 169.86 263.06 170.89 260.39 172.38 262.83 175.23 262.99 173.37 265.16 174.1 267.93 171.46 266.83"/><polygon class="l" points="180.94 265.98 178.54 267.53 178.77 264.68 176.55 262.87 179.34 262.21 180.37 259.54 181.86 261.98 184.71 262.14 182.85 264.31 183.58 267.08 180.94 265.98"/><path class="r" d="M1159.22,614.86" transform="translate(-408.61 -9.22)"/><path class="s" d="M809.52,63.78" transform="translate(-408.61 -9.22)"/><path class="t" d="M439.11,169.77l-10.48-3.59,7.21-15.64a3.44,3.44,0,0,1,3.13-2h30.42a3.44,3.44,0,0,1,2.95,1.66l4.78,10.28v56.29h-35Z" transform="translate(-408.61 -9.22)"/><path class="u" d="M439.11,169.77l3.53-6.77s-.59,53-.54,53.77Z" transform="translate(-408.61 -9.22)"/><rect class="h" x="39.42" y="132.95" width="12.49" height="11.45" rx="5.73"/><polygon class="v" points="33.49 207.54 28.4 329.96 37.08 329.96 50.85 230.29 53.24 230.29 49.65 329.96 56.54 329.96 64.11 268.75 68.51 207.54 33.49 207.54"/><polygon class="w" points="20.73 159.24 29.47 162.24 23.13 176.28 47.37 194.69 46.18 198.59 28.36 188.41 20.92 183.81 15.94 178.68 18 167.53 20.73 159.24"/><rect class="w" x="40.01" y="122.35" width="11.45" height="21.18" rx="5.04"/><polyline class="x" points="37.78 207.54 33.01 275.46 29.33 329.85"/><polyline class="x" points="52.1 230.29 52.14 227.79 52.5 207.54"/><polyline class="x" points="56.15 207.54 55.6 225.02 53.95 226.69 52.28 226.69"/><rect class="d" x="450.99" y="160.57" width="52.14" height="45.52" rx="9.92" transform="translate(-422.72 32.86) rotate(-4.98)"/><rect class="y" x="459.05" y="179.99" width="13.41" height="20.91" rx="2.78" transform="translate(-423.38 31.91) rotate(-4.98)"/><circle class="h" cx="60.54" cy="187.74" r="1.92"/><path class="g" d="M495.54,181.27l-.15-1.76a2,2,0,0,0-2.11-1.77l-10.13.88c1.36-6.32-.42-10.87-3.81-12a1.51,1.51,0,0,0-1,.09c-.42.16-1.79,1.17-1.72,1.43,2.33,8.83-3.85,13.23-3.85,13.23l1.52,17.49,1.64-.14.45,0,15.21-1.32a2,2,0,0,0,1.77-2.11l-.15-1.76v0a3.51,3.51,0,0,0,1.54-3.21l0-.21a3.55,3.55,0,0,0-.3-1.14,3.49,3.49,0,0,0,1.15-2.91l0-.21a3.47,3.47,0,0,0-.78-1.91A3.45,3.45,0,0,0,495.54,181.27Z" transform="translate(-408.61 -9.22)"/><path class="z" d="M495.39,179.51a2,2,0,0,0-2.11-1.77l-4.94.43a17.7,17.7,0,0,1,.24,1.78,18.36,18.36,0,0,1-11.39,18.62l14.35-1.25a2,2,0,0,0,1.77-2.11l-.15-1.76v0a3.51,3.51,0,0,0,1.54-3.21l0-.21a3.55,3.55,0,0,0-.3-1.14,3.49,3.49,0,0,0,1.15-2.91l0-.21a3.47,3.47,0,0,0-.78-1.91,3.45,3.45,0,0,0,.82-2.56Z" transform="translate(-408.61 -9.22)"/><path class="aa" d="M454.35,131.58a5.72,5.72,0,0,0-5.73,5.72V147c0,.06,0,.11,0,.16a8.06,8.06,0,0,0,3.11.62,12.07,12.07,0,0,0,8.32-2.86V137.3A5.72,5.72,0,0,0,454.35,131.58Z" transform="translate(-408.61 -9.22)"/><path class="s" d="M440.7,131.24c1.25-8.28,2.84-11.49,13.39-11.49,13.73,0,14.8,0,13.4,11.49-1.15,9.41-5.22,15.15-13.59,15.15-4.18,0-6.91-3.09-9.65-5.84S440,135.8,440.7,131.24Z" transform="translate(-408.61 -9.22)"/><path class="ab" d="M467.77,123.4l-1.25-2.17a5.46,5.46,0,0,0-1.62-.84l-14-.07a2.7,2.7,0,0,0-2.56,1.76l-2.68,7.07a2.27,2.27,0,0,1-2,1.15h0a2.26,2.26,0,0,1-2.26-2.27v-.42l-4.12,6.88v-7.66c0-1.79-.06-4.92.92-6.41l4.1-6c1.81-1.77,3.25-2.18,6.84-2l13.36-.11,4.08.68a5.1,5.1,0,0,1,2.81,1.71h0a1.44,1.44,0,0,1-.13,1.85L467.86,118Z" transform="translate(-408.61 -9.22)"/><ellipse class="s" cx="30.9" cy="121.81" rx="3.56" ry="4.77"/><path class="d" d="M477.05,347.55H457a.26.26,0,0,1-.26-.25v-3.69a1.3,1.3,0,0,1,.35-.88l1-1.07a2.79,2.79,0,0,1,2-.88H464a3.83,3.83,0,0,1,2,.56l4.69,2.83C472,345.08,477.33,345,477.05,347.55Z" transform="translate(-408.61 -9.22)"/><path class="d" d="M454.09,347.5H436.56a.24.24,0,0,1-.22-.25v-3.63a1.36,1.36,0,0,1,.31-.87l.87-1.05a2.29,2.29,0,0,1,1.76-.86h3.43a3.13,3.13,0,0,1,1.76.55l4.09,2.78C449.66,345.07,454.33,345,454.09,347.5Z" transform="translate(-408.61 -9.22)"/><polygon class="h" points="29.84 162.37 19.39 158.78 20.02 156.95 30.49 160.54 29.84 162.37"/><polygon class="ac" points="74.18 150.76 71.48 196.68 73.81 196.48 76.5 150.56 74.18 150.76"/><path class="ac" d="M504,192.52l-2-22.91a11.27,11.27,0,0,0-10.44-10.25l-2.69,45.78,4.88-.43A11.26,11.26,0,0,0,504,192.52Z" transform="translate(-408.61 -9.22)"/><path class="ac" d="M460.33,161.94a11.26,11.26,0,0,0-10.24,12.19l2,22.91a11.26,11.26,0,0,0,12.19,10.24h.12l2.69-45.92Z" transform="translate(-408.61 -9.22)"/><polygon class="ad" points="58.48 152.12 55.78 198.05 71.48 196.68 74.18 150.76 58.48 152.12"/><path class="ad" d="M489.84,159.37l-4.72.41-2.7,45.92,6.49-.56,2.69-45.78A12.94,12.94,0,0,0,489.84,159.37Z" transform="translate(-408.61 -9.22)"/><path class="w" d="M492.07,159.82c0,2.11-5.28,5-8.25,5s-5.39-1.71-5.39-3.81c0-2.91,1.63-4.18,5.55-4.18C487,156.83,492.07,157.71,492.07,159.82Z" transform="translate(-408.61 -9.22)"/><path class="w" d="M453.87,205.76c.43-1.4,9.1-2.24,9.44-1.55.93,1.85-2.73,1.68-2.5,2.14.34.64,6.25-.09,7.05.73s.54,3.36.31,4.12-6.11.51-8.32-.16C456,209.86,453.34,207.5,453.87,205.76Z" transform="translate(-408.61 -9.22)"/><rect class="ae" x="282.83" y="237.43" width="106.27" height="100.73" rx="5.14"/><path class="r" d="M749.1,285.78" transform="translate(-408.61 -9.22)"/><polyline class="h" points="321.36 306.24 335.97 320.85 350.58 306.24"/><path class="h" d="M753.06,277.92a3.22,3.22,0,0,0-.56.41c-1.74,1.65-1.19,5.12,1.25,7.74a7.4,7.4,0,0,0,5.3,2.61,2,2,0,0,1,.43-1.13A8.19,8.19,0,0,1,755,285C752.85,282.67,752.14,279.78,753.06,277.92Z" transform="translate(-408.61 -9.22)"/><path class="h" d="M721.78,279.89c-2.11,8,1.25,11.85,3.32,12.76,1.25.56,7.16,1.18,11.27-6.19l1,.55c1-1.28,2.06-2.58,3-3.77a66.08,66.08,0,0,0,6.07-8.2,20.88,20.88,0,0,0-1.87,1.56,18.91,18.91,0,0,0-23.46-2.23c-.16,1.74-.29,3.52-.42,5.24Z" transform="translate(-408.61 -9.22)"/><path class="h" d="M738.36,287.57l1,.55c-3.58,6.44-8.67,8.25-12.31,8.25a9.53,9.53,0,0,1-2.11-.23,35.13,35.13,0,0,0-2.56,11.71l7.61,7.61h29.22l9-9c.06-4.1-1.67-8.51-5.17-13a.37.37,0,0,1-.28-.1L760.45,291c-2.38,1-5.88-.21-8.52-3.05-3.14-3.39-3.86-7.85-1.61-10a4.46,4.46,0,0,1,3.55-1.07c1.82-1.49,5.15-.67,7.56,1.94s3,5.81,1.53,7.59a6.25,6.25,0,0,1,0,1.15l2.74,2.8a.36.36,0,0,1,0,.51l-.12.12c3.58,4.5,5.31,8.56,5.91,12.13a18.9,18.9,0,0,0-.38-26.32h0a18.89,18.89,0,0,0-22.75-3c-1.21,2.94-3.92,6.29-7.07,10.15C740.3,285.14,739.35,286.3,738.36,287.57Z" transform="translate(-408.61 -9.22)"/><path class="h" d="M718.49,279l1.08.29c.1-1.34.2-2.7.32-4.05a18.9,18.9,0,0,0-1.8,1.57h0a18.89,18.89,0,0,0-.24,26.48c.08.09.15.18.24.27l1,1.05a44,44,0,0,1,2.72-10.06C719.12,292.27,716.3,287.29,718.49,279Z" transform="translate(-408.61 -9.22)"/><path class="h" d="M771.32,303.31c-.09.08-.16.17-.24.25l-2.85,2.74a12.94,12.94,0,0,1-3,8c-7.27,9.14-25.21,12.63-35.54,6.91-5-2.78-7.48-7.43-7.35-13.51l-3.22-3.09c-1.59,11.46,4.43,17,8.86,19.43a28.48,28.48,0,0,0,13.65,3.12c10,0,20.85-4,26.31-10.88a16.21,16.21,0,0,0,3.5-13.09Z" transform="translate(-408.61 -9.22)"/><path class="h" d="M726.29,260.13c1.61-.75,3.76-.42,6.39.92-.11.5.36,1.13,1.14,1.48.09,0,.19.05.28.08a1.69,1.69,0,0,0,1,1.13,1.75,1.75,0,0,0,1.45,0,1.06,1.06,0,0,1-.17-.59l.57-.78h0a.69.69,0,0,1,.25-.1,1.74,1.74,0,0,0-1-1.07,1.86,1.86,0,0,0-1-.13,2.83,2.83,0,0,0-.63-.4,2.75,2.75,0,0,0-.58-.18c-3.38-1.92-6.1-2.4-8.25-1.4-4.15,1.92-5.3,8.94-5.92,16.16.4-.31.81-.62,1.23-.89C721.74,267.85,722.88,261.71,726.29,260.13Z" transform="translate(-408.61 -9.22)"/><path class="h" d="M748.75,269.19c-.66-2-2.56-3.54-5.89-4.78a2.74,2.74,0,0,0-1-.7,3,3,0,0,0-1-.26,1.87,1.87,0,0,0-.65-.48,1.7,1.7,0,0,0-1.59.07.89.89,0,0,1,0,.75,1,1,0,0,1-.55.49,1.68,1.68,0,0,0,1,1.22,1.66,1.66,0,0,0,1.64-.12,1.92,1.92,0,0,0,.35.18,2.13,2.13,0,0,0,1.83.1c2.67,1.07,4.26,2.35,4.77,3.89s0,3.4-1.22,5.49a20.2,20.2,0,0,1,1.88-1.23A6.47,6.47,0,0,0,748.75,269.19Z" transform="translate(-408.61 -9.22)"/><polygon class="af" points="316.44 237.43 330.9 338.16 346.5 338.16 332.05 237.43 316.44 237.43"/><polygon class="af" points="338.58 237.43 353.03 338.16 383.82 338.16 369.37 237.43 338.58 237.43"/><path class="ag" d="M784.08,131.76h0a6.43,6.43,0,0,0-8.2-3.75,6.43,6.43,0,0,0-8.26-3.62h0a6.43,6.43,0,0,0-3.75,8.19.56.56,0,0,0,0,.12l4.54,11.91,11.91-4.55.11-.05A6.42,6.42,0,0,0,784.08,131.76Z" transform="translate(-408.61 -9.22)"/><path class="ah" d="M681.88,326.93l14.58-6.66a1.58,1.58,0,0,0,.83-2.17L695,314.18a1.32,1.32,0,0,0-1.37-.62c-5.67,1-3.24,2.64-3.94,3.4l-8.47,9.09A.55.55,0,0,0,681.88,326.93Z" transform="translate(-408.61 -9.22)"/><rect class="s" x="316.59" y="156.93" width="6.93" height="12.9" rx="3.05"/><path class="s" d="M698.21,237.07l-19.08,3.19c-6,.31-11.87,8.34-10.51,14.23l21.22,59.56,3-.88L688.37,285c-.75-6.16-1.65-18.87-1.68-19.11-1.35-9.13-5.83-12.57,2.92-14.74l7.38-1.28" transform="translate(-408.61 -9.22)"/><g class="ai"><path class="aj" d="M697.86,242.13l.35-5.06-20.44,1.78c-5.62.3-5.3,8.34-4.94,14.05C675.86,241.79,697.86,242.13,697.86,242.13Z" transform="translate(-408.61 -9.22)"/></g><path class="s" d="M671.24,228.56c0-1.55-3.34-2.8-7.47-2.8s-7.46,1.25-7.46,2.8-1.24,3.26,2.88,3.26S671.24,230.11,671.24,228.56Z" transform="translate(-408.61 -9.22)"/><path class="s" d="M760.51,166.1c.67,1.56,4.49,1.42,8.54-.32s6.37-4.8,5.7-6.36-7.16.18-11.21,1.92S759.84,164.55,760.51,166.1Z" transform="translate(-408.61 -9.22)"/><path class="ak" d="M728.53,131.84c-.7-.07-1.41-.11-2.13-.11h-.21c-7.94.58-20,10.54-16.83,15.74l-.17,24c0,.32,0,.84.44.73l19.08-9.34" transform="translate(-408.61 -9.22)"/><polygon class="s" points="330.2 164.52 301.8 164.44 277.02 194.79 255.28 218.59 259.24 219.56 284.83 197.99 303.9 175.18 330.57 185.46 330.2 164.52"/><path class="ac" d="M735.29,186.46a1.7,1.7,0,0,0,.49,1Z" transform="translate(-408.61 -9.22)"/><path class="al" d="M740.37,188c-3.59,5.87-5-1-5.08-1.45-.21-1.23.31-3.05.76-4.76l2.15-8.09h-3.73c-.34,2.61-6.52,8.66-11.39,8.66-5,0-7-3.48-7-6a21.18,21.18,0,0,1,0-2.73l-.94,0h-3.9l-3.79,52.21,28.16-.12.25-12.48Z" transform="translate(-408.61 -9.22)"/><path class="am" d="M737.71,190.39s-6.51,20.21-4.45,35.37" transform="translate(-408.61 -9.22)"/><path class="s" d="M758.83,166.7l-10.51,31.59-9.5-24.55h-.62l-2.6,9.7c-.45,1.69,3.59,11.24,3.59,11.24l7.31,14.81a2.38,2.38,0,0,0,4.35-.32l12.55-41a2,2,0,0,0-1.26-2.49l-.74-.26A2,2,0,0,0,758.83,166.7Z" transform="translate(-408.61 -9.22)"/><path class="an" d="M734.47,173.73c-.71,2.46-6.44,8.44-11.35,8.44s-6.47-2.95-6.91-5.72a25,25,0,0,0-.21-2.76c-.93.91-.85,2.68-.67,4.11.32,2.59,2.39,5.8,7.71,5.8s12-6,12-8.61A1.76,1.76,0,0,0,734.47,173.73Z" transform="translate(-408.61 -9.22)"/><ellipse class="ao" cx="305.29" cy="183.51" rx="5.51" ry="6.2"/><path class="g" d="M687.26,227.8l9.73,22,36.5.05c3.38-.32,5.08-3.2,5.38-6.58l.64-7.31c.47-5.43-.32-7.45-3.59-10.25l-28.55.12v1.32Z" transform="translate(-408.61 -9.22)"/><path class="aa" d="M687.5,276.12c-.43-5.13-.78-10-.81-10.21l-6.36-13.16a29.9,29.9,0,0,0-6.65-8.74l-.66-.6a1.71,1.71,0,0,1-.29-.74c-3,3.28-5,8.19-4.11,11.86l1.12,3.15,17.31,18Z" transform="translate(-408.61 -9.22)"/><path class="ap" d="M679.13,239.15" transform="translate(-408.61 -9.22)"/><path class="s" d="M687.28,227.81l-21.24.61a5.93,5.93,0,0,0-5.7,5l-.11.73c-.3,2,1.62,8,5.57,12.8L687,275.4c3.45,4.21,4.34-.41,2.47-5l-6.32-18.62a29.9,29.9,0,0,0-5.52-9.48l-.58-.68a1.64,1.64,0,0,1,1.53-2.45l13.43-.54" transform="translate(-408.61 -9.22)"/><path class="ah" d="M686.94,293.19l10.88-13.86a1.74,1.74,0,0,0-.29-2.54l-4.18-2.69a1.45,1.45,0,0,0-1.66.09c-5,3.88-1.83,4.21-2.14,5.31l-3.68,13.15A.61.61,0,0,0,686.94,293.19Z" transform="translate(-408.61 -9.22)"/><ellipse class="al" cx="305.29" cy="182.38" rx="5.51" ry="6.2"/><ellipse class="ao" cx="319.13" cy="184.08" rx="5.51" ry="6.2"/><ellipse class="al" cx="319.13" cy="182.95" rx="5.51" ry="6.2"/><line class="aq" x1="301.95" y1="219.56" x2="321.39" y2="225.55"/><line class="aq" x1="301.95" y1="219.56" x2="316.22" y2="220.7"/><path class="d" d="M764.4,169.6a1.65,1.65,0,0,0-2.09.56l-3.94-1.77-.49,1.09,3.87,1.74a1.54,1.54,0,0,0,.5,1.7,2.06,2.06,0,0,0,2.15-3.32Z" transform="translate(-408.61 -9.22)"/><circle class="ar" cx="308.43" cy="152.1" r="6.91"/><path class="as" d="M753.88,181.78a0,0,0,0,0-.07,0l-5.46,16.4a0,0,0,0,1-.07,0l-9.47-24.44h-6.68v-4.11a3.47,3.47,0,1,0-6.93,0v2.59l7.23,4.68c2.32,21.2-3.81,34.36-3.77,49v0c-6.31,14.72-16.12,4-27.13,24h0l32,0c3.38-.32,5.08-3.2,5.38-6.58l.64-7.31c.47-5.43-.32-7.45-3.59-10.25h-.38l.24-12.48h0l3.39-18.63,0,0,7.31,14.81a2.38,2.38,0,0,0,4.35-.32l5.48-17.88v0Z" transform="translate(-408.61 -9.22)"/><path class="s" d="M728.84,170.81l-3.76-.11c-7.53-.25-14.52-8.6-14.52-16.12v-6.21h18.28Z" transform="translate(-408.61 -9.22)"/><circle class="at" cx="323.62" cy="153.54" r="6.91"/><path class="ap" d="M731.09,173.52" transform="translate(-408.61 -9.22)"/><path class="au" d="M727.71,162.88v9.72c16-4.94,21.07-12.22,19.12-19.44h0a21.5,21.5,0,0,0-19.3-21.32" transform="translate(-408.61 -9.22)"/></g></svg>