<svg xmlns="http://www.w3.org/2000/svg" viewBox="0 0 741.02 733.49"><defs><style>.a{isolation:isolate;}.b{fill:#a100b9;}.b,.c{opacity:0.29;}.c{fill:#23559c;mix-blend-mode:soft-light;}</style></defs><title>background</title><g class="a"><path class="b" d="M602.71,656.63C679.2,629.1,713,640.75,725.76,616,748.23,572.47,653.2,518.7,667,437.45c10.82-63.77,76.95-75.24,73.94-122.14-3.68-57.42-103.69-53.74-137.11-137.16-25.91-64.66,18.7-105.52-9.58-143.35-39.66-53-182.51-46.38-259.9,26.43C281.64,110.82,277.06,174.37,215.92,192c-28.77,8.3-43.69-1.16-75.38,13.34-14,6.4-42.37,22.57-73.27,74.54C59.76,292.53-32.15,447.12,23.81,530c31.37,46.48,74.4,18.89,185.66,58.49,156.26,55.61,185.2,150.52,272.86,130.79C525.84,709.53,523.93,685,602.71,656.63Z"/><path class="c" d="M355,696.51c67.92,19.72,86.6,45.38,107.53,34.31,36.78-19.44-5.82-106.58,42.65-157.36,38-39.86,90.9-14,111-49,24.63-42.79-48.83-91.58-33.18-168.17,12.13-59.37,63.52-65.53,61.21-107C641,191.13,535.35,122.45,445.29,134.53c-61.34,8.22-94.8,51.13-147,32.27-24.57-8.87-30.78-23.29-60.38-29.24-13.06-2.63-41.1-5.71-87.94,15.42C138.57,158.11-.74,221,0,308.78c.42,49.23,44.37,51.7,105.35,137.1C191,565.8,166.66,648.27,238.87,679.28,274.72,694.68,285,676.21,355,696.51Z"/></g></svg>