<svg xmlns="http://www.w3.org/2000/svg" xmlns:xlink="http://www.w3.org/1999/xlink" viewBox="0 0 373.16 245.39"><defs><style>.a{fill:#88b9cc;}.b{fill:#bad7f8;}.c,.y{fill:#fff;}.d{fill:#6badcd;}.e{fill:#9ec8e4;}.f{fill:#9ab4e4;}.g{fill:#ed706a;}.h{fill:#1b1c52;}.i{fill:#fefefe;}.j{fill:#ffce75;}.k{fill:#5087c7;}.l{fill:#f9c974;}.m{fill:#417feb;}.n{fill:#32358a;}.aa,.am,.n,.y{opacity:0.25;}.o{fill:#2b3547;}.p{fill:#ffb08c;}.ah,.ak,.al,.an,.q,.s,.x{fill:none;}.q{stroke:#5b687f;}.ah,.ak,.al,.an,.q,.s{stroke-miterlimit:10;}.r,.t{fill:#23559c;}.s{stroke:#bad7f8;}.t{opacity:0.3;}.ae,.u{fill:#72533e;}.ad,.u{opacity:0.65;}.v{fill:#f8b384;}.w{fill:#fdd548;}.z{fill:#ff3132;}.aa{fill:#adb3bf;}.ab{fill:url(#a);}.ac{fill:#549ffb;}.ae{opacity:0.8;}.af{fill:url(#b);}.ag{fill:#55a0fb;}.ah{stroke:#fff;}.ai{fill:#fcfcf3;}.aj{fill:#3a70a5;opacity:0.5;}.ak{stroke:#94b3d0;stroke-width:0.4px;}.al{stroke:url(#c);}.am{fill:#5b687f;}.an{stroke:url(#d);}.ao{fill:url(#e);}</style><linearGradient id="a" x1="351.75" y1="23.73" x2="344.79" y2="42.78" gradientUnits="userSpaceOnUse"><stop offset="0" stop-color="#ff3132"/><stop offset="0.18" stop-color="#fa3a44"/><stop offset="0.53" stop-color="#ec5074"/><stop offset="1" stop-color="#d871bc"/></linearGradient><linearGradient id="b" x1="294.22" y1="70.08" x2="294.22" y2="29.57" gradientUnits="userSpaceOnUse"><stop offset="0" stop-color="#ff3132"/><stop offset="1" stop-color="#f5673c"/></linearGradient><linearGradient id="c" x1="285.16" y1="60.33" x2="299.81" y2="58.01" gradientUnits="userSpaceOnUse"><stop offset="0" stop-color="#fff"/><stop offset="0.01" stop-color="#fffff6"/><stop offset="0.05" stop-color="#ffffc8"/><stop offset="0.09" stop-color="#ffff9d"/><stop offset="0.14" stop-color="#ff7"/><stop offset="0.2" stop-color="#ffff57"/><stop offset="0.25" stop-color="#ffff3b"/><stop offset="0.32" stop-color="#ffff25"/><stop offset="0.4" stop-color="#ffff14"/><stop offset="0.49" stop-color="#ffff09"/><stop offset="0.63" stop-color="#ffff02"/><stop offset="1" stop-color="#ff0"/></linearGradient><linearGradient id="d" x1="300.35" y1="61.76" x2="315" y2="59.44" xlink:href="#c"/><linearGradient id="e" x1="312.83" y1="70.44" x2="312.83" y2="29.68" xlink:href="#b"/></defs><title>main</title><rect class="a" x="109.82" y="8.91" width="111.2" height="200.33" rx="6.7" transform="translate(30.47 -36.01) rotate(13.67)"/><rect class="b" x="113.32" y="9.76" width="111.2" height="200.33" rx="6.7" transform="translate(30.77 -36.82) rotate(13.67)"/><rect class="c" x="126.11" y="24.33" width="87.81" height="162.17" transform="translate(29.74 -37.2) rotate(13.67)"/><ellipse class="d" cx="148.07" cy="195.58" rx="5.28" ry="5.54" transform="translate(-76.87 293.45) rotate(-76.39)"/><ellipse class="d" cx="151.85" cy="10.13" rx="2.42" ry="2.54" transform="translate(106.26 155.33) rotate(-76.39)"/><ellipse class="d" cx="123.47" cy="159.85" rx="2.42" ry="2.54" transform="translate(-60.95 242.22) rotate(-76.39)"/><ellipse class="d" cx="130.54" cy="161.57" rx="2.42" ry="2.54" transform="translate(-57.21 250.41) rotate(-76.39)"/><ellipse class="d" cx="137.61" cy="163.29" rx="2.42" ry="2.54" transform="translate(-53.48 258.6) rotate(-76.39)"/><ellipse class="d" cx="157.69" cy="11.55" rx="1.71" ry="1.8" transform="translate(109.34 162.09) rotate(-76.39)"/><rect class="e" x="144.1" y="50.12" width="68.35" height="42.82" rx="3.23" transform="translate(21.96 -40.12) rotate(13.67)"/><path class="e" d="M154.93,85.4,161.44,87a.71.71,0,0,1,.37,1.18l-4.56,4.58-4.56,4.58a.76.76,0,0,1-1.25-.31l-1.95-6.16-1.94-6.16a.71.71,0,0,1,.88-.88Z"/><rect class="c" x="152.57" y="56.59" width="56.8" height="7.69" rx="2.57" transform="translate(19.41 -41.07) rotate(13.67)"/><rect class="c" x="147.17" y="78.78" width="56.8" height="7.69" rx="2.57" transform="translate(24.51 -39.16) rotate(13.67)"/><rect class="c" x="149.87" y="67.68" width="56.8" height="7.69" rx="2.57" transform="translate(21.96 -40.12) rotate(13.67)"/><rect class="f" x="130.55" y="111.61" width="68.35" height="31.15" rx="3.23" transform="translate(294.72 289.7) rotate(-166.33)"/><path class="f" d="M179.17,144.5l-6.5-1.58a.71.71,0,0,0-.88.88l1.94,6.16,2,6.16a.76.76,0,0,0,1.25.31l4.56-4.58,4.56-4.58a.71.71,0,0,0-.37-1.19Z"/><rect class="c" x="137.65" y="117.91" width="56.8" height="7.69" rx="2.57" transform="translate(298.61 279.31) rotate(-166.33)"/><rect class="c" x="162.94" y="132.37" width="28.4" height="7.69" rx="2.57" transform="translate(317.07 310.44) rotate(-166.33)"/><rect class="c" x="213.71" y="35.56" width="0.27" height="0.26" transform="translate(14.41 -49.34) rotate(13.61)"/><polygon class="d" points="205.91 38.42 205.63 39.61 206.88 39.92 207.37 37.92 205.91 38.42"/><polygon class="d" points="208.07 37.67 207.5 40.07 208.76 40.37 209.53 37.17 208.07 37.67"/><polygon class="d" points="210.24 36.93 209.37 40.52 210.63 40.82 211.69 36.43 210.24 36.93"/><polygon class="d" points="212.4 36.19 211.24 40.97 212.5 41.28 213.85 35.69 212.4 36.19"/><rect class="c" x="213.56" y="35.61" width="0.27" height="0.26" transform="translate(14.42 -49.3) rotate(13.61)"/><rect class="c" x="213.26" y="35.71" width="0.27" height="0.26" transform="translate(14.43 -49.22) rotate(13.61)"/><rect class="c" x="212.95" y="35.82" width="0.27" height="0.26" transform="translate(14.45 -49.15) rotate(13.61)"/><rect class="c" x="212.64" y="35.93" width="0.27" height="0.26" transform="translate(14.47 -49.07) rotate(13.61)"/><rect class="c" x="212.34" y="36.03" width="0.27" height="0.26" transform="translate(14.48 -49) rotate(13.61)"/><rect class="c" x="211.39" y="36.39" width="0.27" height="0.26" transform="translate(14.54 -48.77) rotate(13.61)"/><rect class="c" x="211.09" y="36.49" width="0.27" height="0.26" transform="translate(14.56 -48.69) rotate(13.61)"/><rect class="c" x="210.78" y="36.6" width="0.27" height="0.26" transform="translate(14.57 -48.62) rotate(13.61)"/><rect class="c" x="210.47" y="36.71" width="0.27" height="0.26" transform="translate(14.59 -48.54) rotate(13.61)"/><rect class="c" x="210.17" y="36.81" width="0.27" height="0.26" transform="translate(14.6 -48.47) rotate(13.61)"/><rect class="c" x="209.23" y="37.14" width="0.27" height="0.26" transform="translate(14.66 -48.24) rotate(13.61)"/><rect class="c" x="208.92" y="37.24" width="0.27" height="0.26" transform="translate(14.67 -48.16) rotate(13.61)"/><rect class="c" x="208.62" y="37.35" width="0.27" height="0.26" transform="translate(14.69 -48.09) rotate(13.61)"/><rect class="c" x="208.31" y="37.46" width="0.27" height="0.26" transform="translate(14.7 -48.01) rotate(13.61)"/><rect class="c" x="208" y="37.56" width="0.27" height="0.26" transform="translate(14.72 -47.94) rotate(13.61)"/><rect class="c" x="207.07" y="37.88" width="0.27" height="0.26" transform="translate(14.77 -47.71) rotate(13.61)"/><rect class="c" x="206.76" y="37.99" width="0.27" height="0.26" transform="translate(14.79 -47.63) rotate(13.61)"/><rect class="c" x="206.46" y="38.1" width="0.27" height="0.26" transform="translate(14.8 -47.56) rotate(13.61)"/><rect class="c" x="206.15" y="38.2" width="0.27" height="0.26" transform="translate(14.82 -47.48) rotate(13.61)"/><rect class="c" x="205.84" y="38.3" width="0.27" height="0.26" transform="translate(14.84 -47.41) rotate(13.61)"/><rect class="d" x="215.55" y="39.12" width="8.08" height="3.82" transform="translate(15.83 -50.54) rotate(13.61)"/><rect class="c" x="221.19" y="40.02" width="2.09" height="3.3" transform="translate(16.05 -51.14) rotate(13.61)"/><rect class="d" x="223.5" y="41.36" width="0.91" height="1.46" transform="translate(16.2 -51.54) rotate(13.61)"/><rect class="c" x="222.83" y="43.55" width="0.27" height="0.26" transform="translate(16.55 -51.26) rotate(13.61)"/><rect class="c" x="223.67" y="40.09" width="0.27" height="0.26" transform="translate(15.76 -51.55) rotate(13.61)"/><rect class="g" x="89.49" y="14" width="91.77" height="33.81" transform="translate(-1.63 8.31) rotate(-3.5)"/><path class="h" d="M115.45,32.13a10.09,10.09,0,1,0-16.24,8.59,2.3,2.3,0,0,1-.44-1.16c-.13-2.12,2.9-4,6.76-4.27s7.11,1.29,7.24,3.42a2.38,2.38,0,0,1-.3,1.2A10.09,10.09,0,0,0,115.45,32.13Z"/><path class="c" d="M105.53,35.29c-3.86.23-6.89,2.15-6.76,4.27a2.3,2.3,0,0,0,.44,1.16,10,10,0,0,0,13.26-.81,2.38,2.38,0,0,0,.3-1.2C112.64,36.58,109.4,35.05,105.53,35.29Z"/><circle class="c" cx="105.3" cy="31.44" r="3.86"/><rect class="i" x="122.01" y="38.27" width="34.68" height="2.51" transform="translate(-2.15 8.57) rotate(-3.5)"/><rect class="i" x="121.76" y="33.98" width="51.8" height="2.51" transform="translate(-1.87 9.07) rotate(-3.5)"/><rect class="i" x="121.53" y="30.22" width="51.8" height="2.51" transform="translate(-1.64 9.05) rotate(-3.5)"/><polygon class="j" points="128.03 26 125.58 27.48 125.89 24.63 123.72 22.77 126.53 22.18 127.63 19.55 129.05 22.03 131.9 22.27 129.98 24.39 130.64 27.17 128.03 26"/><polygon class="j" points="137.53 25.41 135.08 26.9 135.39 24.05 133.22 22.19 136.03 21.6 137.13 18.96 138.55 21.45 141.4 21.69 139.48 23.8 140.13 26.59 137.53 25.41"/><polygon class="j" points="147.03 24.84 144.58 26.32 144.89 23.47 142.72 21.61 145.52 21.02 146.63 18.39 148.05 20.87 150.9 21.11 148.98 23.22 149.63 26.01 147.03 24.84"/><polygon class="j" points="156.52 24.25 154.08 25.74 154.39 22.89 152.22 21.02 155.02 20.44 156.13 17.8 157.55 20.29 160.4 20.53 158.48 22.64 159.13 25.43 156.52 24.25"/><polygon class="j" points="166.02 23.67 163.58 25.16 163.89 22.31 161.72 20.45 164.52 19.86 165.63 17.22 167.05 19.71 169.9 19.95 167.98 22.06 168.63 24.85 166.02 23.67"/><rect class="k" x="160.74" y="84.15" width="91.77" height="33.81" transform="translate(10.09 -18.44) rotate(5.24)"/><path class="h" d="M186.74,99.23a10.09,10.09,0,1,0-17.35,6,2.29,2.29,0,0,1-.26-1.21c.19-2.12,3.48-3.55,7.33-3.2s6.83,2.36,6.63,4.48a2.38,2.38,0,0,1-.47,1.14A10,10,0,0,0,186.74,99.23Z"/><path class="c" d="M176.46,100.85c-3.85-.35-7.14,1.08-7.33,3.2a2.29,2.29,0,0,0,.26,1.21,10.06,10.06,0,0,0,13.23,1.21,2.38,2.38,0,0,0,.47-1.14C183.29,103.21,180.32,101.2,176.46,100.85Z"/><circle class="c" cx="176.81" cy="97.01" r="3.86"/><rect class="i" x="191.9" y="108.91" width="34.68" height="2.51" transform="translate(10.93 -18.64) rotate(5.24)"/><rect class="i" x="192.21" y="105.94" width="51.8" height="2.51" transform="translate(10.69 -19.46) rotate(5.24)"/><rect class="i" x="192.56" y="102.18" width="51.8" height="2.51" transform="translate(10.35 -19.51) rotate(5.24)"/><polygon class="j" points="200.11 95.08 197.46 96.18 198.2 93.41 196.34 91.24 199.2 91.08 200.7 88.65 201.72 91.32 204.5 91.98 202.28 93.79 202.51 96.64 200.11 95.08"/><polygon class="j" points="209.58 95.95 206.94 97.04 207.68 94.28 205.82 92.11 208.68 91.95 210.17 89.52 211.2 92.19 213.98 92.85 211.76 94.65 211.98 97.51 209.58 95.95"/><polygon class="j" points="219.06 96.82 216.42 97.91 217.16 95.15 215.3 92.97 218.16 92.82 219.65 90.38 220.68 93.05 223.46 93.72 221.24 95.52 221.46 98.38 219.06 96.82"/><polygon class="j" points="228.54 97.69 225.9 98.78 226.63 96.02 224.78 93.84 227.63 93.69 229.13 91.25 230.15 93.92 232.94 94.59 230.71 96.39 230.94 99.24 228.54 97.69"/><polygon class="j" points="238.01 98.56 235.37 99.65 236.11 96.89 234.25 94.71 237.11 94.56 238.6 92.12 239.63 94.79 242.41 95.46 240.19 97.26 240.41 100.11 238.01 98.56"/><rect class="l" x="88.69" y="164.24" width="91.77" height="33.81" transform="translate(-15.62 12.72) rotate(-5.12)"/><path class="h" d="M114.69,182.92a10.09,10.09,0,1,0-16,9.05,2.38,2.38,0,0,1-.47-1.14c-.19-2.12,2.79-4.12,6.64-4.47s7.14,1.1,7.33,3.22a2.33,2.33,0,0,1-.26,1.2A10.07,10.07,0,0,0,114.69,182.92Z"/><path class="c" d="M104.86,186.36c-3.85.35-6.83,2.35-6.64,4.47a2.38,2.38,0,0,0,.47,1.14,10.07,10.07,0,0,0,13.24-1.19,2.33,2.33,0,0,0,.26-1.2C112,187.46,108.72,186,104.86,186.36Z"/><circle class="c" cx="104.52" cy="182.52" r="3.86"/><rect class="i" x="121.45" y="188.38" width="34.68" height="2.51" transform="translate(-16.36 13.13) rotate(-5.12)"/><rect class="i" x="121.08" y="183.86" width="51.8" height="2.51" transform="translate(-15.92 13.84) rotate(-5.12)"/><rect class="i" x="120.74" y="180.11" width="51.8" height="2.51" transform="translate(-15.59 13.8) rotate(-5.12)"/><polygon class="g" points="127.09 176.44 124.68 177.99 124.91 175.14 122.69 173.33 125.48 172.67 126.51 170 128 172.44 130.86 172.6 128.99 174.77 129.73 177.54 127.09 176.44"/><polygon class="g" points="136.56 175.59 134.16 177.14 134.39 174.29 132.17 172.48 134.96 171.82 135.99 169.15 137.48 171.59 140.34 171.75 138.47 173.92 139.21 176.69 136.56 175.59"/><polygon class="g" points="146.04 174.74 143.64 176.29 143.87 173.44 141.65 171.63 144.44 170.97 145.47 168.3 146.96 170.75 149.81 170.9 147.95 173.07 148.69 175.84 146.04 174.74"/><polygon class="g" points="155.52 173.89 153.12 175.44 153.35 172.59 151.13 170.79 153.91 170.12 154.95 167.46 156.44 169.9 159.29 170.06 157.43 172.23 158.16 174.99 155.52 173.89"/><polygon class="g" points="165 173.04 162.6 174.59 162.83 171.74 160.61 169.94 163.39 169.28 164.43 166.61 165.91 169.05 168.77 169.21 166.91 171.38 167.64 174.14 165 173.04"/><path class="m" d="M14.55,67.61,4.07,64l7.21-15.64a3.46,3.46,0,0,1,3.13-2H44.84A3.45,3.45,0,0,1,47.79,48l4.78,10.28v56.29h-35Z"/><path class="n" d="M14.55,67.61l3.53-6.77s-.58,53-.53,53.77Z"/><rect class="c" x="23.48" y="40.02" width="12.49" height="11.45" rx="5.73"/><polygon class="o" points="17.55 114.61 12.46 237.03 21.14 237.03 34.91 137.36 37.3 137.36 33.71 237.03 40.6 237.03 48.16 175.82 52.57 114.61 17.55 114.61"/><polygon class="p" points="4.79 66.3 13.53 69.31 7.18 83.35 31.43 101.76 30.23 105.65 12.42 95.47 4.98 90.87 0 85.74 2.06 74.59 4.79 66.3"/><rect class="p" x="24.07" y="29.42" width="11.45" height="21.18" rx="5.04"/><polyline class="q" points="21.84 114.61 17.07 182.53 13.39 236.92"/><polyline class="q" points="36.16 137.36 36.2 134.85 36.56 114.61"/><polyline class="q" points="40.21 114.61 39.66 132.09 38.01 133.75 36.34 133.75"/><rect class="r" x="26.44" y="58.41" width="52.14" height="45.52" rx="9.92" transform="translate(-6.85 4.86) rotate(-4.98)"/><rect class="s" x="34.5" y="77.83" width="13.41" height="20.91" rx="2.78" transform="translate(-7.51 3.91) rotate(-4.98)"/><circle class="c" cx="44.6" cy="94.8" r="1.92"/><path class="b" d="M71,79.11l-.16-1.76a1.94,1.94,0,0,0-2.1-1.77l-10.13.88c1.36-6.32-.42-10.87-3.81-12a1.52,1.52,0,0,0-1,.09c-.42.16-1.79,1.17-1.72,1.43,2.33,8.83-3.86,13.23-3.86,13.23l1.53,17.49,1.64-.14.44,0L67,95.16a1.94,1.94,0,0,0,1.76-2.11l-.15-1.76v0a3.48,3.48,0,0,0,1.53-3.21l0-.21a3.31,3.31,0,0,0-.3-1.14A3.49,3.49,0,0,0,71,83.79l0-.21a3.46,3.46,0,0,0-.77-1.91A3.49,3.49,0,0,0,71,79.11Z"/><path class="t" d="M70.83,77.35a1.94,1.94,0,0,0-2.1-1.77l-5,.43c.11.59.19,1.18.25,1.79a18.38,18.38,0,0,1-11.4,18.61L67,95.16a1.94,1.94,0,0,0,1.76-2.11l-.15-1.76v0a3.48,3.48,0,0,0,1.53-3.21l0-.21a3.31,3.31,0,0,0-.3-1.14A3.49,3.49,0,0,0,71,83.79l0-.21a3.46,3.46,0,0,0-.77-1.91A3.49,3.49,0,0,0,71,79.11Z"/><path class="u" d="M29.79,29.42a5.72,5.72,0,0,0-5.72,5.72v9.73c0,.06,0,.11,0,.16a8.1,8.1,0,0,0,3.11.62,12.1,12.1,0,0,0,8.33-2.86V35.14A5.73,5.73,0,0,0,29.79,29.42Z"/><path class="v" d="M16.14,29.08C17.4,20.8,19,17.59,29.54,17.59c13.73,0,14.79,0,13.39,11.49-1.14,9.41-5.21,15.15-13.58,15.15-4.19,0-6.92-3.09-9.66-5.83S15.45,33.64,16.14,29.08Z"/><path class="w" d="M43.22,21.24,42,19.07a5.58,5.58,0,0,0-1.62-.84l-14.06-.07a2.7,2.7,0,0,0-2.55,1.76L21.05,27a2.26,2.26,0,0,1-2,1.15h0a2.27,2.27,0,0,1-2.27-2.27v-.42l-4.12,6.88V24.67c0-1.79-.06-4.92.93-6.41l4.09-6c1.81-1.77,3.25-2.18,6.85-2l13.35-.12,4.09.68a5.07,5.07,0,0,1,2.8,1.71h0a1.47,1.47,0,0,1-.12,1.86L43.3,15.83Z"/><ellipse class="v" cx="14.96" cy="28.87" rx="3.56" ry="4.77"/><path class="r" d="M52.5,245.39H32.43a.25.25,0,0,1-.25-.25v-3.69a1.26,1.26,0,0,1,.35-.88l1-1.07a2.75,2.75,0,0,1,2-.88h3.92a3.89,3.89,0,0,1,2,.56L46.17,242C47.43,242.92,52.78,242.85,52.5,245.39Z"/><path class="r" d="M29.53,245.34H12a.24.24,0,0,1-.23-.25v-3.63a1.36,1.36,0,0,1,.31-.87l.87-1.05a2.31,2.31,0,0,1,1.77-.86h3.43a3.13,3.13,0,0,1,1.76.55L24,242C25.11,242.91,29.77,242.84,29.53,245.34Z"/><polygon class="c" points="13.9 69.44 3.45 65.84 4.07 64.02 14.55 67.61 13.9 69.44"/><polygon class="x" points="58.24 57.82 55.54 103.75 57.86 103.54 60.56 57.62 58.24 57.82"/><path class="x" d="M79.48,90.36l-2-22.91A11.25,11.25,0,0,0,67,57.21L64.36,103l4.88-.43A11.26,11.26,0,0,0,79.48,90.36Z"/><path class="x" d="M35.78,59.78A11.26,11.26,0,0,0,25.54,72l2,22.91a11.26,11.26,0,0,0,12.2,10.24h.11l2.7-45.92Z"/><polygon class="y" points="42.54 59.19 39.84 105.11 55.54 103.75 58.24 57.82 42.54 59.19"/><path class="y" d="M65.29,57.21l-4.73.41-2.7,45.92,6.5-.56L67,57.21A11.36,11.36,0,0,0,65.29,57.21Z"/><path class="p" d="M67.51,57.66c0,2.11-5.27,5-8.25,5S53.87,61,53.87,58.85c0-2.9,1.63-4.18,5.56-4.18C62.41,54.67,67.51,55.56,67.51,57.66Z"/><path class="p" d="M29.32,103.6c.43-1.4,9.09-2.24,9.44-1.55.93,1.85-2.74,1.68-2.5,2.14.34.64,6.24-.09,7.05.73s.54,3.36.31,4.12-6.12.51-8.33-.16C31.46,107.7,28.79,105.34,29.32,103.6Z"/><rect class="z" x="266.89" y="144.49" width="106.27" height="100.73" rx="5.14"/><polyline class="c" points="305.42 213.3 320.03 227.91 334.64 213.3"/><path class="c" d="M328.51,175.77a2.73,2.73,0,0,0-.56.4c-1.75,1.65-1.19,5.12,1.24,7.74a7.44,7.44,0,0,0,5.31,2.61,1.93,1.93,0,0,1,.43-1.13,8.18,8.18,0,0,1-4.52-2.6C328.3,180.51,327.59,177.62,328.51,175.77Z"/><path class="c" d="M297.22,177.73c-2.11,8,1.25,11.85,3.33,12.76,1.24.56,7.16,1.19,11.26-6.19l1,.55c1-1.28,2.07-2.58,3-3.77a67.11,67.11,0,0,0,6.07-8.2,18.4,18.4,0,0,0-1.87,1.56,18.91,18.91,0,0,0-23.46-2.23c-.17,1.74-.3,3.52-.42,5.24Z"/><path class="c" d="M313.8,185.41l1,.55c-3.59,6.44-8.67,8.25-12.31,8.25a9.62,9.62,0,0,1-2.12-.23,35.4,35.4,0,0,0-2.55,11.71l7.61,7.61h29.22l9-9c.07-4.1-1.66-8.51-5.16-13a.35.35,0,0,1-.28-.1l-2.33-2.29c-2.39,1-5.89-.21-8.53-3-3.13-3.39-3.85-7.85-1.61-10a4.46,4.46,0,0,1,3.55-1.07c1.83-1.49,5.15-.67,7.57,1.94s3,5.81,1.52,7.59a6.26,6.26,0,0,1,0,1.15l2.74,2.8a.35.35,0,0,1,0,.51l-.11.12c3.57,4.5,5.31,8.56,5.9,12.13a18.89,18.89,0,0,0-.38-26.32h0a18.87,18.87,0,0,0-22.74-3c-1.21,2.95-3.93,6.29-7.07,10.15C315.75,183,314.8,184.14,313.8,185.41Z"/><path class="c" d="M293.93,176.86l1.09.29c.1-1.34.2-2.69.32-4.05a19.2,19.2,0,0,0-1.81,1.57h0a18.9,18.9,0,0,0-.24,26.48c.09.09.16.18.24.27l1.06,1.05a43.46,43.46,0,0,1,2.72-10.06C294.57,190.11,291.75,185.13,293.93,176.86Z"/><path class="c" d="M346.76,201.15c-.08.08-.15.17-.24.25l-2.85,2.74a12.93,12.93,0,0,1-3,8c-7.27,9.14-25.21,12.63-35.55,6.91-5-2.78-7.47-7.43-7.34-13.51l-3.22-3.09c-1.59,11.46,4.42,17,8.86,19.43A28.48,28.48,0,0,0,317.1,225c10,0,20.85-4,26.3-10.89A16.21,16.21,0,0,0,346.9,201Z"/><path class="c" d="M301.73,158c1.61-.75,3.76-.42,6.39.92-.11.5.37,1.13,1.14,1.48.1,0,.19,0,.28.08a1.74,1.74,0,0,0,1,1.13,1.77,1.77,0,0,0,1.46,0,1.07,1.07,0,0,1-.18-.59l.57-.78h0a1.09,1.09,0,0,1,.25-.1,1.71,1.71,0,0,0-1-1.07,1.83,1.83,0,0,0-.94-.13,2.68,2.68,0,0,0-.64-.4,2.58,2.58,0,0,0-.58-.18c-3.37-1.92-6.1-2.4-8.25-1.4-4.15,1.92-5.29,8.94-5.91,16.16.4-.31.81-.62,1.23-.89C297.19,165.69,298.32,159.55,301.73,158Z"/><path class="c" d="M324.19,167c-.66-2-2.56-3.54-5.88-4.78a2.83,2.83,0,0,0-1-.7,3,3,0,0,0-1-.26,1.94,1.94,0,0,0-.66-.48,1.68,1.68,0,0,0-1.58.07.93.93,0,0,1,0,.75,1,1,0,0,1-.56.49,1.7,1.7,0,0,0,1,1.22,1.66,1.66,0,0,0,1.64-.12,2.31,2.31,0,0,0,.35.18,2.15,2.15,0,0,0,1.84.1c2.67,1.07,4.25,2.35,4.77,3.89s0,3.4-1.22,5.49a17.86,17.86,0,0,1,1.88-1.23A6.52,6.52,0,0,0,324.19,167Z"/><polygon class="aa" points="300.5 144.49 314.95 245.23 330.56 245.23 316.11 144.49 300.5 144.49"/><polygon class="aa" points="322.63 144.49 337.08 245.23 367.88 245.23 353.43 144.49 322.63 144.49"/><path class="ab" d="M359.52,29.6h0a6.42,6.42,0,0,0-8.19-3.75,6.44,6.44,0,0,0-8.26-3.62h0a6.44,6.44,0,0,0-3.76,8.19.56.56,0,0,1,0,.12l4.55,11.91,11.91-4.55.11,0A6.43,6.43,0,0,0,359.52,29.6Z"/><path class="ac" d="M257.33,224.77l14.58-6.66a1.59,1.59,0,0,0,.83-2.17L270.48,212a1.34,1.34,0,0,0-1.38-.62c-5.67,1-3.24,2.64-3.94,3.4l-8.47,9.09A.56.56,0,0,0,257.33,224.77Z"/><rect class="v" x="300.65" y="63.99" width="6.93" height="12.9" rx="3.05"/><path class="v" d="M273.66,134.91l-19.09,3.19c-6,.31-11.87,8.34-10.51,14.23l21.22,59.56,3-.88-4.46-28.18c-.74-6.17-1.64-18.88-1.68-19.12-1.34-9.13-5.82-12.57,2.93-14.74l7.38-1.28"/><g class="ad"><path class="ae" d="M273.31,140l.35-5.06-20.45,1.78c-5.62.3-5.3,8.34-4.94,14.05C251.3,139.63,273.31,140,273.31,140Z"/></g><path class="v" d="M246.68,126.4c0-1.55-3.34-2.8-7.46-2.8s-7.47,1.25-7.47,2.8-1.24,3.26,2.88,3.26S246.68,128,246.68,126.4Z"/><path class="v" d="M336,63.94c.67,1.56,4.49,1.42,8.53-.32s6.38-4.8,5.71-6.35S343,57.45,339,59.18,335.29,62.39,336,63.94Z"/><path class="af" d="M304,29.68c-.7-.07-1.41-.11-2.13-.11h-.22c-7.93.58-20,10.54-16.82,15.74l-.17,24c0,.32,0,.84.43.73l19.08-9.34"/><polygon class="v" points="314.26 71.58 285.86 71.51 261.07 101.86 239.33 125.66 243.3 126.63 268.89 105.06 287.96 82.25 314.63 92.52 314.26 71.58"/><path class="x" d="M310.73,84.3a1.76,1.76,0,0,0,.49,1Z"/><path class="ag" d="M315.81,85.88c-3.59,5.87-5-1-5.08-1.45a13.68,13.68,0,0,1,.76-4.76l2.15-8.09h-3.73c-.34,2.61-6.51,8.66-11.39,8.66s-7-3.48-7-6a19.41,19.41,0,0,1,0-2.73l-.94,0h-3.9l-3.8,52.21L311,123.6l.24-12.48Z"/><path class="ah" d="M313.16,88.23s-6.51,20.21-4.46,35.37"/><path class="v" d="M334.27,64.54l-10.5,31.59-9.51-24.55h-.62l-2.6,9.7c-.45,1.69,3.59,11.24,3.59,11.24l7.31,14.81a2.39,2.39,0,0,0,4.36-.32l12.54-41a2,2,0,0,0-1.26-2.49l-.73-.25A2,2,0,0,0,334.27,64.54Z"/><path class="ai" d="M309.91,71.57C309.21,74,303.48,80,298.57,80s-6.48-3-6.92-5.72c-.16-1,0-1.91-.2-2.76-.93.91-.85,2.68-.68,4.11.32,2.59,2.4,5.8,7.71,5.8s12-6,12-8.61A1.73,1.73,0,0,0,309.91,71.57Z"/><ellipse class="aj" cx="289.35" cy="90.58" rx="5.51" ry="6.2"/><path class="b" d="M262.7,125.64l9.74,22,36.49.06c3.38-.33,5.09-3.21,5.38-6.59l.64-7.31c.48-5.43-.32-7.45-3.59-10.25l-28.55.12V125Z"/><path class="u" d="M263,174c-.44-5.13-.79-10-.81-10.21l-6.37-13.16a29.87,29.87,0,0,0-6.64-8.74l-.66-.6a1.73,1.73,0,0,1-.3-.74c-3,3.28-4.95,8.19-4.11,11.86l1.13,3.15,17.3,18C262.65,173.71,262.8,173.83,263,174Z"/><path class="v" d="M262.73,125.65l-21.24.61a6,6,0,0,0-5.71,5l-.11.73c-.3,2,1.62,8,5.58,12.8l21.23,28.42c3.45,4.2,4.34-.42,2.46-5l-6.31-18.62a29.92,29.92,0,0,0-5.53-9.48l-.58-.68a1.65,1.65,0,0,1,1.53-2.45l13.44-.54"/><path class="ac" d="M262.38,191l10.88-13.86a1.74,1.74,0,0,0-.28-2.54L268.79,172a1.43,1.43,0,0,0-1.66.08c-5,3.88-1.82,4.21-2.13,5.31l-3.68,13.15A.61.61,0,0,0,262.38,191Z"/><ellipse class="ag" cx="289.35" cy="89.44" rx="5.51" ry="6.2"/><ellipse class="aj" cx="303.19" cy="91.15" rx="5.51" ry="6.2"/><ellipse class="ag" cx="303.19" cy="90.01" rx="5.51" ry="6.2"/><line class="ak" x1="286" y1="126.63" x2="305.45" y2="132.61"/><line class="ak" x1="286" y1="126.63" x2="300.28" y2="127.77"/><path class="r" d="M339.85,67.44a1.67,1.67,0,0,0-2.1.56l-3.94-1.77-.49,1.09,3.88,1.74a1.52,1.52,0,0,0,.49,1.7,2.07,2.07,0,0,0,2.16-3.32Z"/><circle class="al" cx="292.49" cy="59.17" r="6.91"/><path class="am" d="M329.33,79.62a0,0,0,0,0-.08,0L323.8,96s-.07,0-.08,0l-9.46-24.44h-6.68V67.46a3.47,3.47,0,1,0-6.93,0v2.59s7.23,4.67,7.23,4.68c2.32,21.2-3.82,34.36-3.77,49,0,0,0,0,0,0-6.3,14.72-16.11,4-27.12,24h0l31.95.05c3.38-.33,5.08-3.21,5.38-6.59l.63-7.31c.48-5.43-.32-7.45-3.58-10.25H311l.25-12.48h0l3.39-18.63v0l7.31,14.81a2.39,2.39,0,0,0,4.36-.32l5.47-17.88a0,0,0,0,0,0,0Z"/><path class="v" d="M304.29,68.66l-3.76-.12C293,68.29,286,59.94,286,52.42V46.21h18.29Z"/><circle class="an" cx="307.68" cy="60.6" r="6.91"/><path class="ao" d="M303.15,60.72v9.72c16-4.93,21.08-12.22,19.12-19.44h0A21.5,21.5,0,0,0,303,29.68"/></svg>